<svg xmlns="http://www.w3.org/2000/svg" width="1400" height="900" viewBox="0 0 1400 900">
<rect width="100%" height="100%" fill="#ffffff"/>
<style>text { font-family: -apple-system,BlinkMacSystemFont,"Segoe UI",sans-serif; }</style>
<text x="700.0" y="35.0" font-size="23" text-anchor="middle" font-weight="600" fill="#24292f">Wirehair repair overhead: 10% random source erasures</text>
<text x="700.0" y="61.0" font-size="13" text-anchor="middle" font-weight="normal" fill="#57606a">Displayed value is extra blocks + 0.05 so zero remains visible on a log axis</text>
<line x1="627.5" y1="82" x2="655.5" y2="82" stroke="#1a7f37" stroke-width="3"/>
<text x="662.5" y="86.0" font-size="12" text-anchor="start" font-weight="normal" fill="#24292f">Wirehair (shipping)</text>
<rect x="78.0" y="105.0" width="593.0" height="335.0" rx="6" fill="#f6f8fa" stroke="#d0d7de"/>
<text x="374.5" y="125.0" font-size="14" text-anchor="middle" font-weight="600" fill="#24292f">64 B</text>
<line x1="143.0" y1="400.0" x2="654.0" y2="400.0" stroke="#d8dee4" stroke-width="1"/>
<text x="136.0" y="404.0" font-size="10" text-anchor="end" font-weight="normal" fill="#57606a">0.04</text>
<line x1="143.0" y1="385.4" x2="654.0" y2="385.4" stroke="#d8dee4" stroke-width="1"/>
<text x="136.0" y="389.4" font-size="10" text-anchor="end" font-weight="normal" fill="#57606a">0.05</text>
<line x1="143.0" y1="341.1" x2="654.0" y2="341.1" stroke="#d8dee4" stroke-width="1"/>
<text x="136.0" y="345.1" font-size="10" text-anchor="end" font-weight="normal" fill="#57606a">0.10</text>
<line x1="143.0" y1="296.8" x2="654.0" y2="296.8" stroke="#d8dee4" stroke-width="1"/>
<text x="136.0" y="300.8" font-size="10" text-anchor="end" font-weight="normal" fill="#57606a">0.20</text>
<line x1="143.0" y1="238.2" x2="654.0" y2="238.2" stroke="#d8dee4" stroke-width="1"/>
<text x="136.0" y="242.2" font-size="10" text-anchor="end" font-weight="normal" fill="#57606a">0.50</text>
<line x1="143.0" y1="193.9" x2="654.0" y2="193.9" stroke="#d8dee4" stroke-width="1"/>
<text x="136.0" y="197.9" font-size="10" text-anchor="end" font-weight="normal" fill="#57606a">1</text>
<line x1="143.0" y1="149.6" x2="654.0" y2="149.6" stroke="#d8dee4" stroke-width="1"/>
<text x="136.0" y="153.6" font-size="10" text-anchor="end" font-weight="normal" fill="#57606a">2</text>
<line x1="143.0" y1="135.0" x2="654.0" y2="135.0" stroke="#d8dee4" stroke-width="1"/>
<text x="136.0" y="139.0" font-size="10" text-anchor="end" font-weight="normal" fill="#57606a">2.5</text>
<line x1="143.0" y1="135.0" x2="143.0" y2="400.0" stroke="#eaeef2" stroke-width="1"/>
<text x="143.0" y="417.0" font-size="10" text-anchor="middle" font-weight="normal" fill="#57606a">1</text>
<line x1="208.5" y1="135.0" x2="208.5" y2="400.0" stroke="#eaeef2" stroke-width="1"/>
<text x="208.5" y="417.0" font-size="10" text-anchor="middle" font-weight="normal" fill="#57606a">2</text>
<line x1="273.9" y1="135.0" x2="273.9" y2="400.0" stroke="#eaeef2" stroke-width="1"/>
<text x="273.9" y="417.0" font-size="10" text-anchor="middle" font-weight="normal" fill="#57606a">4</text>
<line x1="339.4" y1="135.0" x2="339.4" y2="400.0" stroke="#eaeef2" stroke-width="1"/>
<text x="339.4" y="417.0" font-size="10" text-anchor="middle" font-weight="normal" fill="#57606a">8</text>
<line x1="404.8" y1="135.0" x2="404.8" y2="400.0" stroke="#eaeef2" stroke-width="1"/>
<text x="404.8" y="417.0" font-size="10" text-anchor="middle" font-weight="normal" fill="#57606a">16</text>
<line x1="470.3" y1="135.0" x2="470.3" y2="400.0" stroke="#eaeef2" stroke-width="1"/>
<text x="470.3" y="417.0" font-size="10" text-anchor="middle" font-weight="normal" fill="#57606a">32</text>
<line x1="535.7" y1="135.0" x2="535.7" y2="400.0" stroke="#eaeef2" stroke-width="1"/>
<text x="535.7" y="417.0" font-size="10" text-anchor="middle" font-weight="normal" fill="#57606a">64</text>
<line x1="601.2" y1="135.0" x2="601.2" y2="400.0" stroke="#eaeef2" stroke-width="1"/>
<text x="601.2" y="417.0" font-size="10" text-anchor="middle" font-weight="normal" fill="#57606a">128</text>
<line x1="654.0" y1="135.0" x2="654.0" y2="400.0" stroke="#eaeef2" stroke-width="1"/>
<text x="654.0" y="417.0" font-size="10" text-anchor="middle" font-weight="normal" fill="#57606a">224</text>
<polyline points="208.5,385.4 246.7,385.4 273.9,385.4 295.0,385.4 326.7,385.4 339.4,385.4 350.5,385.4 369.4,385.4 385.2,385.4 398.7,385.4 404.8,385.4 410.5,385.4 421.0,385.4 430.5,385.4 439.1,385.4 446.9,385.4 454.2,385.4 461.0,385.4 467.3,385.4 470.3,385.4 473.2,148.0 478.7,385.4 484.0,385.4 488.9,385.4 493.7,385.4 498.2,385.4 502.4,385.4 506.6,385.4 510.5,385.4 514.3,385.4 517.9,385.4 521.4,385.4 524.8,385.4 528.0,385.4 531.2,385.4 534.2,385.4 535.7,385.4 537.2,385.4 540.0,385.4 542.8,385.4 545.5,385.4 548.1,385.4 550.7,385.4 553.2,385.4 555.6,385.4 558.0,385.4 560.3,385.4 562.5,385.4 564.7,385.4 566.8,385.4 568.9,385.4 571.0,385.4 573.0,385.4 575.0,385.4 576.9,385.4 578.8,385.4 580.6,385.4 582.5,385.4 584.2,385.4 586.0,385.4 587.7,385.4 589.4,385.4 591.0,385.4 592.7,385.4 594.3,385.4 595.8,385.4 597.4,385.4 598.9,385.4 600.4,385.4 601.2,385.4 601.9,385.4 603.3,385.4 604.8,385.4 606.2,385.4 607.6,385.4 608.9,385.4 610.3,385.4 611.6,385.4 612.9,385.4 614.2,385.4 615.5,385.4 616.8,385.4 618.0,385.4 619.2,385.4 620.4,385.4 621.6,385.4 622.8,385.4 624.0,385.4 625.1,385.4 626.3,385.4 627.4,385.4 628.5,385.4 629.6,385.4 630.7,385.4 631.8,385.4 632.8,385.4 633.9,385.4 634.9,385.4 635.9,385.4 637.0,385.4 638.0,385.4 639.0,385.4 639.9,385.4 640.9,385.4 641.9,385.4 642.8,385.4 643.8,385.4 644.7,385.4 645.6,385.4 646.5,385.4 647.5,385.4 648.4,385.4 649.2,385.4 650.1,385.4 651.0,385.4 651.9,385.4 652.7,385.4 653.6,385.4 654.0,385.4" fill="none" stroke="#1a7f37" stroke-width="2.2" stroke-linejoin="round" stroke-linecap="round"/>
<circle cx="208.5" cy="385.4" r="2.8" fill="#fff" stroke="#1a7f37" stroke-width="1.6"/>
<circle cx="273.9" cy="385.4" r="2.8" fill="#fff" stroke="#1a7f37" stroke-width="1.6"/>
<circle cx="339.4" cy="385.4" r="2.8" fill="#fff" stroke="#1a7f37" stroke-width="1.6"/>
<circle cx="404.8" cy="385.4" r="2.8" fill="#fff" stroke="#1a7f37" stroke-width="1.6"/>
<circle cx="470.3" cy="385.4" r="2.8" fill="#fff" stroke="#1a7f37" stroke-width="1.6"/>
<circle cx="535.7" cy="385.4" r="2.8" fill="#fff" stroke="#1a7f37" stroke-width="1.6"/>
<circle cx="601.2" cy="385.4" r="2.8" fill="#fff" stroke="#1a7f37" stroke-width="1.6"/>
<circle cx="654.0" cy="385.4" r="2.8" fill="#fff" stroke="#1a7f37" stroke-width="1.6"/>
<text x="398.5" y="436.0" font-size="11" text-anchor="middle" font-weight="normal" fill="#24292f">K (log₂ scale)</text>
<text x="92.0" y="267.5" font-size="11" text-anchor="middle" font-weight="normal" fill="#24292f" transform="rotate(-90 92.0 267.5)">extra repair blocks + 0.05</text>
<rect x="729.0" y="105.0" width="593.0" height="335.0" rx="6" fill="#f6f8fa" stroke="#d0d7de"/>
<text x="1025.5" y="125.0" font-size="14" text-anchor="middle" font-weight="600" fill="#24292f">1 KiB</text>
<line x1="794.0" y1="400.0" x2="1305.0" y2="400.0" stroke="#d8dee4" stroke-width="1"/>
<text x="787.0" y="404.0" font-size="10" text-anchor="end" font-weight="normal" fill="#57606a">0.04</text>
<line x1="794.0" y1="385.4" x2="1305.0" y2="385.4" stroke="#d8dee4" stroke-width="1"/>
<text x="787.0" y="389.4" font-size="10" text-anchor="end" font-weight="normal" fill="#57606a">0.05</text>
<line x1="794.0" y1="341.1" x2="1305.0" y2="341.1" stroke="#d8dee4" stroke-width="1"/>
<text x="787.0" y="345.1" font-size="10" text-anchor="end" font-weight="normal" fill="#57606a">0.10</text>
<line x1="794.0" y1="296.8" x2="1305.0" y2="296.8" stroke="#d8dee4" stroke-width="1"/>
<text x="787.0" y="300.8" font-size="10" text-anchor="end" font-weight="normal" fill="#57606a">0.20</text>
<line x1="794.0" y1="238.2" x2="1305.0" y2="238.2" stroke="#d8dee4" stroke-width="1"/>
<text x="787.0" y="242.2" font-size="10" text-anchor="end" font-weight="normal" fill="#57606a">0.50</text>
<line x1="794.0" y1="193.9" x2="1305.0" y2="193.9" stroke="#d8dee4" stroke-width="1"/>
<text x="787.0" y="197.9" font-size="10" text-anchor="end" font-weight="normal" fill="#57606a">1</text>
<line x1="794.0" y1="149.6" x2="1305.0" y2="149.6" stroke="#d8dee4" stroke-width="1"/>
<text x="787.0" y="153.6" font-size="10" text-anchor="end" font-weight="normal" fill="#57606a">2</text>
<line x1="794.0" y1="135.0" x2="1305.0" y2="135.0" stroke="#d8dee4" stroke-width="1"/>
<text x="787.0" y="139.0" font-size="10" text-anchor="end" font-weight="normal" fill="#57606a">2.5</text>
<line x1="794.0" y1="135.0" x2="794.0" y2="400.0" stroke="#eaeef2" stroke-width="1"/>
<text x="794.0" y="417.0" font-size="10" text-anchor="middle" font-weight="normal" fill="#57606a">1</text>
<line x1="859.5" y1="135.0" x2="859.5" y2="400.0" stroke="#eaeef2" stroke-width="1"/>
<text x="859.5" y="417.0" font-size="10" text-anchor="middle" font-weight="normal" fill="#57606a">2</text>
<line x1="924.9" y1="135.0" x2="924.9" y2="400.0" stroke="#eaeef2" stroke-width="1"/>
<text x="924.9" y="417.0" font-size="10" text-anchor="middle" font-weight="normal" fill="#57606a">4</text>
<line x1="990.4" y1="135.0" x2="990.4" y2="400.0" stroke="#eaeef2" stroke-width="1"/>
<text x="990.4" y="417.0" font-size="10" text-anchor="middle" font-weight="normal" fill="#57606a">8</text>
<line x1="1055.8" y1="135.0" x2="1055.8" y2="400.0" stroke="#eaeef2" stroke-width="1"/>
<text x="1055.8" y="417.0" font-size="10" text-anchor="middle" font-weight="normal" fill="#57606a">16</text>
<line x1="1121.3" y1="135.0" x2="1121.3" y2="400.0" stroke="#eaeef2" stroke-width="1"/>
<text x="1121.3" y="417.0" font-size="10" text-anchor="middle" font-weight="normal" fill="#57606a">32</text>
<line x1="1186.7" y1="135.0" x2="1186.7" y2="400.0" stroke="#eaeef2" stroke-width="1"/>
<text x="1186.7" y="417.0" font-size="10" text-anchor="middle" font-weight="normal" fill="#57606a">64</text>
<line x1="1252.2" y1="135.0" x2="1252.2" y2="400.0" stroke="#eaeef2" stroke-width="1"/>
<text x="1252.2" y="417.0" font-size="10" text-anchor="middle" font-weight="normal" fill="#57606a">128</text>
<line x1="1305.0" y1="135.0" x2="1305.0" y2="400.0" stroke="#eaeef2" stroke-width="1"/>
<text x="1305.0" y="417.0" font-size="10" text-anchor="middle" font-weight="normal" fill="#57606a">224</text>
<polyline points="859.5,385.4 897.7,385.4 924.9,385.4 946.0,385.4 977.7,385.4 990.4,385.4 1001.5,385.4 1020.4,385.4 1036.2,385.4 1049.7,385.4 1055.8,385.4 1061.5,385.4 1072.0,385.4 1081.5,385.4 1090.1,385.4 1097.9,385.4 1105.2,385.4 1112.0,385.4 1118.3,385.4 1121.3,385.4 1124.2,148.0 1129.7,385.4 1135.0,385.4 1139.9,385.4 1144.7,385.4 1149.2,385.4 1153.4,385.4 1157.6,385.4 1161.5,385.4 1165.3,385.4 1168.9,385.4 1172.4,385.4 1175.8,385.4 1179.0,385.4 1182.2,385.4 1185.2,385.4 1186.7,385.4 1188.2,385.4 1191.0,385.4 1193.8,385.4 1196.5,385.4 1199.1,385.4 1201.7,385.4 1204.2,385.4 1206.6,385.4 1209.0,385.4 1211.3,385.4 1213.5,385.4 1215.7,385.4 1217.8,385.4 1219.9,385.4 1222.0,385.4 1224.0,385.4 1226.0,385.4 1227.9,385.4 1229.8,385.4 1231.6,385.4 1233.5,385.4 1235.2,385.4 1237.0,385.4 1238.7,385.4 1240.4,385.4 1242.0,385.4 1243.7,385.4 1245.3,385.4 1246.8,385.4 1248.4,385.4 1249.9,385.4 1251.4,385.4 1252.2,385.4 1252.9,385.4 1254.3,385.4 1255.8,385.4 1257.2,385.4 1258.6,385.4 1259.9,385.4 1261.3,385.4 1262.6,385.4 1263.9,385.4 1265.2,385.4 1266.5,385.4 1267.8,385.4 1269.0,385.4 1270.2,385.4 1271.4,385.4 1272.6,385.4 1273.8,385.4 1275.0,385.4 1276.1,385.4 1277.3,385.4 1278.4,385.4 1279.5,385.4 1280.6,385.4 1281.7,385.4 1282.8,385.4 1283.8,385.4 1284.9,385.4 1285.9,385.4 1286.9,385.4 1288.0,385.4 1289.0,385.4 1290.0,385.4 1290.9,385.4 1291.9,385.4 1292.9,385.4 1293.8,385.4 1294.8,385.4 1295.7,385.4 1296.6,385.4 1297.5,385.4 1298.5,385.4 1299.4,385.4 1300.2,385.4 1301.1,385.4 1302.0,385.4 1302.9,385.4 1303.7,385.4 1304.6,385.4 1305.0,385.4" fill="none" stroke="#1a7f37" stroke-width="2.2" stroke-linejoin="round" stroke-linecap="round"/>
<circle cx="859.5" cy="385.4" r="2.8" fill="#fff" stroke="#1a7f37" stroke-width="1.6"/>
<circle cx="924.9" cy="385.4" r="2.8" fill="#fff" stroke="#1a7f37" stroke-width="1.6"/>
<circle cx="990.4" cy="385.4" r="2.8" fill="#fff" stroke="#1a7f37" stroke-width="1.6"/>
<circle cx="1055.8" cy="385.4" r="2.8" fill="#fff" stroke="#1a7f37" stroke-width="1.6"/>
<circle cx="1121.3" cy="385.4" r="2.8" fill="#fff" stroke="#1a7f37" stroke-width="1.6"/>
<circle cx="1186.7" cy="385.4" r="2.8" fill="#fff" stroke="#1a7f37" stroke-width="1.6"/>
<circle cx="1252.2" cy="385.4" r="2.8" fill="#fff" stroke="#1a7f37" stroke-width="1.6"/>
<circle cx="1305.0" cy="385.4" r="2.8" fill="#fff" stroke="#1a7f37" stroke-width="1.6"/>
<text x="1049.5" y="436.0" font-size="11" text-anchor="middle" font-weight="normal" fill="#24292f">K (log₂ scale)</text>
<text x="743.0" y="267.5" font-size="11" text-anchor="middle" font-weight="normal" fill="#24292f" transform="rotate(-90 743.0 267.5)">extra repair blocks + 0.05</text>
<rect x="78.0" y="500.0" width="593.0" height="335.0" rx="6" fill="#f6f8fa" stroke="#d0d7de"/>
<text x="374.5" y="520.0" font-size="14" text-anchor="middle" font-weight="600" fill="#24292f">4 KiB</text>
<line x1="143.0" y1="795.0" x2="654.0" y2="795.0" stroke="#d8dee4" stroke-width="1"/>
<text x="136.0" y="799.0" font-size="10" text-anchor="end" font-weight="normal" fill="#57606a">0.04</text>
<line x1="143.0" y1="780.4" x2="654.0" y2="780.4" stroke="#d8dee4" stroke-width="1"/>
<text x="136.0" y="784.4" font-size="10" text-anchor="end" font-weight="normal" fill="#57606a">0.05</text>
<line x1="143.0" y1="736.1" x2="654.0" y2="736.1" stroke="#d8dee4" stroke-width="1"/>
<text x="136.0" y="740.1" font-size="10" text-anchor="end" font-weight="normal" fill="#57606a">0.10</text>
<line x1="143.0" y1="691.8" x2="654.0" y2="691.8" stroke="#d8dee4" stroke-width="1"/>
<text x="136.0" y="695.8" font-size="10" text-anchor="end" font-weight="normal" fill="#57606a">0.20</text>
<line x1="143.0" y1="633.2" x2="654.0" y2="633.2" stroke="#d8dee4" stroke-width="1"/>
<text x="136.0" y="637.2" font-size="10" text-anchor="end" font-weight="normal" fill="#57606a">0.50</text>
<line x1="143.0" y1="588.9" x2="654.0" y2="588.9" stroke="#d8dee4" stroke-width="1"/>
<text x="136.0" y="592.9" font-size="10" text-anchor="end" font-weight="normal" fill="#57606a">1</text>
<line x1="143.0" y1="544.6" x2="654.0" y2="544.6" stroke="#d8dee4" stroke-width="1"/>
<text x="136.0" y="548.6" font-size="10" text-anchor="end" font-weight="normal" fill="#57606a">2</text>
<line x1="143.0" y1="530.0" x2="654.0" y2="530.0" stroke="#d8dee4" stroke-width="1"/>
<text x="136.0" y="534.0" font-size="10" text-anchor="end" font-weight="normal" fill="#57606a">2.5</text>
<line x1="143.0" y1="530.0" x2="143.0" y2="795.0" stroke="#eaeef2" stroke-width="1"/>
<text x="143.0" y="812.0" font-size="10" text-anchor="middle" font-weight="normal" fill="#57606a">1</text>
<line x1="208.5" y1="530.0" x2="208.5" y2="795.0" stroke="#eaeef2" stroke-width="1"/>
<text x="208.5" y="812.0" font-size="10" text-anchor="middle" font-weight="normal" fill="#57606a">2</text>
<line x1="273.9" y1="530.0" x2="273.9" y2="795.0" stroke="#eaeef2" stroke-width="1"/>
<text x="273.9" y="812.0" font-size="10" text-anchor="middle" font-weight="normal" fill="#57606a">4</text>
<line x1="339.4" y1="530.0" x2="339.4" y2="795.0" stroke="#eaeef2" stroke-width="1"/>
<text x="339.4" y="812.0" font-size="10" text-anchor="middle" font-weight="normal" fill="#57606a">8</text>
<line x1="404.8" y1="530.0" x2="404.8" y2="795.0" stroke="#eaeef2" stroke-width="1"/>
<text x="404.8" y="812.0" font-size="10" text-anchor="middle" font-weight="normal" fill="#57606a">16</text>
<line x1="470.3" y1="530.0" x2="470.3" y2="795.0" stroke="#eaeef2" stroke-width="1"/>
<text x="470.3" y="812.0" font-size="10" text-anchor="middle" font-weight="normal" fill="#57606a">32</text>
<line x1="535.7" y1="530.0" x2="535.7" y2="795.0" stroke="#eaeef2" stroke-width="1"/>
<text x="535.7" y="812.0" font-size="10" text-anchor="middle" font-weight="normal" fill="#57606a">64</text>
<line x1="601.2" y1="530.0" x2="601.2" y2="795.0" stroke="#eaeef2" stroke-width="1"/>
<text x="601.2" y="812.0" font-size="10" text-anchor="middle" font-weight="normal" fill="#57606a">128</text>
<line x1="654.0" y1="530.0" x2="654.0" y2="795.0" stroke="#eaeef2" stroke-width="1"/>
<text x="654.0" y="812.0" font-size="10" text-anchor="middle" font-weight="normal" fill="#57606a">224</text>
<polyline points="208.5,780.4 246.7,780.4 273.9,780.4 295.0,780.4 326.7,780.4 339.4,780.4 350.5,780.4 369.4,780.4 385.2,780.4 398.7,780.4 404.8,780.4 410.5,780.4 421.0,780.4 430.5,780.4 439.1,780.4 446.9,780.4 454.2,780.4 461.0,780.4 467.3,780.4 470.3,780.4 473.2,543.0 478.7,780.4 484.0,780.4 488.9,780.4 493.7,780.4 498.2,780.4 502.4,780.4 506.6,780.4 510.5,780.4 514.3,780.4 517.9,780.4 521.4,780.4 524.8,780.4 528.0,780.4 531.2,780.4 534.2,780.4 535.7,780.4 537.2,780.4 540.0,780.4 542.8,780.4 545.5,780.4 548.1,780.4 550.7,780.4 553.2,780.4 555.6,780.4 558.0,780.4 560.3,780.4 562.5,780.4 564.7,780.4 566.8,780.4 568.9,780.4 571.0,780.4 573.0,780.4 575.0,780.4 576.9,780.4 578.8,780.4 580.6,780.4 582.5,780.4 584.2,780.4 586.0,780.4 587.7,780.4 589.4,780.4 591.0,780.4 592.7,780.4 594.3,780.4 595.8,780.4 597.4,780.4 598.9,780.4 600.4,780.4 601.2,780.4 601.9,780.4 603.3,780.4 604.8,780.4 606.2,780.4 607.6,780.4 608.9,780.4 610.3,780.4 611.6,780.4 612.9,780.4 614.2,780.4 615.5,780.4 616.8,780.4 618.0,780.4 619.2,780.4 620.4,780.4 621.6,780.4 622.8,780.4 624.0,780.4 625.1,780.4 626.3,780.4 627.4,780.4 628.5,780.4 629.6,780.4 630.7,780.4 631.8,780.4 632.8,780.4 633.9,780.4 634.9,780.4 635.9,780.4 637.0,780.4 638.0,780.4 639.0,780.4 639.9,780.4 640.9,780.4 641.9,780.4 642.8,780.4 643.8,780.4 644.7,780.4 645.6,780.4 646.5,780.4 647.5,780.4 648.4,780.4 649.2,780.4 650.1,780.4 651.0,780.4 651.9,780.4 652.7,780.4 653.6,780.4 654.0,780.4" fill="none" stroke="#1a7f37" stroke-width="2.2" stroke-linejoin="round" stroke-linecap="round"/>
<circle cx="208.5" cy="780.4" r="2.8" fill="#fff" stroke="#1a7f37" stroke-width="1.6"/>
<circle cx="273.9" cy="780.4" r="2.8" fill="#fff" stroke="#1a7f37" stroke-width="1.6"/>
<circle cx="339.4" cy="780.4" r="2.8" fill="#fff" stroke="#1a7f37" stroke-width="1.6"/>
<circle cx="404.8" cy="780.4" r="2.8" fill="#fff" stroke="#1a7f37" stroke-width="1.6"/>
<circle cx="470.3" cy="780.4" r="2.8" fill="#fff" stroke="#1a7f37" stroke-width="1.6"/>
<circle cx="535.7" cy="780.4" r="2.8" fill="#fff" stroke="#1a7f37" stroke-width="1.6"/>
<circle cx="601.2" cy="780.4" r="2.8" fill="#fff" stroke="#1a7f37" stroke-width="1.6"/>
<circle cx="654.0" cy="780.4" r="2.8" fill="#fff" stroke="#1a7f37" stroke-width="1.6"/>
<text x="398.5" y="831.0" font-size="11" text-anchor="middle" font-weight="normal" fill="#24292f">K (log₂ scale)</text>
<text x="92.0" y="662.5" font-size="11" text-anchor="middle" font-weight="normal" fill="#24292f" transform="rotate(-90 92.0 662.5)">extra repair blocks + 0.05</text>
<rect x="729.0" y="500.0" width="593.0" height="335.0" rx="6" fill="#f6f8fa" stroke="#d0d7de"/>
<text x="1025.5" y="520.0" font-size="14" text-anchor="middle" font-weight="600" fill="#24292f">1 MiB</text>
<line x1="794.0" y1="795.0" x2="1305.0" y2="795.0" stroke="#d8dee4" stroke-width="1"/>
<text x="787.0" y="799.0" font-size="10" text-anchor="end" font-weight="normal" fill="#57606a">0.04</text>
<line x1="794.0" y1="780.4" x2="1305.0" y2="780.4" stroke="#d8dee4" stroke-width="1"/>
<text x="787.0" y="784.4" font-size="10" text-anchor="end" font-weight="normal" fill="#57606a">0.05</text>
<line x1="794.0" y1="736.1" x2="1305.0" y2="736.1" stroke="#d8dee4" stroke-width="1"/>
<text x="787.0" y="740.1" font-size="10" text-anchor="end" font-weight="normal" fill="#57606a">0.10</text>
<line x1="794.0" y1="691.8" x2="1305.0" y2="691.8" stroke="#d8dee4" stroke-width="1"/>
<text x="787.0" y="695.8" font-size="10" text-anchor="end" font-weight="normal" fill="#57606a">0.20</text>
<line x1="794.0" y1="633.2" x2="1305.0" y2="633.2" stroke="#d8dee4" stroke-width="1"/>
<text x="787.0" y="637.2" font-size="10" text-anchor="end" font-weight="normal" fill="#57606a">0.50</text>
<line x1="794.0" y1="588.9" x2="1305.0" y2="588.9" stroke="#d8dee4" stroke-width="1"/>
<text x="787.0" y="592.9" font-size="10" text-anchor="end" font-weight="normal" fill="#57606a">1</text>
<line x1="794.0" y1="544.6" x2="1305.0" y2="544.6" stroke="#d8dee4" stroke-width="1"/>
<text x="787.0" y="548.6" font-size="10" text-anchor="end" font-weight="normal" fill="#57606a">2</text>
<line x1="794.0" y1="530.0" x2="1305.0" y2="530.0" stroke="#d8dee4" stroke-width="1"/>
<text x="787.0" y="534.0" font-size="10" text-anchor="end" font-weight="normal" fill="#57606a">2.5</text>
<line x1="794.0" y1="530.0" x2="794.0" y2="795.0" stroke="#eaeef2" stroke-width="1"/>
<text x="794.0" y="812.0" font-size="10" text-anchor="middle" font-weight="normal" fill="#57606a">1</text>
<line x1="859.5" y1="530.0" x2="859.5" y2="795.0" stroke="#eaeef2" stroke-width="1"/>
<text x="859.5" y="812.0" font-size="10" text-anchor="middle" font-weight="normal" fill="#57606a">2</text>
<line x1="924.9" y1="530.0" x2="924.9" y2="795.0" stroke="#eaeef2" stroke-width="1"/>
<text x="924.9" y="812.0" font-size="10" text-anchor="middle" font-weight="normal" fill="#57606a">4</text>
<line x1="990.4" y1="530.0" x2="990.4" y2="795.0" stroke="#eaeef2" stroke-width="1"/>
<text x="990.4" y="812.0" font-size="10" text-anchor="middle" font-weight="normal" fill="#57606a">8</text>
<line x1="1055.8" y1="530.0" x2="1055.8" y2="795.0" stroke="#eaeef2" stroke-width="1"/>
<text x="1055.8" y="812.0" font-size="10" text-anchor="middle" font-weight="normal" fill="#57606a">16</text>
<line x1="1121.3" y1="530.0" x2="1121.3" y2="795.0" stroke="#eaeef2" stroke-width="1"/>
<text x="1121.3" y="812.0" font-size="10" text-anchor="middle" font-weight="normal" fill="#57606a">32</text>
<line x1="1186.7" y1="530.0" x2="1186.7" y2="795.0" stroke="#eaeef2" stroke-width="1"/>
<text x="1186.7" y="812.0" font-size="10" text-anchor="middle" font-weight="normal" fill="#57606a">64</text>
<line x1="1252.2" y1="530.0" x2="1252.2" y2="795.0" stroke="#eaeef2" stroke-width="1"/>
<text x="1252.2" y="812.0" font-size="10" text-anchor="middle" font-weight="normal" fill="#57606a">128</text>
<line x1="1305.0" y1="530.0" x2="1305.0" y2="795.0" stroke="#eaeef2" stroke-width="1"/>
<text x="1305.0" y="812.0" font-size="10" text-anchor="middle" font-weight="normal" fill="#57606a">224</text>
<polyline points="859.5,780.4 897.7,780.4 924.9,780.4 946.0,780.4 977.7,780.4 990.4,780.4 1001.5,780.4 1020.4,780.4 1036.2,780.4 1049.7,780.4 1055.8,780.4 1061.5,780.4 1072.0,780.4 1081.5,780.4 1090.1,780.4 1097.9,780.4 1105.2,780.4 1112.0,780.4 1118.3,780.4 1121.3,780.4 1124.2,543.0 1129.7,780.4 1135.0,780.4 1139.9,780.4 1144.7,780.4 1149.2,780.4 1153.4,780.4 1157.6,780.4 1161.5,780.4 1165.3,780.4 1168.9,780.4 1172.4,780.4 1175.8,780.4 1179.0,780.4 1182.2,780.4 1185.2,780.4 1186.7,780.4 1188.2,780.4 1191.0,780.4 1193.8,780.4 1196.5,780.4 1199.1,780.4 1201.7,780.4 1204.2,780.4 1206.6,780.4 1209.0,780.4 1211.3,780.4 1213.5,780.4 1215.7,780.4 1217.8,780.4 1219.9,780.4 1222.0,780.4 1224.0,780.4 1226.0,780.4 1227.9,780.4 1229.8,780.4 1231.6,780.4 1233.5,780.4 1235.2,780.4 1237.0,780.4 1238.7,780.4 1240.4,780.4 1242.0,780.4 1243.7,780.4 1245.3,780.4 1246.8,780.4 1248.4,780.4 1249.9,780.4 1251.4,780.4 1252.2,780.4 1252.9,780.4 1254.3,780.4 1255.8,780.4 1257.2,780.4 1258.6,780.4 1259.9,780.4 1261.3,780.4 1262.6,780.4 1263.9,780.4 1265.2,780.4 1266.5,780.4 1267.8,780.4 1269.0,780.4 1270.2,780.4 1271.4,780.4 1272.6,780.4 1273.8,780.4 1275.0,780.4 1276.1,780.4 1277.3,780.4 1278.4,780.4 1279.5,780.4 1280.6,780.4 1281.7,780.4 1282.8,780.4 1283.8,780.4 1284.9,780.4 1285.9,780.4 1286.9,780.4 1288.0,780.4 1289.0,780.4 1290.0,780.4 1290.9,780.4 1291.9,780.4 1292.9,780.4 1293.8,780.4 1294.8,780.4 1295.7,780.4 1296.6,780.4 1297.5,780.4 1298.5,780.4 1299.4,780.4 1300.2,780.4 1301.1,780.4 1302.0,780.4 1302.9,780.4 1303.7,780.4 1304.6,780.4 1305.0,780.4" fill="none" stroke="#1a7f37" stroke-width="2.2" stroke-linejoin="round" stroke-linecap="round"/>
<circle cx="859.5" cy="780.4" r="2.8" fill="#fff" stroke="#1a7f37" stroke-width="1.6"/>
<circle cx="924.9" cy="780.4" r="2.8" fill="#fff" stroke="#1a7f37" stroke-width="1.6"/>
<circle cx="990.4" cy="780.4" r="2.8" fill="#fff" stroke="#1a7f37" stroke-width="1.6"/>
<circle cx="1055.8" cy="780.4" r="2.8" fill="#fff" stroke="#1a7f37" stroke-width="1.6"/>
<circle cx="1121.3" cy="780.4" r="2.8" fill="#fff" stroke="#1a7f37" stroke-width="1.6"/>
<circle cx="1186.7" cy="780.4" r="2.8" fill="#fff" stroke="#1a7f37" stroke-width="1.6"/>
<circle cx="1252.2" cy="780.4" r="2.8" fill="#fff" stroke="#1a7f37" stroke-width="1.6"/>
<circle cx="1305.0" cy="780.4" r="2.8" fill="#fff" stroke="#1a7f37" stroke-width="1.6"/>
<text x="1049.5" y="831.0" font-size="11" text-anchor="middle" font-weight="normal" fill="#24292f">K (log₂ scale)</text>
<text x="743.0" y="662.5" font-size="11" text-anchor="middle" font-weight="normal" fill="#24292f" transform="rotate(-90 743.0 662.5)">extra repair blocks + 0.05</text>
<text x="700.0" y="884.0" font-size="11" text-anchor="middle" font-weight="normal" fill="#57606a">Lines include every odd K; hollow markers identify powers of two and K=224. Missing codec cells are not connected.</text>
</svg>
