<svg xmlns="http://www.w3.org/2000/svg" width="1400" height="900" viewBox="0 0 1400 900">
<rect width="100%" height="100%" fill="#ffffff"/>
<style>text { font-family: -apple-system,BlinkMacSystemFont,"Segoe UI",sans-serif; }</style>
<text x="700.0" y="35.0" font-size="23" text-anchor="middle" font-weight="600" fill="#24292f">Leopard2 decode speedup over Wirehair: 1 random source erasure</text>
<text x="700.0" y="61.0" font-size="13" text-anchor="middle" font-weight="normal" fill="#57606a">AVX2-restricted L2 and L1; R=32; odd K + powers of two through 224; single core; setup included; values above 1 are faster</text>
<line x1="627.5" y1="82" x2="655.5" y2="82" stroke="#cf222e" stroke-width="3"/>
<text x="662.5" y="86.0" font-size="12" text-anchor="start" font-weight="normal" fill="#24292f">Leopard2</text>
<rect x="78.0" y="105.0" width="593.0" height="335.0" rx="6" fill="#f6f8fa" stroke="#d0d7de"/>
<text x="374.5" y="125.0" font-size="14" text-anchor="middle" font-weight="600" fill="#24292f">64 B</text>
<line x1="143.0" y1="400.0" x2="654.0" y2="400.0" stroke="#d8dee4" stroke-width="1"/>
<text x="136.0" y="404.0" font-size="10" text-anchor="end" font-weight="normal" fill="#57606a">1</text>
<line x1="143.0" y1="350.1" x2="654.0" y2="350.1" stroke="#d8dee4" stroke-width="1"/>
<text x="136.0" y="354.1" font-size="10" text-anchor="end" font-weight="normal" fill="#57606a">2</text>
<line x1="143.0" y1="284.2" x2="654.0" y2="284.2" stroke="#d8dee4" stroke-width="1"/>
<text x="136.0" y="288.2" font-size="10" text-anchor="end" font-weight="normal" fill="#57606a">5</text>
<line x1="143.0" y1="234.4" x2="654.0" y2="234.4" stroke="#d8dee4" stroke-width="1"/>
<text x="136.0" y="238.4" font-size="10" text-anchor="end" font-weight="normal" fill="#57606a">10.0</text>
<line x1="143.0" y1="184.5" x2="654.0" y2="184.5" stroke="#d8dee4" stroke-width="1"/>
<text x="136.0" y="188.5" font-size="10" text-anchor="end" font-weight="normal" fill="#57606a">20.0</text>
<line x1="143.0" y1="135.0" x2="654.0" y2="135.0" stroke="#d8dee4" stroke-width="1"/>
<text x="136.0" y="139.0" font-size="10" text-anchor="end" font-weight="normal" fill="#57606a">39.8</text>
<line x1="143.0" y1="135.0" x2="143.0" y2="400.0" stroke="#eaeef2" stroke-width="1"/>
<text x="143.0" y="417.0" font-size="10" text-anchor="middle" font-weight="normal" fill="#57606a">1</text>
<line x1="208.5" y1="135.0" x2="208.5" y2="400.0" stroke="#eaeef2" stroke-width="1"/>
<text x="208.5" y="417.0" font-size="10" text-anchor="middle" font-weight="normal" fill="#57606a">2</text>
<line x1="273.9" y1="135.0" x2="273.9" y2="400.0" stroke="#eaeef2" stroke-width="1"/>
<text x="273.9" y="417.0" font-size="10" text-anchor="middle" font-weight="normal" fill="#57606a">4</text>
<line x1="339.4" y1="135.0" x2="339.4" y2="400.0" stroke="#eaeef2" stroke-width="1"/>
<text x="339.4" y="417.0" font-size="10" text-anchor="middle" font-weight="normal" fill="#57606a">8</text>
<line x1="404.8" y1="135.0" x2="404.8" y2="400.0" stroke="#eaeef2" stroke-width="1"/>
<text x="404.8" y="417.0" font-size="10" text-anchor="middle" font-weight="normal" fill="#57606a">16</text>
<line x1="470.3" y1="135.0" x2="470.3" y2="400.0" stroke="#eaeef2" stroke-width="1"/>
<text x="470.3" y="417.0" font-size="10" text-anchor="middle" font-weight="normal" fill="#57606a">32</text>
<line x1="535.7" y1="135.0" x2="535.7" y2="400.0" stroke="#eaeef2" stroke-width="1"/>
<text x="535.7" y="417.0" font-size="10" text-anchor="middle" font-weight="normal" fill="#57606a">64</text>
<line x1="601.2" y1="135.0" x2="601.2" y2="400.0" stroke="#eaeef2" stroke-width="1"/>
<text x="601.2" y="417.0" font-size="10" text-anchor="middle" font-weight="normal" fill="#57606a">128</text>
<line x1="654.0" y1="135.0" x2="654.0" y2="400.0" stroke="#eaeef2" stroke-width="1"/>
<text x="654.0" y="417.0" font-size="10" text-anchor="middle" font-weight="normal" fill="#57606a">224</text>
<line x1="143.0" y1="400.0" x2="654.0" y2="400.0" stroke="#6e7781" stroke-width="1.5" stroke-dasharray="5 4"/>
<polyline points="208.5,263.0 246.7,261.6 273.9,259.6 295.0,265.2 326.7,246.5 339.4,246.6 350.5,245.0 369.4,238.8 385.2,236.5 398.7,230.7 404.8,236.3 410.5,203.9 421.0,211.5 430.5,204.6 439.1,206.3 446.9,211.8 454.2,203.4 461.0,208.2 467.3,203.3 470.3,164.5 473.2,204.6 478.7,212.0 484.0,203.0 488.9,203.8 493.7,208.6 498.2,211.8 502.4,209.3 506.6,212.7 510.5,210.4 514.3,214.2 517.9,204.7 521.4,205.3 524.8,212.2 528.0,212.5 531.2,204.8 534.2,206.9 535.7,210.7 537.2,204.5 540.0,206.9 542.8,208.5 545.5,205.6 548.1,206.7 550.7,201.9 553.2,205.4 555.6,211.6 558.0,202.1 560.3,204.4 562.5,210.7 564.7,208.3 566.8,203.8 568.9,209.9 571.0,203.1 573.0,202.0 575.0,209.4 576.9,204.9 578.8,205.6 580.6,210.5 582.5,208.0 584.2,210.4 586.0,203.3 587.7,208.6 589.4,188.2 591.0,188.0 592.7,193.7 594.3,202.9 595.8,190.1 597.4,191.2 598.9,193.1 600.4,188.2 601.2,189.6 601.9,190.0 603.3,190.7 604.8,190.3 606.2,192.5 607.6,192.2 608.9,193.3 610.3,194.7 611.6,191.6 612.9,191.4 614.2,187.6 615.5,194.0 616.8,190.9 618.0,192.6 619.2,189.1 620.4,193.4 621.6,194.1 622.8,191.0 624.0,190.5 625.1,190.9 626.3,191.3 627.4,195.1 628.5,190.2 629.6,197.1 630.7,196.2 631.8,197.4 632.8,194.9 633.9,193.9 634.9,195.5 635.9,195.5 637.0,193.0 638.0,194.0 639.0,195.2 639.9,191.1 640.9,196.0 641.9,191.4 642.8,190.6 643.8,190.6 644.7,197.0 645.6,195.8 646.5,195.4 647.5,192.6 648.4,193.7 649.2,190.7 650.1,194.5 651.0,194.2 651.9,196.1 652.7,194.3 653.6,195.4 654.0,182.1" fill="none" stroke="#cf222e" stroke-width="2.2" stroke-linejoin="round" stroke-linecap="round"/>
<circle cx="208.5" cy="263.0" r="2.8" fill="#fff" stroke="#cf222e" stroke-width="1.6"/>
<circle cx="273.9" cy="259.6" r="2.8" fill="#fff" stroke="#cf222e" stroke-width="1.6"/>
<circle cx="339.4" cy="246.6" r="2.8" fill="#fff" stroke="#cf222e" stroke-width="1.6"/>
<circle cx="404.8" cy="236.3" r="2.8" fill="#fff" stroke="#cf222e" stroke-width="1.6"/>
<circle cx="470.3" cy="164.5" r="2.8" fill="#fff" stroke="#cf222e" stroke-width="1.6"/>
<circle cx="535.7" cy="210.7" r="2.8" fill="#fff" stroke="#cf222e" stroke-width="1.6"/>
<circle cx="601.2" cy="189.6" r="2.8" fill="#fff" stroke="#cf222e" stroke-width="1.6"/>
<circle cx="654.0" cy="182.1" r="2.8" fill="#fff" stroke="#cf222e" stroke-width="1.6"/>
<text x="398.5" y="436.0" font-size="11" text-anchor="middle" font-weight="normal" fill="#24292f">K (log₂ scale)</text>
<text x="92.0" y="267.5" font-size="11" text-anchor="middle" font-weight="normal" fill="#24292f" transform="rotate(-90 92.0 267.5)">speedup (×)</text>
<rect x="729.0" y="105.0" width="593.0" height="335.0" rx="6" fill="#f6f8fa" stroke="#d0d7de"/>
<text x="1025.5" y="125.0" font-size="14" text-anchor="middle" font-weight="600" fill="#24292f">1 KiB</text>
<line x1="794.0" y1="400.0" x2="1305.0" y2="400.0" stroke="#d8dee4" stroke-width="1"/>
<text x="787.0" y="404.0" font-size="10" text-anchor="end" font-weight="normal" fill="#57606a">1</text>
<line x1="794.0" y1="355.7" x2="1305.0" y2="355.7" stroke="#d8dee4" stroke-width="1"/>
<text x="787.0" y="359.7" font-size="10" text-anchor="end" font-weight="normal" fill="#57606a">2</text>
<line x1="794.0" y1="297.1" x2="1305.0" y2="297.1" stroke="#d8dee4" stroke-width="1"/>
<text x="787.0" y="301.1" font-size="10" text-anchor="end" font-weight="normal" fill="#57606a">5</text>
<line x1="794.0" y1="252.8" x2="1305.0" y2="252.8" stroke="#d8dee4" stroke-width="1"/>
<text x="787.0" y="256.8" font-size="10" text-anchor="end" font-weight="normal" fill="#57606a">10.0</text>
<line x1="794.0" y1="208.5" x2="1305.0" y2="208.5" stroke="#d8dee4" stroke-width="1"/>
<text x="787.0" y="212.5" font-size="10" text-anchor="end" font-weight="normal" fill="#57606a">20.0</text>
<line x1="794.0" y1="149.9" x2="1305.0" y2="149.9" stroke="#d8dee4" stroke-width="1"/>
<text x="787.0" y="153.9" font-size="10" text-anchor="end" font-weight="normal" fill="#57606a">50.0</text>
<line x1="794.0" y1="135.0" x2="1305.0" y2="135.0" stroke="#d8dee4" stroke-width="1"/>
<text x="787.0" y="139.0" font-size="10" text-anchor="end" font-weight="normal" fill="#57606a">63.1</text>
<line x1="794.0" y1="135.0" x2="794.0" y2="400.0" stroke="#eaeef2" stroke-width="1"/>
<text x="794.0" y="417.0" font-size="10" text-anchor="middle" font-weight="normal" fill="#57606a">1</text>
<line x1="859.5" y1="135.0" x2="859.5" y2="400.0" stroke="#eaeef2" stroke-width="1"/>
<text x="859.5" y="417.0" font-size="10" text-anchor="middle" font-weight="normal" fill="#57606a">2</text>
<line x1="924.9" y1="135.0" x2="924.9" y2="400.0" stroke="#eaeef2" stroke-width="1"/>
<text x="924.9" y="417.0" font-size="10" text-anchor="middle" font-weight="normal" fill="#57606a">4</text>
<line x1="990.4" y1="135.0" x2="990.4" y2="400.0" stroke="#eaeef2" stroke-width="1"/>
<text x="990.4" y="417.0" font-size="10" text-anchor="middle" font-weight="normal" fill="#57606a">8</text>
<line x1="1055.8" y1="135.0" x2="1055.8" y2="400.0" stroke="#eaeef2" stroke-width="1"/>
<text x="1055.8" y="417.0" font-size="10" text-anchor="middle" font-weight="normal" fill="#57606a">16</text>
<line x1="1121.3" y1="135.0" x2="1121.3" y2="400.0" stroke="#eaeef2" stroke-width="1"/>
<text x="1121.3" y="417.0" font-size="10" text-anchor="middle" font-weight="normal" fill="#57606a">32</text>
<line x1="1186.7" y1="135.0" x2="1186.7" y2="400.0" stroke="#eaeef2" stroke-width="1"/>
<text x="1186.7" y="417.0" font-size="10" text-anchor="middle" font-weight="normal" fill="#57606a">64</text>
<line x1="1252.2" y1="135.0" x2="1252.2" y2="400.0" stroke="#eaeef2" stroke-width="1"/>
<text x="1252.2" y="417.0" font-size="10" text-anchor="middle" font-weight="normal" fill="#57606a">128</text>
<line x1="1305.0" y1="135.0" x2="1305.0" y2="400.0" stroke="#eaeef2" stroke-width="1"/>
<text x="1305.0" y="417.0" font-size="10" text-anchor="middle" font-weight="normal" fill="#57606a">224</text>
<line x1="794.0" y1="400.0" x2="1305.0" y2="400.0" stroke="#6e7781" stroke-width="1.5" stroke-dasharray="5 4"/>
<polyline points="859.5,242.4 897.7,233.6 924.9,230.9 946.0,172.9 977.7,175.3 990.4,170.7 1001.5,171.7 1020.4,170.4 1036.2,170.2 1049.7,166.8 1055.8,171.2 1061.5,151.3 1072.0,154.7 1081.5,150.9 1090.1,152.0 1097.9,153.4 1105.2,147.5 1112.0,146.9 1118.3,179.1 1121.3,158.9 1124.2,179.5 1129.7,149.5 1135.0,180.5 1139.9,180.4 1144.7,152.0 1149.2,159.9 1153.4,152.0 1157.6,153.2 1161.5,153.9 1165.3,161.4 1168.9,149.7 1172.4,151.3 1175.8,153.7 1179.0,154.2 1182.2,152.3 1185.2,152.4 1186.7,155.6 1188.2,151.9 1191.0,151.7 1193.8,153.6 1196.5,151.9 1199.1,158.8 1201.7,152.5 1204.2,152.8 1206.6,155.9 1209.0,152.6 1211.3,152.1 1213.5,155.6 1215.7,155.2 1217.8,153.4 1219.9,155.2 1222.0,155.0 1224.0,153.6 1226.0,155.3 1227.9,156.5 1229.8,152.8 1231.6,155.2 1233.5,155.1 1235.2,156.2 1237.0,154.4 1238.7,155.6 1240.4,153.6 1242.0,154.1 1243.7,156.5 1245.3,153.0 1246.8,155.5 1248.4,155.3 1249.9,156.7 1251.4,155.7 1252.2,155.0 1252.9,157.2 1254.3,156.4 1255.8,156.0 1257.2,154.4 1258.6,157.5 1259.9,157.7 1261.3,159.0 1262.6,156.3 1263.9,156.3 1265.2,156.1 1266.5,160.3 1267.8,158.4 1269.0,159.5 1270.2,157.1 1271.4,159.8 1272.6,159.9 1273.8,157.2 1275.0,158.2 1276.1,156.9 1277.3,159.1 1278.4,168.2 1279.5,158.1 1280.6,159.7 1281.7,158.8 1282.8,160.9 1283.8,159.3 1284.9,158.8 1285.9,159.3 1286.9,160.2 1288.0,157.4 1289.0,160.3 1290.0,161.1 1290.9,157.8 1291.9,159.1 1292.9,158.1 1293.8,159.6 1294.8,158.8 1295.7,160.1 1296.6,159.9 1297.5,160.4 1298.5,159.2 1299.4,160.9 1300.2,158.9 1301.1,159.6 1302.0,160.8 1302.9,160.6 1303.7,161.8 1304.6,179.1 1305.0,155.8" fill="none" stroke="#cf222e" stroke-width="2.2" stroke-linejoin="round" stroke-linecap="round"/>
<circle cx="859.5" cy="242.4" r="2.8" fill="#fff" stroke="#cf222e" stroke-width="1.6"/>
<circle cx="924.9" cy="230.9" r="2.8" fill="#fff" stroke="#cf222e" stroke-width="1.6"/>
<circle cx="990.4" cy="170.7" r="2.8" fill="#fff" stroke="#cf222e" stroke-width="1.6"/>
<circle cx="1055.8" cy="171.2" r="2.8" fill="#fff" stroke="#cf222e" stroke-width="1.6"/>
<circle cx="1121.3" cy="158.9" r="2.8" fill="#fff" stroke="#cf222e" stroke-width="1.6"/>
<circle cx="1186.7" cy="155.6" r="2.8" fill="#fff" stroke="#cf222e" stroke-width="1.6"/>
<circle cx="1252.2" cy="155.0" r="2.8" fill="#fff" stroke="#cf222e" stroke-width="1.6"/>
<circle cx="1305.0" cy="155.8" r="2.8" fill="#fff" stroke="#cf222e" stroke-width="1.6"/>
<text x="1049.5" y="436.0" font-size="11" text-anchor="middle" font-weight="normal" fill="#24292f">K (log₂ scale)</text>
<text x="743.0" y="267.5" font-size="11" text-anchor="middle" font-weight="normal" fill="#24292f" transform="rotate(-90 743.0 267.5)">speedup (×)</text>
<rect x="78.0" y="500.0" width="593.0" height="335.0" rx="6" fill="#f6f8fa" stroke="#d0d7de"/>
<text x="374.5" y="520.0" font-size="14" text-anchor="middle" font-weight="600" fill="#24292f">4 KiB</text>
<line x1="143.0" y1="795.0" x2="654.0" y2="795.0" stroke="#d8dee4" stroke-width="1"/>
<text x="136.0" y="799.0" font-size="10" text-anchor="end" font-weight="normal" fill="#57606a">1</text>
<line x1="143.0" y1="755.1" x2="654.0" y2="755.1" stroke="#d8dee4" stroke-width="1"/>
<text x="136.0" y="759.1" font-size="10" text-anchor="end" font-weight="normal" fill="#57606a">2</text>
<line x1="143.0" y1="702.4" x2="654.0" y2="702.4" stroke="#d8dee4" stroke-width="1"/>
<text x="136.0" y="706.4" font-size="10" text-anchor="end" font-weight="normal" fill="#57606a">5</text>
<line x1="143.0" y1="662.5" x2="654.0" y2="662.5" stroke="#d8dee4" stroke-width="1"/>
<text x="136.0" y="666.5" font-size="10" text-anchor="end" font-weight="normal" fill="#57606a">10.0</text>
<line x1="143.0" y1="622.6" x2="654.0" y2="622.6" stroke="#d8dee4" stroke-width="1"/>
<text x="136.0" y="626.6" font-size="10" text-anchor="end" font-weight="normal" fill="#57606a">20.0</text>
<line x1="143.0" y1="569.9" x2="654.0" y2="569.9" stroke="#d8dee4" stroke-width="1"/>
<text x="136.0" y="573.9" font-size="10" text-anchor="end" font-weight="normal" fill="#57606a">50.0</text>
<line x1="143.0" y1="530.0" x2="654.0" y2="530.0" stroke="#d8dee4" stroke-width="1"/>
<text x="136.0" y="534.0" font-size="10" text-anchor="end" font-weight="normal" fill="#57606a">100</text>
<line x1="143.0" y1="530.0" x2="143.0" y2="795.0" stroke="#eaeef2" stroke-width="1"/>
<text x="143.0" y="812.0" font-size="10" text-anchor="middle" font-weight="normal" fill="#57606a">1</text>
<line x1="208.5" y1="530.0" x2="208.5" y2="795.0" stroke="#eaeef2" stroke-width="1"/>
<text x="208.5" y="812.0" font-size="10" text-anchor="middle" font-weight="normal" fill="#57606a">2</text>
<line x1="273.9" y1="530.0" x2="273.9" y2="795.0" stroke="#eaeef2" stroke-width="1"/>
<text x="273.9" y="812.0" font-size="10" text-anchor="middle" font-weight="normal" fill="#57606a">4</text>
<line x1="339.4" y1="530.0" x2="339.4" y2="795.0" stroke="#eaeef2" stroke-width="1"/>
<text x="339.4" y="812.0" font-size="10" text-anchor="middle" font-weight="normal" fill="#57606a">8</text>
<line x1="404.8" y1="530.0" x2="404.8" y2="795.0" stroke="#eaeef2" stroke-width="1"/>
<text x="404.8" y="812.0" font-size="10" text-anchor="middle" font-weight="normal" fill="#57606a">16</text>
<line x1="470.3" y1="530.0" x2="470.3" y2="795.0" stroke="#eaeef2" stroke-width="1"/>
<text x="470.3" y="812.0" font-size="10" text-anchor="middle" font-weight="normal" fill="#57606a">32</text>
<line x1="535.7" y1="530.0" x2="535.7" y2="795.0" stroke="#eaeef2" stroke-width="1"/>
<text x="535.7" y="812.0" font-size="10" text-anchor="middle" font-weight="normal" fill="#57606a">64</text>
<line x1="601.2" y1="530.0" x2="601.2" y2="795.0" stroke="#eaeef2" stroke-width="1"/>
<text x="601.2" y="812.0" font-size="10" text-anchor="middle" font-weight="normal" fill="#57606a">128</text>
<line x1="654.0" y1="530.0" x2="654.0" y2="795.0" stroke="#eaeef2" stroke-width="1"/>
<text x="654.0" y="812.0" font-size="10" text-anchor="middle" font-weight="normal" fill="#57606a">224</text>
<line x1="143.0" y1="795.0" x2="654.0" y2="795.0" stroke="#6e7781" stroke-width="1.5" stroke-dasharray="5 4"/>
<polyline points="208.5,530.5 246.7,539.9 273.9,542.9 295.0,544.2 326.7,548.9 339.4,551.0 350.5,554.2 369.4,553.8 385.2,555.2 398.7,553.6 404.8,557.6 410.5,548.8 421.0,552.3 430.5,552.8 439.1,555.1 446.9,558.2 454.2,553.8 461.0,556.2 467.3,555.7 470.3,565.4 473.2,556.1 478.7,559.3 484.0,556.1 488.9,578.9 493.7,559.9 498.2,561.4 502.4,558.1 506.6,561.7 510.5,562.2 514.3,561.3 517.9,559.5 521.4,559.1 524.8,561.9 528.0,563.2 531.2,560.9 534.2,560.0 535.7,563.0 537.2,559.2 540.0,560.6 542.8,561.5 545.5,559.9 548.1,560.4 550.7,559.8 553.2,560.2 555.6,562.6 558.0,559.3 560.3,560.9 562.5,563.4 564.7,562.8 566.8,560.9 568.9,562.2 571.0,560.9 573.0,560.9 575.0,562.7 576.9,561.6 578.8,561.1 580.6,562.8 582.5,563.2 584.2,563.5 586.0,562.8 587.7,563.5 589.4,586.0 591.0,585.3 592.7,587.1 594.3,582.1 595.8,585.6 597.4,586.9 598.9,586.4 600.4,585.1 601.2,585.0 601.9,587.5 603.3,582.9 604.8,585.5 606.2,586.4 607.6,585.5 608.9,588.4 610.3,587.8 611.6,585.3 612.9,582.4 614.2,585.8 615.5,587.8 616.8,586.9 618.0,585.1 619.2,587.9 620.4,588.6 621.6,588.0 622.8,586.5 624.0,588.3 625.1,586.7 626.3,587.8 627.4,588.8 628.5,587.0 629.6,588.0 630.7,589.6 631.8,588.6 632.8,587.9 633.9,588.9 634.9,589.8 635.9,589.6 637.0,591.3 638.0,588.5 639.0,586.0 639.9,587.5 640.9,589.5 641.9,585.0 642.8,586.8 643.8,588.5 644.7,590.2 645.6,589.6 646.5,589.2 647.5,589.4 648.4,589.5 649.2,592.0 650.1,589.7 651.0,591.1 651.9,590.1 652.7,590.0 653.6,590.4 654.0,585.6" fill="none" stroke="#cf222e" stroke-width="2.2" stroke-linejoin="round" stroke-linecap="round"/>
<circle cx="208.5" cy="530.5" r="2.8" fill="#fff" stroke="#cf222e" stroke-width="1.6"/>
<circle cx="273.9" cy="542.9" r="2.8" fill="#fff" stroke="#cf222e" stroke-width="1.6"/>
<circle cx="339.4" cy="551.0" r="2.8" fill="#fff" stroke="#cf222e" stroke-width="1.6"/>
<circle cx="404.8" cy="557.6" r="2.8" fill="#fff" stroke="#cf222e" stroke-width="1.6"/>
<circle cx="470.3" cy="565.4" r="2.8" fill="#fff" stroke="#cf222e" stroke-width="1.6"/>
<circle cx="535.7" cy="563.0" r="2.8" fill="#fff" stroke="#cf222e" stroke-width="1.6"/>
<circle cx="601.2" cy="585.0" r="2.8" fill="#fff" stroke="#cf222e" stroke-width="1.6"/>
<circle cx="654.0" cy="585.6" r="2.8" fill="#fff" stroke="#cf222e" stroke-width="1.6"/>
<text x="398.5" y="831.0" font-size="11" text-anchor="middle" font-weight="normal" fill="#24292f">K (log₂ scale)</text>
<text x="92.0" y="662.5" font-size="11" text-anchor="middle" font-weight="normal" fill="#24292f" transform="rotate(-90 92.0 662.5)">speedup (×)</text>
<rect x="729.0" y="500.0" width="593.0" height="335.0" rx="6" fill="#f6f8fa" stroke="#d0d7de"/>
<text x="1025.5" y="520.0" font-size="14" text-anchor="middle" font-weight="600" fill="#24292f">1 MiB</text>
<line x1="794.0" y1="795.0" x2="1305.0" y2="795.0" stroke="#d8dee4" stroke-width="1"/>
<text x="787.0" y="799.0" font-size="10" text-anchor="end" font-weight="normal" fill="#57606a">1</text>
<line x1="794.0" y1="758.7" x2="1305.0" y2="758.7" stroke="#d8dee4" stroke-width="1"/>
<text x="787.0" y="762.7" font-size="10" text-anchor="end" font-weight="normal" fill="#57606a">2</text>
<line x1="794.0" y1="710.8" x2="1305.0" y2="710.8" stroke="#d8dee4" stroke-width="1"/>
<text x="787.0" y="714.8" font-size="10" text-anchor="end" font-weight="normal" fill="#57606a">5</text>
<line x1="794.0" y1="674.5" x2="1305.0" y2="674.5" stroke="#d8dee4" stroke-width="1"/>
<text x="787.0" y="678.5" font-size="10" text-anchor="end" font-weight="normal" fill="#57606a">10.0</text>
<line x1="794.0" y1="638.3" x2="1305.0" y2="638.3" stroke="#d8dee4" stroke-width="1"/>
<text x="787.0" y="642.3" font-size="10" text-anchor="end" font-weight="normal" fill="#57606a">20.0</text>
<line x1="794.0" y1="590.4" x2="1305.0" y2="590.4" stroke="#d8dee4" stroke-width="1"/>
<text x="787.0" y="594.4" font-size="10" text-anchor="end" font-weight="normal" fill="#57606a">50.0</text>
<line x1="794.0" y1="554.1" x2="1305.0" y2="554.1" stroke="#d8dee4" stroke-width="1"/>
<text x="787.0" y="558.1" font-size="10" text-anchor="end" font-weight="normal" fill="#57606a">100</text>
<line x1="794.0" y1="530.0" x2="1305.0" y2="530.0" stroke="#d8dee4" stroke-width="1"/>
<text x="787.0" y="534.0" font-size="10" text-anchor="end" font-weight="normal" fill="#57606a">158</text>
<line x1="794.0" y1="530.0" x2="794.0" y2="795.0" stroke="#eaeef2" stroke-width="1"/>
<text x="794.0" y="812.0" font-size="10" text-anchor="middle" font-weight="normal" fill="#57606a">1</text>
<line x1="859.5" y1="530.0" x2="859.5" y2="795.0" stroke="#eaeef2" stroke-width="1"/>
<text x="859.5" y="812.0" font-size="10" text-anchor="middle" font-weight="normal" fill="#57606a">2</text>
<line x1="924.9" y1="530.0" x2="924.9" y2="795.0" stroke="#eaeef2" stroke-width="1"/>
<text x="924.9" y="812.0" font-size="10" text-anchor="middle" font-weight="normal" fill="#57606a">4</text>
<line x1="990.4" y1="530.0" x2="990.4" y2="795.0" stroke="#eaeef2" stroke-width="1"/>
<text x="990.4" y="812.0" font-size="10" text-anchor="middle" font-weight="normal" fill="#57606a">8</text>
<line x1="1055.8" y1="530.0" x2="1055.8" y2="795.0" stroke="#eaeef2" stroke-width="1"/>
<text x="1055.8" y="812.0" font-size="10" text-anchor="middle" font-weight="normal" fill="#57606a">16</text>
<line x1="1121.3" y1="530.0" x2="1121.3" y2="795.0" stroke="#eaeef2" stroke-width="1"/>
<text x="1121.3" y="812.0" font-size="10" text-anchor="middle" font-weight="normal" fill="#57606a">32</text>
<line x1="1186.7" y1="530.0" x2="1186.7" y2="795.0" stroke="#eaeef2" stroke-width="1"/>
<text x="1186.7" y="812.0" font-size="10" text-anchor="middle" font-weight="normal" fill="#57606a">64</text>
<line x1="1252.2" y1="530.0" x2="1252.2" y2="795.0" stroke="#eaeef2" stroke-width="1"/>
<text x="1252.2" y="812.0" font-size="10" text-anchor="middle" font-weight="normal" fill="#57606a">128</text>
<line x1="1305.0" y1="530.0" x2="1305.0" y2="795.0" stroke="#eaeef2" stroke-width="1"/>
<text x="1305.0" y="812.0" font-size="10" text-anchor="middle" font-weight="normal" fill="#57606a">224</text>
<line x1="794.0" y1="795.0" x2="1305.0" y2="795.0" stroke="#6e7781" stroke-width="1.5" stroke-dasharray="5 4"/>
<polyline points="859.5,573.5 897.7,580.7 924.9,586.7 946.0,589.7 977.7,593.4 990.4,577.0 1001.5,575.1 1020.4,571.7 1036.2,571.8 1049.7,553.3 1055.8,557.5 1061.5,556.0 1072.0,561.6 1081.5,563.0 1090.1,569.8 1097.9,578.5 1105.2,573.9 1112.0,580.3 1118.3,585.0 1121.3,594.5 1124.2,588.3 1129.7,597.8 1135.0,591.7 1139.9,592.7 1144.7,597.7 1149.2,602.4 1153.4,601.3 1157.6,602.1 1161.5,603.9 1165.3,602.0 1168.9,598.9 1172.4,599.6 1175.8,603.8 1179.0,604.0 1182.2,600.4 1185.2,598.7 1186.7,605.0 1188.2,597.8 1191.0,600.5 1193.8,601.5 1196.5,600.5 1199.1,597.8 1201.7,599.6 1204.2,599.9 1206.6,604.7 1209.0,598.9 1211.3,603.8 1213.5,603.3 1215.7,601.2 1217.8,600.2 1219.9,602.5 1222.0,599.5 1224.0,599.5 1226.0,604.6 1227.9,601.3 1229.8,601.3 1231.6,604.7 1233.5,604.0 1235.2,605.0 1237.0,601.5 1238.7,603.8 1240.4,599.8 1242.0,600.8 1243.7,604.0 1245.3,599.4 1246.8,603.0 1248.4,603.0 1249.9,604.6 1251.4,599.8 1252.2,602.8 1252.9,603.9 1254.3,604.6 1255.8,602.8 1257.2,602.5 1258.6,603.2 1259.9,605.3 1261.3,603.8 1262.6,601.6 1263.9,603.5 1265.2,603.1 1266.5,604.6 1267.8,605.7 1269.0,604.6 1270.2,606.2 1271.4,604.3 1272.6,604.7 1273.8,605.4 1275.0,604.6 1276.1,603.1 1277.3,605.9 1278.4,606.8 1279.5,604.0 1280.6,605.6 1281.7,605.8 1282.8,605.4 1283.8,605.3 1284.9,605.5 1285.9,606.1 1286.9,604.6 1288.0,606.9 1289.0,605.0 1290.0,605.8 1290.9,604.2 1291.9,606.7 1292.9,604.0 1293.8,603.8 1294.8,604.0 1295.7,606.4 1296.6,606.6 1297.5,606.3 1298.5,604.3 1299.4,605.9 1300.2,604.6 1301.1,606.7 1302.0,607.7 1302.9,606.7 1303.7,606.7 1304.6,607.1 1305.0,591.6" fill="none" stroke="#cf222e" stroke-width="2.2" stroke-linejoin="round" stroke-linecap="round"/>
<circle cx="859.5" cy="573.5" r="2.8" fill="#fff" stroke="#cf222e" stroke-width="1.6"/>
<circle cx="924.9" cy="586.7" r="2.8" fill="#fff" stroke="#cf222e" stroke-width="1.6"/>
<circle cx="990.4" cy="577.0" r="2.8" fill="#fff" stroke="#cf222e" stroke-width="1.6"/>
<circle cx="1055.8" cy="557.5" r="2.8" fill="#fff" stroke="#cf222e" stroke-width="1.6"/>
<circle cx="1121.3" cy="594.5" r="2.8" fill="#fff" stroke="#cf222e" stroke-width="1.6"/>
<circle cx="1186.7" cy="605.0" r="2.8" fill="#fff" stroke="#cf222e" stroke-width="1.6"/>
<circle cx="1252.2" cy="602.8" r="2.8" fill="#fff" stroke="#cf222e" stroke-width="1.6"/>
<circle cx="1305.0" cy="591.6" r="2.8" fill="#fff" stroke="#cf222e" stroke-width="1.6"/>
<text x="1049.5" y="831.0" font-size="11" text-anchor="middle" font-weight="normal" fill="#24292f">K (log₂ scale)</text>
<text x="743.0" y="662.5" font-size="11" text-anchor="middle" font-weight="normal" fill="#24292f" transform="rotate(-90 743.0 662.5)">speedup (×)</text>
<text x="700.0" y="884.0" font-size="11" text-anchor="middle" font-weight="normal" fill="#57606a">Lines include every odd K; hollow markers identify powers of two and K=224. Missing codec cells are not connected.</text>
</svg>
