<svg xmlns="http://www.w3.org/2000/svg" width="1400" height="900" viewBox="0 0 1400 900">
<rect width="100%" height="100%" fill="#ffffff"/>
<style>text { font-family: -apple-system,BlinkMacSystemFont,"Segoe UI",sans-serif; }</style>
<text x="700.0" y="35.0" font-size="23" text-anchor="middle" font-weight="600" fill="#24292f">Decode throughput: maximum random source erasures</text>
<text x="700.0" y="61.0" font-size="13" text-anchor="middle" font-weight="normal" fill="#57606a">R=32; every odd K plus powers of two through K=224; pinned single core; setup included</text>
<line x1="482.5" y1="82" x2="510.5" y2="82" stroke="#cf222e" stroke-width="3"/>
<text x="517.5" y="86.0" font-size="12" text-anchor="start" font-weight="normal" fill="#24292f">Leopard2</text>
<line x1="627.5" y1="82" x2="655.5" y2="82" stroke="#0969da" stroke-width="3"/>
<text x="662.5" y="86.0" font-size="12" text-anchor="start" font-weight="normal" fill="#24292f">Leopard main</text>
<line x1="772.5" y1="82" x2="800.5" y2="82" stroke="#1a7f37" stroke-width="3"/>
<text x="807.5" y="86.0" font-size="12" text-anchor="start" font-weight="normal" fill="#24292f">Wirehair (shipping)</text>
<rect x="78.0" y="105.0" width="593.0" height="335.0" rx="6" fill="#f6f8fa" stroke="#d0d7de"/>
<text x="374.5" y="125.0" font-size="14" text-anchor="middle" font-weight="600" fill="#24292f">64 B</text>
<line x1="143.0" y1="400.0" x2="654.0" y2="400.0" stroke="#d8dee4" stroke-width="1"/>
<text x="136.0" y="404.0" font-size="10" text-anchor="end" font-weight="normal" fill="#57606a">0.10</text>
<line x1="143.0" y1="350.1" x2="654.0" y2="350.1" stroke="#d8dee4" stroke-width="1"/>
<text x="136.0" y="354.1" font-size="10" text-anchor="end" font-weight="normal" fill="#57606a">0.20</text>
<line x1="143.0" y1="284.2" x2="654.0" y2="284.2" stroke="#d8dee4" stroke-width="1"/>
<text x="136.0" y="288.2" font-size="10" text-anchor="end" font-weight="normal" fill="#57606a">0.50</text>
<line x1="143.0" y1="234.4" x2="654.0" y2="234.4" stroke="#d8dee4" stroke-width="1"/>
<text x="136.0" y="238.4" font-size="10" text-anchor="end" font-weight="normal" fill="#57606a">1</text>
<line x1="143.0" y1="184.5" x2="654.0" y2="184.5" stroke="#d8dee4" stroke-width="1"/>
<text x="136.0" y="188.5" font-size="10" text-anchor="end" font-weight="normal" fill="#57606a">2</text>
<line x1="143.0" y1="135.0" x2="654.0" y2="135.0" stroke="#d8dee4" stroke-width="1"/>
<text x="136.0" y="139.0" font-size="10" text-anchor="end" font-weight="normal" fill="#57606a">4</text>
<line x1="143.0" y1="135.0" x2="143.0" y2="400.0" stroke="#eaeef2" stroke-width="1"/>
<text x="143.0" y="417.0" font-size="10" text-anchor="middle" font-weight="normal" fill="#57606a">1</text>
<line x1="208.5" y1="135.0" x2="208.5" y2="400.0" stroke="#eaeef2" stroke-width="1"/>
<text x="208.5" y="417.0" font-size="10" text-anchor="middle" font-weight="normal" fill="#57606a">2</text>
<line x1="273.9" y1="135.0" x2="273.9" y2="400.0" stroke="#eaeef2" stroke-width="1"/>
<text x="273.9" y="417.0" font-size="10" text-anchor="middle" font-weight="normal" fill="#57606a">4</text>
<line x1="339.4" y1="135.0" x2="339.4" y2="400.0" stroke="#eaeef2" stroke-width="1"/>
<text x="339.4" y="417.0" font-size="10" text-anchor="middle" font-weight="normal" fill="#57606a">8</text>
<line x1="404.8" y1="135.0" x2="404.8" y2="400.0" stroke="#eaeef2" stroke-width="1"/>
<text x="404.8" y="417.0" font-size="10" text-anchor="middle" font-weight="normal" fill="#57606a">16</text>
<line x1="470.3" y1="135.0" x2="470.3" y2="400.0" stroke="#eaeef2" stroke-width="1"/>
<text x="470.3" y="417.0" font-size="10" text-anchor="middle" font-weight="normal" fill="#57606a">32</text>
<line x1="535.7" y1="135.0" x2="535.7" y2="400.0" stroke="#eaeef2" stroke-width="1"/>
<text x="535.7" y="417.0" font-size="10" text-anchor="middle" font-weight="normal" fill="#57606a">64</text>
<line x1="601.2" y1="135.0" x2="601.2" y2="400.0" stroke="#eaeef2" stroke-width="1"/>
<text x="601.2" y="417.0" font-size="10" text-anchor="middle" font-weight="normal" fill="#57606a">128</text>
<line x1="654.0" y1="135.0" x2="654.0" y2="400.0" stroke="#eaeef2" stroke-width="1"/>
<text x="654.0" y="417.0" font-size="10" text-anchor="middle" font-weight="normal" fill="#57606a">224</text>
<polyline points="143.0,279.4 208.5,289.5 246.7,282.0 273.9,288.4 295.0,276.7 326.7,254.9 339.4,246.9 350.5,247.4 369.4,236.1 385.2,226.6 398.7,219.9 404.8,215.5 410.5,226.8 421.0,220.5 430.5,214.6 439.1,209.9 446.9,208.3 454.2,203.7 461.0,201.2 467.3,197.0 470.3,152.7 473.2,211.9 478.7,208.4 484.0,209.8 488.9,201.0 493.7,203.9 498.2,200.8 502.4,197.3 506.6,194.5 510.5,192.2 514.3,189.9 517.9,187.5 521.4,185.4 524.8,183.2 528.0,180.9 531.2,179.8 534.2,179.2 535.7,177.8 537.2,180.0 540.0,179.9 542.8,174.2 545.5,175.9 548.1,175.7 550.7,172.4 553.2,173.2 555.6,169.4 558.0,169.3 560.3,167.5 562.5,167.0 564.7,165.5 566.8,164.2 568.9,164.3 571.0,162.2 573.0,161.8 575.0,165.2 576.9,165.7 578.8,166.2 580.6,164.8 582.5,164.1 584.2,162.9 586.0,163.3 587.7,160.8 589.4,160.5 591.0,158.6 592.7,159.3 594.3,157.4 595.8,157.6 597.4,155.0 598.9,156.0 600.4,156.6 601.2,153.5 601.9,155.7 603.3,155.9 604.8,154.9 606.2,154.4 607.6,154.8 608.9,154.7 610.3,155.0 611.6,152.8 612.9,151.3 614.2,150.8 615.5,151.4 616.8,150.1 618.0,149.0 619.2,148.2 620.4,146.9 621.6,148.0 622.8,148.2 624.0,147.5 625.1,147.5 626.3,148.6 627.4,148.8 628.5,147.0 629.6,145.0 630.7,145.8 631.8,147.1 632.8,146.5 633.9,146.3 634.9,146.0 635.9,145.6 637.0,153.7 638.0,141.6 639.0,143.7 639.9,145.6 640.9,145.7 641.9,144.8 642.8,144.6 643.8,143.5 644.7,143.5 645.6,144.2 646.5,143.5 647.5,143.1 648.4,141.9 649.2,141.1 650.1,140.4 651.0,140.4 651.9,138.6 652.7,139.8 653.6,138.8 654.0,138.9" fill="none" stroke="#cf222e" stroke-width="2.2" stroke-linejoin="round" stroke-linecap="round"/>
<circle cx="143.0" cy="279.4" r="2.8" fill="#fff" stroke="#cf222e" stroke-width="1.6"/>
<circle cx="208.5" cy="289.5" r="2.8" fill="#fff" stroke="#cf222e" stroke-width="1.6"/>
<circle cx="273.9" cy="288.4" r="2.8" fill="#fff" stroke="#cf222e" stroke-width="1.6"/>
<circle cx="339.4" cy="246.9" r="2.8" fill="#fff" stroke="#cf222e" stroke-width="1.6"/>
<circle cx="404.8" cy="215.5" r="2.8" fill="#fff" stroke="#cf222e" stroke-width="1.6"/>
<circle cx="470.3" cy="152.7" r="2.8" fill="#fff" stroke="#cf222e" stroke-width="1.6"/>
<circle cx="535.7" cy="177.8" r="2.8" fill="#fff" stroke="#cf222e" stroke-width="1.6"/>
<circle cx="601.2" cy="153.5" r="2.8" fill="#fff" stroke="#cf222e" stroke-width="1.6"/>
<circle cx="654.0" cy="138.9" r="2.8" fill="#fff" stroke="#cf222e" stroke-width="1.6"/>
<polyline points="470.3,201.9 473.2,230.9 478.7,226.5 484.0,223.3 488.9,219.7 493.7,217.5 498.2,223.5 502.4,211.0 506.6,208.3 510.5,205.9 514.3,202.9 517.9,200.1 521.4,198.4 524.8,196.2 528.0,192.9 531.2,191.7 534.2,189.5 535.7,188.0 537.2,187.9 540.0,187.6 542.8,186.2 545.5,183.2 548.1,182.0 550.7,179.9 553.2,179.0 555.6,176.8 558.0,177.3 560.3,175.2 562.5,173.1 564.7,172.4 566.8,171.2 568.9,169.4 571.0,168.2 573.0,166.3 575.0,198.1 576.9,194.9 578.8,195.5 580.6,193.6 582.5,193.2 584.2,190.9 586.0,189.9 587.7,188.9 589.4,188.7 591.0,197.0 592.7,185.8 594.3,185.2 595.8,185.2 597.4,183.3 598.9,181.9 600.4,181.3 601.2,180.3 601.9,180.4 603.3,180.2 604.8,178.3 606.2,177.7 607.6,176.6 608.9,176.0 610.3,174.5 611.6,174.0 612.9,173.8 614.2,173.1 615.5,172.8 616.8,171.2 618.0,169.8 619.2,170.2 620.4,169.0 621.6,168.5 622.8,170.1 624.0,168.6 625.1,168.9 626.3,168.7 627.4,168.1 628.5,176.6 629.6,167.6 630.7,165.3 631.8,165.8 632.8,165.3 633.9,165.0 634.9,163.6 635.9,162.9 637.0,161.7 638.0,160.9 639.0,160.7 639.9,161.3 640.9,160.2 641.9,159.4 642.8,159.9 643.8,158.1 644.7,157.8 645.6,157.2 646.5,156.7 647.5,156.8 648.4,156.1 649.2,154.3 650.1,154.3 651.0,155.4 651.9,153.5 652.7,153.1 653.6,151.7 654.0,152.5" fill="none" stroke="#0969da" stroke-width="2.2" stroke-linejoin="round" stroke-linecap="round"/>
<circle cx="470.3" cy="201.9" r="2.8" fill="#fff" stroke="#0969da" stroke-width="1.6"/>
<circle cx="535.7" cy="188.0" r="2.8" fill="#fff" stroke="#0969da" stroke-width="1.6"/>
<circle cx="601.2" cy="180.3" r="2.8" fill="#fff" stroke="#0969da" stroke-width="1.6"/>
<circle cx="654.0" cy="152.5" r="2.8" fill="#fff" stroke="#0969da" stroke-width="1.6"/>
<polyline points="208.5,399.4 246.7,380.2 273.9,366.5 295.0,357.7 326.7,347.8 339.4,342.9 350.5,342.1 369.4,337.9 385.2,335.7 398.7,337.0 404.8,330.7 410.5,331.3 421.0,324.7 430.5,327.6 439.1,322.6 446.9,316.0 454.2,324.2 461.0,322.5 467.3,323.5 470.3,313.8 473.2,322.6 478.7,316.5 484.0,315.5 488.9,315.8 493.7,309.9 498.2,309.4 502.4,310.3 506.6,303.1 510.5,307.3 514.3,309.2 517.9,309.0 521.4,306.0 524.8,299.8 528.0,299.9 531.2,304.4 534.2,304.9 535.7,297.2 537.2,304.0 540.0,304.4 542.8,299.5 545.5,304.3 548.1,303.6 550.7,301.2 553.2,299.3 555.6,299.6 558.0,301.4 560.3,297.0 562.5,299.2 564.7,297.5 566.8,300.6 568.9,299.6 571.0,299.2 573.0,300.6 575.0,294.6 576.9,301.4 578.8,298.6 580.6,292.4 582.5,293.8 584.2,294.0 586.0,298.9 587.7,290.5 589.4,314.3 591.0,311.4 592.7,308.0 594.3,300.1 595.8,307.7 597.4,309.4 598.9,308.6 600.4,312.4 601.2,309.8 601.9,307.0 603.3,312.9 604.8,312.2 606.2,309.4 607.6,309.3 608.9,306.6 610.3,306.5 611.6,308.6 612.9,309.8 614.2,310.7 615.5,307.1 616.8,307.4 618.0,304.6 619.2,311.0 620.4,305.6 621.6,306.5 622.8,305.2 624.0,307.1 625.1,308.9 626.3,306.1 627.4,305.7 628.5,305.6 629.6,300.3 630.7,300.2 631.8,301.1 632.8,303.1 633.9,303.5 634.9,303.0 635.9,303.3 637.0,306.4 638.0,302.7 639.0,301.5 639.9,307.4 640.9,302.2 641.9,305.8 642.8,304.6 643.8,305.2 644.7,301.0 645.6,300.9 646.5,301.8 647.5,304.7 648.4,300.4 649.2,306.2 650.1,304.1 651.0,302.8 651.9,301.1 652.7,303.3 653.6,303.7 654.0,305.1" fill="none" stroke="#1a7f37" stroke-width="2.2" stroke-linejoin="round" stroke-linecap="round"/>
<circle cx="208.5" cy="399.4" r="2.8" fill="#fff" stroke="#1a7f37" stroke-width="1.6"/>
<circle cx="273.9" cy="366.5" r="2.8" fill="#fff" stroke="#1a7f37" stroke-width="1.6"/>
<circle cx="339.4" cy="342.9" r="2.8" fill="#fff" stroke="#1a7f37" stroke-width="1.6"/>
<circle cx="404.8" cy="330.7" r="2.8" fill="#fff" stroke="#1a7f37" stroke-width="1.6"/>
<circle cx="470.3" cy="313.8" r="2.8" fill="#fff" stroke="#1a7f37" stroke-width="1.6"/>
<circle cx="535.7" cy="297.2" r="2.8" fill="#fff" stroke="#1a7f37" stroke-width="1.6"/>
<circle cx="601.2" cy="309.8" r="2.8" fill="#fff" stroke="#1a7f37" stroke-width="1.6"/>
<circle cx="654.0" cy="305.1" r="2.8" fill="#fff" stroke="#1a7f37" stroke-width="1.6"/>
<text x="398.5" y="436.0" font-size="11" text-anchor="middle" font-weight="normal" fill="#24292f">K (log₂ scale)</text>
<text x="92.0" y="267.5" font-size="11" text-anchor="middle" font-weight="normal" fill="#24292f" transform="rotate(-90 92.0 267.5)">message-equivalent GB/s</text>
<rect x="729.0" y="105.0" width="593.0" height="335.0" rx="6" fill="#f6f8fa" stroke="#d0d7de"/>
<text x="1025.5" y="125.0" font-size="14" text-anchor="middle" font-weight="600" fill="#24292f">1 KiB</text>
<line x1="794.0" y1="400.0" x2="1305.0" y2="400.0" stroke="#d8dee4" stroke-width="1"/>
<text x="787.0" y="404.0" font-size="10" text-anchor="end" font-weight="normal" fill="#57606a">0.40</text>
<line x1="794.0" y1="381.3" x2="1305.0" y2="381.3" stroke="#d8dee4" stroke-width="1"/>
<text x="787.0" y="385.3" font-size="10" text-anchor="end" font-weight="normal" fill="#57606a">0.50</text>
<line x1="794.0" y1="324.3" x2="1305.0" y2="324.3" stroke="#d8dee4" stroke-width="1"/>
<text x="787.0" y="328.3" font-size="10" text-anchor="end" font-weight="normal" fill="#57606a">1</text>
<line x1="794.0" y1="267.3" x2="1305.0" y2="267.3" stroke="#d8dee4" stroke-width="1"/>
<text x="787.0" y="271.3" font-size="10" text-anchor="end" font-weight="normal" fill="#57606a">2</text>
<line x1="794.0" y1="192.0" x2="1305.0" y2="192.0" stroke="#d8dee4" stroke-width="1"/>
<text x="787.0" y="196.0" font-size="10" text-anchor="end" font-weight="normal" fill="#57606a">5</text>
<line x1="794.0" y1="135.0" x2="1305.0" y2="135.0" stroke="#d8dee4" stroke-width="1"/>
<text x="787.0" y="139.0" font-size="10" text-anchor="end" font-weight="normal" fill="#57606a">10.0</text>
<line x1="794.0" y1="135.0" x2="794.0" y2="400.0" stroke="#eaeef2" stroke-width="1"/>
<text x="794.0" y="417.0" font-size="10" text-anchor="middle" font-weight="normal" fill="#57606a">1</text>
<line x1="859.5" y1="135.0" x2="859.5" y2="400.0" stroke="#eaeef2" stroke-width="1"/>
<text x="859.5" y="417.0" font-size="10" text-anchor="middle" font-weight="normal" fill="#57606a">2</text>
<line x1="924.9" y1="135.0" x2="924.9" y2="400.0" stroke="#eaeef2" stroke-width="1"/>
<text x="924.9" y="417.0" font-size="10" text-anchor="middle" font-weight="normal" fill="#57606a">4</text>
<line x1="990.4" y1="135.0" x2="990.4" y2="400.0" stroke="#eaeef2" stroke-width="1"/>
<text x="990.4" y="417.0" font-size="10" text-anchor="middle" font-weight="normal" fill="#57606a">8</text>
<line x1="1055.8" y1="135.0" x2="1055.8" y2="400.0" stroke="#eaeef2" stroke-width="1"/>
<text x="1055.8" y="417.0" font-size="10" text-anchor="middle" font-weight="normal" fill="#57606a">16</text>
<line x1="1121.3" y1="135.0" x2="1121.3" y2="400.0" stroke="#eaeef2" stroke-width="1"/>
<text x="1121.3" y="417.0" font-size="10" text-anchor="middle" font-weight="normal" fill="#57606a">32</text>
<line x1="1186.7" y1="135.0" x2="1186.7" y2="400.0" stroke="#eaeef2" stroke-width="1"/>
<text x="1186.7" y="417.0" font-size="10" text-anchor="middle" font-weight="normal" fill="#57606a">64</text>
<line x1="1252.2" y1="135.0" x2="1252.2" y2="400.0" stroke="#eaeef2" stroke-width="1"/>
<text x="1252.2" y="417.0" font-size="10" text-anchor="middle" font-weight="normal" fill="#57606a">128</text>
<line x1="1305.0" y1="135.0" x2="1305.0" y2="400.0" stroke="#eaeef2" stroke-width="1"/>
<text x="1305.0" y="417.0" font-size="10" text-anchor="middle" font-weight="normal" fill="#57606a">224</text>
<polyline points="794.0,147.2 859.5,170.8 897.7,169.9 924.9,180.5 946.0,182.1 977.7,161.4 990.4,152.4 1001.5,171.9 1020.4,159.0 1036.2,154.8 1049.7,146.2 1055.8,142.0 1061.5,173.2 1072.0,166.5 1081.5,161.9 1090.1,156.6 1097.9,156.7 1105.2,151.7 1112.0,149.1 1118.3,145.6 1121.3,141.9 1124.2,212.7 1129.7,209.0 1135.0,209.8 1139.9,202.3 1144.7,206.4 1149.2,203.0 1153.4,199.8 1157.6,197.2 1161.5,195.5 1165.3,193.7 1168.9,191.6 1172.4,189.0 1175.8,186.9 1179.0,183.6 1182.2,182.8 1185.2,180.4 1186.7,179.6 1188.2,183.4 1191.0,185.3 1193.8,178.1 1196.5,180.9 1199.1,180.2 1201.7,177.0 1204.2,176.3 1206.6,173.9 1209.0,174.3 1211.3,171.3 1213.5,171.1 1215.7,170.0 1217.8,168.4 1219.9,167.5 1222.0,166.4 1224.0,164.4 1226.0,167.2 1227.9,166.3 1229.8,168.4 1231.6,166.3 1233.5,165.0 1235.2,164.8 1237.0,164.1 1238.7,163.0 1240.4,160.6 1242.0,161.3 1243.7,160.3 1245.3,158.8 1246.8,159.0 1248.4,157.0 1249.9,156.8 1251.4,155.7 1252.2,155.3 1252.9,158.4 1254.3,159.9 1255.8,159.1 1257.2,158.0 1258.6,157.0 1259.9,156.5 1261.3,155.6 1262.6,153.6 1263.9,153.3 1265.2,151.5 1266.5,152.6 1267.8,151.4 1269.0,150.4 1270.2,150.9 1271.4,150.1 1272.6,149.8 1273.8,150.2 1275.0,149.7 1276.1,150.0 1277.3,151.2 1278.4,151.1 1279.5,149.8 1280.6,148.9 1281.7,147.2 1282.8,148.2 1283.8,148.7 1284.9,147.1 1285.9,146.9 1286.9,149.9 1288.0,148.5 1289.0,146.6 1290.0,147.3 1290.9,150.1 1291.9,149.4 1292.9,148.4 1293.8,148.4 1294.8,148.2 1295.7,147.3 1296.6,148.6 1297.5,148.7 1298.5,148.3 1299.4,146.3 1300.2,144.8 1301.1,145.6 1302.0,145.3 1302.9,141.0 1303.7,144.6 1304.6,154.8 1305.0,143.4" fill="none" stroke="#cf222e" stroke-width="2.2" stroke-linejoin="round" stroke-linecap="round"/>
<circle cx="794.0" cy="147.2" r="2.8" fill="#fff" stroke="#cf222e" stroke-width="1.6"/>
<circle cx="859.5" cy="170.8" r="2.8" fill="#fff" stroke="#cf222e" stroke-width="1.6"/>
<circle cx="924.9" cy="180.5" r="2.8" fill="#fff" stroke="#cf222e" stroke-width="1.6"/>
<circle cx="990.4" cy="152.4" r="2.8" fill="#fff" stroke="#cf222e" stroke-width="1.6"/>
<circle cx="1055.8" cy="142.0" r="2.8" fill="#fff" stroke="#cf222e" stroke-width="1.6"/>
<circle cx="1121.3" cy="141.9" r="2.8" fill="#fff" stroke="#cf222e" stroke-width="1.6"/>
<circle cx="1186.7" cy="179.6" r="2.8" fill="#fff" stroke="#cf222e" stroke-width="1.6"/>
<circle cx="1252.2" cy="155.3" r="2.8" fill="#fff" stroke="#cf222e" stroke-width="1.6"/>
<circle cx="1305.0" cy="143.4" r="2.8" fill="#fff" stroke="#cf222e" stroke-width="1.6"/>
<polyline points="1121.3,191.1 1124.2,242.6 1129.7,238.0 1135.0,233.7 1139.9,229.6 1144.7,227.0 1149.2,223.2 1153.4,220.2 1157.6,217.2 1161.5,215.6 1165.3,213.5 1168.9,210.4 1172.4,207.8 1175.8,205.2 1179.0,201.9 1182.2,201.2 1185.2,198.5 1186.7,197.4 1188.2,197.7 1191.0,198.8 1193.8,197.3 1196.5,194.7 1199.1,193.9 1201.7,190.7 1204.2,189.3 1206.6,187.9 1209.0,187.0 1211.3,185.9 1213.5,183.8 1215.7,182.7 1217.8,181.2 1219.9,179.2 1222.0,178.6 1224.0,176.5 1226.0,217.8 1227.9,213.0 1229.8,214.8 1231.6,213.6 1233.5,211.9 1235.2,210.6 1237.0,209.5 1238.7,208.1 1240.4,207.8 1242.0,206.0 1243.7,204.9 1245.3,204.4 1246.8,203.4 1248.4,201.5 1249.9,200.3 1251.4,199.2 1252.2,198.3 1252.9,199.6 1254.3,198.7 1255.8,198.3 1257.2,197.0 1258.6,195.6 1259.9,195.5 1261.3,193.3 1262.6,192.7 1263.9,191.5 1265.2,191.2 1266.5,191.0 1267.8,190.1 1269.0,187.7 1270.2,188.6 1271.4,186.4 1272.6,186.1 1273.8,187.8 1275.0,185.5 1276.1,188.1 1277.3,189.3 1278.4,187.5 1279.5,186.1 1280.6,186.2 1281.7,184.2 1282.8,185.4 1283.8,184.6 1284.9,184.2 1285.9,182.8 1286.9,183.8 1288.0,180.7 1289.0,179.8 1290.0,179.7 1290.9,180.2 1291.9,178.9 1292.9,178.7 1293.8,178.2 1294.8,177.3 1295.7,176.1 1296.6,176.7 1297.5,175.1 1298.5,176.3 1299.4,174.7 1300.2,173.2 1301.1,172.4 1302.0,173.7 1302.9,171.0 1303.7,171.3 1304.6,170.4 1305.0,170.6" fill="none" stroke="#0969da" stroke-width="2.2" stroke-linejoin="round" stroke-linecap="round"/>
<circle cx="1121.3" cy="191.1" r="2.8" fill="#fff" stroke="#0969da" stroke-width="1.6"/>
<circle cx="1186.7" cy="197.4" r="2.8" fill="#fff" stroke="#0969da" stroke-width="1.6"/>
<circle cx="1252.2" cy="198.3" r="2.8" fill="#fff" stroke="#0969da" stroke-width="1.6"/>
<circle cx="1305.0" cy="170.6" r="2.8" fill="#fff" stroke="#0969da" stroke-width="1.6"/>
<polyline points="859.5,345.9 897.7,330.5 924.9,318.3 946.0,376.0 977.7,360.6 990.4,358.1 1001.5,353.9 1020.4,350.8 1036.2,343.1 1049.7,345.7 1055.8,342.1 1061.5,341.3 1072.0,336.8 1081.5,340.7 1090.1,335.4 1097.9,333.4 1105.2,340.7 1112.0,342.0 1118.3,302.1 1121.3,332.2 1124.2,307.1 1129.7,335.3 1135.0,296.8 1139.9,297.6 1144.7,333.0 1149.2,331.6 1153.4,333.1 1157.6,328.3 1161.5,330.2 1165.3,331.4 1168.9,331.7 1172.4,329.7 1175.8,326.1 1179.0,325.1 1182.2,328.2 1185.2,327.9 1186.7,323.1 1188.2,328.6 1191.0,328.2 1193.8,325.7 1196.5,327.6 1199.1,326.9 1201.7,326.0 1204.2,325.0 1206.6,324.1 1209.0,325.0 1211.3,323.2 1213.5,322.7 1215.7,321.9 1217.8,324.3 1219.9,321.7 1222.0,322.3 1224.0,323.2 1226.0,318.8 1227.9,325.5 1229.8,324.3 1231.6,322.6 1233.5,321.4 1235.2,321.4 1237.0,323.0 1238.7,320.1 1240.4,322.8 1242.0,321.8 1243.7,319.3 1245.3,322.6 1246.8,319.5 1248.4,319.3 1249.9,319.3 1251.4,320.7 1252.2,319.6 1252.9,316.6 1254.3,319.8 1255.8,319.7 1257.2,317.5 1258.6,317.9 1259.9,315.5 1261.3,314.8 1262.6,317.6 1263.9,317.8 1265.2,318.0 1266.5,315.4 1267.8,315.9 1269.0,315.2 1270.2,316.6 1271.4,315.2 1272.6,315.6 1273.8,312.8 1275.0,314.7 1276.1,316.0 1277.3,312.6 1278.4,314.2 1279.5,312.8 1280.6,312.9 1281.7,311.2 1282.8,312.6 1283.8,313.3 1284.9,313.0 1285.9,312.2 1286.9,312.1 1288.0,316.1 1289.0,311.8 1290.0,312.7 1290.9,314.8 1291.9,311.7 1292.9,312.6 1293.8,314.1 1294.8,312.6 1295.7,310.7 1296.6,278.2 1297.5,311.3 1298.5,282.4 1299.4,310.9 1300.2,283.1 1301.1,311.5 1302.0,280.2 1302.9,312.2 1303.7,310.9 1304.6,280.6 1305.0,281.6" fill="none" stroke="#1a7f37" stroke-width="2.2" stroke-linejoin="round" stroke-linecap="round"/>
<circle cx="859.5" cy="345.9" r="2.8" fill="#fff" stroke="#1a7f37" stroke-width="1.6"/>
<circle cx="924.9" cy="318.3" r="2.8" fill="#fff" stroke="#1a7f37" stroke-width="1.6"/>
<circle cx="990.4" cy="358.1" r="2.8" fill="#fff" stroke="#1a7f37" stroke-width="1.6"/>
<circle cx="1055.8" cy="342.1" r="2.8" fill="#fff" stroke="#1a7f37" stroke-width="1.6"/>
<circle cx="1121.3" cy="332.2" r="2.8" fill="#fff" stroke="#1a7f37" stroke-width="1.6"/>
<circle cx="1186.7" cy="323.1" r="2.8" fill="#fff" stroke="#1a7f37" stroke-width="1.6"/>
<circle cx="1252.2" cy="319.6" r="2.8" fill="#fff" stroke="#1a7f37" stroke-width="1.6"/>
<circle cx="1305.0" cy="281.6" r="2.8" fill="#fff" stroke="#1a7f37" stroke-width="1.6"/>
<text x="1049.5" y="436.0" font-size="11" text-anchor="middle" font-weight="normal" fill="#24292f">K (log₂ scale)</text>
<text x="743.0" y="267.5" font-size="11" text-anchor="middle" font-weight="normal" fill="#24292f" transform="rotate(-90 743.0 267.5)">message-equivalent GB/s</text>
<rect x="78.0" y="500.0" width="593.0" height="335.0" rx="6" fill="#f6f8fa" stroke="#d0d7de"/>
<text x="374.5" y="520.0" font-size="14" text-anchor="middle" font-weight="600" fill="#24292f">4 KiB</text>
<line x1="143.0" y1="795.0" x2="654.0" y2="795.0" stroke="#d8dee4" stroke-width="1"/>
<text x="136.0" y="799.0" font-size="10" text-anchor="end" font-weight="normal" fill="#57606a">0.25</text>
<line x1="143.0" y1="759.0" x2="654.0" y2="759.0" stroke="#d8dee4" stroke-width="1"/>
<text x="136.0" y="763.0" font-size="10" text-anchor="end" font-weight="normal" fill="#57606a">0.50</text>
<line x1="143.0" y1="722.7" x2="654.0" y2="722.7" stroke="#d8dee4" stroke-width="1"/>
<text x="136.0" y="726.7" font-size="10" text-anchor="end" font-weight="normal" fill="#57606a">1</text>
<line x1="143.0" y1="686.5" x2="654.0" y2="686.5" stroke="#d8dee4" stroke-width="1"/>
<text x="136.0" y="690.5" font-size="10" text-anchor="end" font-weight="normal" fill="#57606a">2</text>
<line x1="143.0" y1="638.5" x2="654.0" y2="638.5" stroke="#d8dee4" stroke-width="1"/>
<text x="136.0" y="642.5" font-size="10" text-anchor="end" font-weight="normal" fill="#57606a">5</text>
<line x1="143.0" y1="602.3" x2="654.0" y2="602.3" stroke="#d8dee4" stroke-width="1"/>
<text x="136.0" y="606.3" font-size="10" text-anchor="end" font-weight="normal" fill="#57606a">10.0</text>
<line x1="143.0" y1="566.0" x2="654.0" y2="566.0" stroke="#d8dee4" stroke-width="1"/>
<text x="136.0" y="570.0" font-size="10" text-anchor="end" font-weight="normal" fill="#57606a">20.0</text>
<line x1="143.0" y1="530.0" x2="654.0" y2="530.0" stroke="#d8dee4" stroke-width="1"/>
<text x="136.0" y="534.0" font-size="10" text-anchor="end" font-weight="normal" fill="#57606a">39.8</text>
<line x1="143.0" y1="530.0" x2="143.0" y2="795.0" stroke="#eaeef2" stroke-width="1"/>
<text x="143.0" y="812.0" font-size="10" text-anchor="middle" font-weight="normal" fill="#57606a">1</text>
<line x1="208.5" y1="530.0" x2="208.5" y2="795.0" stroke="#eaeef2" stroke-width="1"/>
<text x="208.5" y="812.0" font-size="10" text-anchor="middle" font-weight="normal" fill="#57606a">2</text>
<line x1="273.9" y1="530.0" x2="273.9" y2="795.0" stroke="#eaeef2" stroke-width="1"/>
<text x="273.9" y="812.0" font-size="10" text-anchor="middle" font-weight="normal" fill="#57606a">4</text>
<line x1="339.4" y1="530.0" x2="339.4" y2="795.0" stroke="#eaeef2" stroke-width="1"/>
<text x="339.4" y="812.0" font-size="10" text-anchor="middle" font-weight="normal" fill="#57606a">8</text>
<line x1="404.8" y1="530.0" x2="404.8" y2="795.0" stroke="#eaeef2" stroke-width="1"/>
<text x="404.8" y="812.0" font-size="10" text-anchor="middle" font-weight="normal" fill="#57606a">16</text>
<line x1="470.3" y1="530.0" x2="470.3" y2="795.0" stroke="#eaeef2" stroke-width="1"/>
<text x="470.3" y="812.0" font-size="10" text-anchor="middle" font-weight="normal" fill="#57606a">32</text>
<line x1="535.7" y1="530.0" x2="535.7" y2="795.0" stroke="#eaeef2" stroke-width="1"/>
<text x="535.7" y="812.0" font-size="10" text-anchor="middle" font-weight="normal" fill="#57606a">64</text>
<line x1="601.2" y1="530.0" x2="601.2" y2="795.0" stroke="#eaeef2" stroke-width="1"/>
<text x="601.2" y="812.0" font-size="10" text-anchor="middle" font-weight="normal" fill="#57606a">128</text>
<line x1="654.0" y1="530.0" x2="654.0" y2="795.0" stroke="#eaeef2" stroke-width="1"/>
<text x="654.0" y="812.0" font-size="10" text-anchor="middle" font-weight="normal" fill="#57606a">224</text>
<polyline points="143.0,545.3 208.5,574.3 246.7,581.4 273.9,589.1 295.0,619.6 326.7,608.0 339.4,590.0 350.5,624.6 369.4,616.2 385.2,611.5 398.7,612.7 404.8,594.2 410.5,630.7 421.0,625.8 430.5,623.2 439.1,619.6 446.9,618.3 454.2,615.8 461.0,614.0 467.3,610.0 470.3,602.5 473.2,650.7 478.7,649.0 484.0,653.3 488.9,646.6 493.7,650.3 498.2,648.4 502.4,646.6 506.6,644.9 510.5,643.3 514.3,643.1 517.9,641.0 521.4,639.9 524.8,638.0 528.0,636.7 531.2,635.9 534.2,633.7 535.7,633.9 537.2,637.6 540.0,639.1 542.8,633.4 545.5,636.3 548.1,635.2 550.7,633.9 553.2,633.0 555.6,631.7 558.0,631.8 560.3,630.8 562.5,629.7 564.7,629.0 566.8,628.6 568.9,627.2 571.0,626.3 573.0,625.7 575.0,627.1 576.9,627.3 578.8,628.6 580.6,627.7 582.5,627.1 584.2,626.7 586.0,625.8 587.7,625.4 589.4,624.7 591.0,624.1 592.7,623.0 594.3,623.2 595.8,622.5 597.4,621.5 598.9,621.1 600.4,621.0 601.2,620.4 601.9,628.3 603.3,624.5 604.8,623.7 606.2,623.0 607.6,622.7 608.9,621.7 610.3,621.1 611.6,624.9 612.9,619.6 614.2,619.3 615.5,619.9 616.8,619.0 618.0,617.1 619.2,618.2 620.4,617.0 621.6,617.7 622.8,619.0 624.0,617.4 625.1,618.5 626.3,620.1 627.4,618.9 628.5,618.1 629.6,617.6 630.7,616.7 631.8,617.0 632.8,617.6 633.9,617.0 634.9,615.9 635.9,616.5 637.0,614.8 638.0,614.2 639.0,614.7 639.9,615.9 640.9,615.9 641.9,615.4 642.8,616.0 643.8,615.5 644.7,614.7 645.6,615.6 646.5,614.8 647.5,615.0 648.4,614.7 649.2,612.7 650.1,612.6 651.0,613.8 651.9,611.3 652.7,612.2 653.6,612.5 654.0,612.0" fill="none" stroke="#cf222e" stroke-width="2.2" stroke-linejoin="round" stroke-linecap="round"/>
<circle cx="143.0" cy="545.3" r="2.8" fill="#fff" stroke="#cf222e" stroke-width="1.6"/>
<circle cx="208.5" cy="574.3" r="2.8" fill="#fff" stroke="#cf222e" stroke-width="1.6"/>
<circle cx="273.9" cy="589.1" r="2.8" fill="#fff" stroke="#cf222e" stroke-width="1.6"/>
<circle cx="339.4" cy="590.0" r="2.8" fill="#fff" stroke="#cf222e" stroke-width="1.6"/>
<circle cx="404.8" cy="594.2" r="2.8" fill="#fff" stroke="#cf222e" stroke-width="1.6"/>
<circle cx="470.3" cy="602.5" r="2.8" fill="#fff" stroke="#cf222e" stroke-width="1.6"/>
<circle cx="535.7" cy="633.9" r="2.8" fill="#fff" stroke="#cf222e" stroke-width="1.6"/>
<circle cx="601.2" cy="620.4" r="2.8" fill="#fff" stroke="#cf222e" stroke-width="1.6"/>
<circle cx="654.0" cy="612.0" r="2.8" fill="#fff" stroke="#cf222e" stroke-width="1.6"/>
<polyline points="470.3,636.9 473.2,671.0 478.7,667.5 484.0,664.9 488.9,663.2 493.7,660.2 498.2,658.7 502.4,656.8 506.6,654.8 510.5,653.5 514.3,651.8 517.9,650.1 521.4,648.7 524.8,646.6 528.0,644.8 531.2,643.8 534.2,642.0 535.7,641.8 537.2,642.0 540.0,642.7 542.8,641.4 545.5,639.9 548.1,639.2 550.7,637.1 553.2,636.4 555.6,635.3 558.0,635.1 560.3,634.7 562.5,633.3 564.7,631.6 566.8,631.3 568.9,630.3 571.0,629.5 573.0,628.4 575.0,657.5 576.9,654.7 578.8,655.6 580.6,655.0 582.5,654.2 584.2,653.5 586.0,652.5 587.7,651.3 589.4,651.4 591.0,650.0 592.7,649.5 594.3,648.9 595.8,648.2 597.4,647.7 598.9,647.1 600.4,645.7 601.2,645.1 601.9,645.9 603.3,645.7 604.8,644.7 606.2,643.1 607.6,643.1 608.9,642.4 610.3,641.5 611.6,646.6 612.9,640.1 614.2,639.9 615.5,640.4 616.8,639.0 618.0,637.5 619.2,638.3 620.4,637.3 621.6,637.6 622.8,638.6 624.0,637.2 625.1,638.3 626.3,638.4 627.4,637.7 628.5,637.2 629.6,636.5 630.7,635.8 631.8,635.9 632.8,635.9 633.9,635.3 634.9,634.8 635.9,635.1 637.0,633.8 638.0,632.7 639.0,632.8 639.9,632.4 640.9,632.5 641.9,632.2 642.8,632.2 643.8,631.2 644.7,630.4 645.6,630.9 646.5,629.5 647.5,630.1 648.4,629.6 649.2,628.7 650.1,628.3 651.0,629.0 651.9,627.4 652.7,626.9 653.6,627.0 654.0,627.3" fill="none" stroke="#0969da" stroke-width="2.2" stroke-linejoin="round" stroke-linecap="round"/>
<circle cx="470.3" cy="636.9" r="2.8" fill="#fff" stroke="#0969da" stroke-width="1.6"/>
<circle cx="535.7" cy="641.8" r="2.8" fill="#fff" stroke="#0969da" stroke-width="1.6"/>
<circle cx="601.2" cy="645.1" r="2.8" fill="#fff" stroke="#0969da" stroke-width="1.6"/>
<circle cx="654.0" cy="627.3" r="2.8" fill="#fff" stroke="#0969da" stroke-width="1.6"/>
<polyline points="208.5,788.2 246.7,771.2 273.9,759.1 295.0,750.5 326.7,742.1 339.4,738.6 350.5,735.5 369.4,731.6 385.2,730.2 398.7,728.7 404.8,726.7 410.5,727.8 421.0,723.2 430.5,724.4 439.1,721.2 446.9,718.9 454.2,723.5 461.0,723.7 467.3,722.5 470.3,716.2 473.2,723.1 478.7,717.5 484.0,720.2 488.9,697.9 493.7,716.5 498.2,715.1 502.4,716.2 506.6,713.4 510.5,714.6 514.3,716.0 517.9,716.9 521.4,715.9 524.8,713.1 528.0,712.7 531.2,714.6 534.2,715.4 535.7,712.3 537.2,715.7 540.0,715.7 542.8,714.0 545.5,715.5 548.1,715.1 550.7,714.7 553.2,714.1 555.6,719.0 558.0,714.2 560.3,713.0 562.5,713.2 564.7,712.8 566.8,714.0 568.9,712.5 571.0,713.2 573.0,713.8 575.0,711.7 576.9,713.6 578.8,713.1 580.6,711.1 582.5,710.9 584.2,711.2 586.0,712.3 587.7,710.6 589.4,691.5 591.0,691.3 592.7,690.2 594.3,692.2 595.8,690.2 597.4,692.9 598.9,690.5 600.4,692.0 601.2,691.2 601.9,689.7 603.3,690.9 604.8,691.0 606.2,690.5 607.6,691.3 608.9,689.6 610.3,689.3 611.6,697.7 612.9,690.2 614.2,690.5 615.5,689.6 616.8,689.2 618.0,688.9 619.2,690.4 620.4,696.1 621.6,689.5 622.8,688.6 624.0,688.2 625.1,690.1 626.3,688.7 627.4,688.6 628.5,688.8 629.6,688.1 630.7,687.9 631.8,688.2 632.8,688.5 633.9,688.2 634.9,688.4 635.9,688.3 637.0,690.2 638.0,688.3 639.0,688.4 639.9,690.3 640.9,688.3 641.9,688.8 642.8,689.3 643.8,688.8 644.7,688.0 645.6,687.6 646.5,687.8 647.5,689.6 648.4,687.6 649.2,689.0 650.1,688.4 651.0,688.0 651.9,688.6 652.7,688.3 653.6,689.1 654.0,689.0" fill="none" stroke="#1a7f37" stroke-width="2.2" stroke-linejoin="round" stroke-linecap="round"/>
<circle cx="208.5" cy="788.2" r="2.8" fill="#fff" stroke="#1a7f37" stroke-width="1.6"/>
<circle cx="273.9" cy="759.1" r="2.8" fill="#fff" stroke="#1a7f37" stroke-width="1.6"/>
<circle cx="339.4" cy="738.6" r="2.8" fill="#fff" stroke="#1a7f37" stroke-width="1.6"/>
<circle cx="404.8" cy="726.7" r="2.8" fill="#fff" stroke="#1a7f37" stroke-width="1.6"/>
<circle cx="470.3" cy="716.2" r="2.8" fill="#fff" stroke="#1a7f37" stroke-width="1.6"/>
<circle cx="535.7" cy="712.3" r="2.8" fill="#fff" stroke="#1a7f37" stroke-width="1.6"/>
<circle cx="601.2" cy="691.2" r="2.8" fill="#fff" stroke="#1a7f37" stroke-width="1.6"/>
<circle cx="654.0" cy="689.0" r="2.8" fill="#fff" stroke="#1a7f37" stroke-width="1.6"/>
<text x="398.5" y="831.0" font-size="11" text-anchor="middle" font-weight="normal" fill="#24292f">K (log₂ scale)</text>
<text x="92.0" y="662.5" font-size="11" text-anchor="middle" font-weight="normal" fill="#24292f" transform="rotate(-90 92.0 662.5)">message-equivalent GB/s</text>
<rect x="729.0" y="500.0" width="593.0" height="335.0" rx="6" fill="#f6f8fa" stroke="#d0d7de"/>
<text x="1025.5" y="520.0" font-size="14" text-anchor="middle" font-weight="600" fill="#24292f">1 MiB</text>
<line x1="794.0" y1="795.0" x2="1305.0" y2="795.0" stroke="#d8dee4" stroke-width="1"/>
<text x="787.0" y="799.0" font-size="10" text-anchor="end" font-weight="normal" fill="#57606a">0.40</text>
<line x1="794.0" y1="784.1" x2="1305.0" y2="784.1" stroke="#d8dee4" stroke-width="1"/>
<text x="787.0" y="788.1" font-size="10" text-anchor="end" font-weight="normal" fill="#57606a">0.50</text>
<line x1="794.0" y1="750.8" x2="1305.0" y2="750.8" stroke="#d8dee4" stroke-width="1"/>
<text x="787.0" y="754.8" font-size="10" text-anchor="end" font-weight="normal" fill="#57606a">1</text>
<line x1="794.0" y1="717.6" x2="1305.0" y2="717.6" stroke="#d8dee4" stroke-width="1"/>
<text x="787.0" y="721.6" font-size="10" text-anchor="end" font-weight="normal" fill="#57606a">2</text>
<line x1="794.0" y1="673.7" x2="1305.0" y2="673.7" stroke="#d8dee4" stroke-width="1"/>
<text x="787.0" y="677.7" font-size="10" text-anchor="end" font-weight="normal" fill="#57606a">5</text>
<line x1="794.0" y1="640.4" x2="1305.0" y2="640.4" stroke="#d8dee4" stroke-width="1"/>
<text x="787.0" y="644.4" font-size="10" text-anchor="end" font-weight="normal" fill="#57606a">10.0</text>
<line x1="794.0" y1="607.2" x2="1305.0" y2="607.2" stroke="#d8dee4" stroke-width="1"/>
<text x="787.0" y="611.2" font-size="10" text-anchor="end" font-weight="normal" fill="#57606a">20.0</text>
<line x1="794.0" y1="563.2" x2="1305.0" y2="563.2" stroke="#d8dee4" stroke-width="1"/>
<text x="787.0" y="567.2" font-size="10" text-anchor="end" font-weight="normal" fill="#57606a">50.0</text>
<line x1="794.0" y1="530.0" x2="1305.0" y2="530.0" stroke="#d8dee4" stroke-width="1"/>
<text x="787.0" y="534.0" font-size="10" text-anchor="end" font-weight="normal" fill="#57606a">100</text>
<line x1="794.0" y1="530.0" x2="794.0" y2="795.0" stroke="#eaeef2" stroke-width="1"/>
<text x="794.0" y="812.0" font-size="10" text-anchor="middle" font-weight="normal" fill="#57606a">1</text>
<line x1="859.5" y1="530.0" x2="859.5" y2="795.0" stroke="#eaeef2" stroke-width="1"/>
<text x="859.5" y="812.0" font-size="10" text-anchor="middle" font-weight="normal" fill="#57606a">2</text>
<line x1="924.9" y1="530.0" x2="924.9" y2="795.0" stroke="#eaeef2" stroke-width="1"/>
<text x="924.9" y="812.0" font-size="10" text-anchor="middle" font-weight="normal" fill="#57606a">4</text>
<line x1="990.4" y1="530.0" x2="990.4" y2="795.0" stroke="#eaeef2" stroke-width="1"/>
<text x="990.4" y="812.0" font-size="10" text-anchor="middle" font-weight="normal" fill="#57606a">8</text>
<line x1="1055.8" y1="530.0" x2="1055.8" y2="795.0" stroke="#eaeef2" stroke-width="1"/>
<text x="1055.8" y="812.0" font-size="10" text-anchor="middle" font-weight="normal" fill="#57606a">16</text>
<line x1="1121.3" y1="530.0" x2="1121.3" y2="795.0" stroke="#eaeef2" stroke-width="1"/>
<text x="1121.3" y="812.0" font-size="10" text-anchor="middle" font-weight="normal" fill="#57606a">32</text>
<line x1="1186.7" y1="530.0" x2="1186.7" y2="795.0" stroke="#eaeef2" stroke-width="1"/>
<text x="1186.7" y="812.0" font-size="10" text-anchor="middle" font-weight="normal" fill="#57606a">64</text>
<line x1="1252.2" y1="530.0" x2="1252.2" y2="795.0" stroke="#eaeef2" stroke-width="1"/>
<text x="1252.2" y="812.0" font-size="10" text-anchor="middle" font-weight="normal" fill="#57606a">128</text>
<line x1="1305.0" y1="530.0" x2="1305.0" y2="795.0" stroke="#eaeef2" stroke-width="1"/>
<text x="1305.0" y="812.0" font-size="10" text-anchor="middle" font-weight="normal" fill="#57606a">224</text>
<polyline points="794.0,544.1 859.5,582.2 897.7,596.5 924.9,611.7 946.0,641.0 977.7,636.2 990.4,628.5 1001.5,649.7 1020.4,645.0 1036.2,641.9 1049.7,641.0 1055.8,639.7 1061.5,686.4 1072.0,682.2 1081.5,680.3 1090.1,678.8 1097.9,678.4 1105.2,675.7 1112.0,674.9 1118.3,672.1 1121.3,654.1 1124.2,689.3 1129.7,688.5 1135.0,690.8 1139.9,686.1 1144.7,688.3 1149.2,687.0 1153.4,685.0 1157.6,683.4 1161.5,682.3 1165.3,681.8 1168.9,679.9 1172.4,679.0 1175.8,677.4 1179.0,676.2 1182.2,675.5 1185.2,674.1 1186.7,673.5 1188.2,677.0 1191.0,678.0 1193.8,673.2 1196.5,675.8 1199.1,674.8 1201.7,673.7 1204.2,672.9 1206.6,672.1 1209.0,671.7 1211.3,670.7 1213.5,670.0 1215.7,669.4 1217.8,669.0 1219.9,667.7 1222.0,667.4 1224.0,666.2 1226.0,667.4 1227.9,667.8 1229.8,669.0 1231.6,668.0 1233.5,667.6 1235.2,667.6 1237.0,666.6 1238.7,666.2 1240.4,665.7 1242.0,665.2 1243.7,663.9 1245.3,664.3 1246.8,663.5 1248.4,663.1 1249.9,662.4 1251.4,662.2 1252.2,661.6 1252.9,664.1 1254.3,665.1 1255.8,664.1 1257.2,663.8 1258.6,663.7 1259.9,662.8 1261.3,662.7 1262.6,662.1 1263.9,661.5 1265.2,660.9 1266.5,661.3 1267.8,660.6 1269.0,659.1 1270.2,660.0 1271.4,658.8 1272.6,658.9 1273.8,660.3 1275.0,659.2 1276.1,660.2 1277.3,660.9 1278.4,660.3 1279.5,659.5 1280.6,659.4 1281.7,658.7 1282.8,659.0 1283.8,659.0 1284.9,658.5 1285.9,657.8 1286.9,658.0 1288.0,660.2 1289.0,657.9 1290.0,656.5 1290.9,658.0 1291.9,657.8 1292.9,657.4 1293.8,657.8 1294.8,657.6 1295.7,657.1 1296.6,657.6 1297.5,657.1 1298.5,656.9 1299.4,656.7 1300.2,655.1 1301.1,655.4 1302.0,655.8 1302.9,653.9 1303.7,654.6 1304.6,658.0 1305.0,658.0" fill="none" stroke="#cf222e" stroke-width="2.2" stroke-linejoin="round" stroke-linecap="round"/>
<circle cx="794.0" cy="544.1" r="2.8" fill="#fff" stroke="#cf222e" stroke-width="1.6"/>
<circle cx="859.5" cy="582.2" r="2.8" fill="#fff" stroke="#cf222e" stroke-width="1.6"/>
<circle cx="924.9" cy="611.7" r="2.8" fill="#fff" stroke="#cf222e" stroke-width="1.6"/>
<circle cx="990.4" cy="628.5" r="2.8" fill="#fff" stroke="#cf222e" stroke-width="1.6"/>
<circle cx="1055.8" cy="639.7" r="2.8" fill="#fff" stroke="#cf222e" stroke-width="1.6"/>
<circle cx="1121.3" cy="654.1" r="2.8" fill="#fff" stroke="#cf222e" stroke-width="1.6"/>
<circle cx="1186.7" cy="673.5" r="2.8" fill="#fff" stroke="#cf222e" stroke-width="1.6"/>
<circle cx="1252.2" cy="661.6" r="2.8" fill="#fff" stroke="#cf222e" stroke-width="1.6"/>
<circle cx="1305.0" cy="658.0" r="2.8" fill="#fff" stroke="#cf222e" stroke-width="1.6"/>
<polyline points="1121.3,719.3 1124.2,760.1 1129.7,757.3 1135.0,754.5 1139.9,752.0 1144.7,750.2 1149.2,748.3 1153.4,746.3 1157.6,744.9 1161.5,743.3 1165.3,742.3 1168.9,739.7 1172.4,739.4 1175.8,736.6 1179.0,735.4 1182.2,734.8 1185.2,732.3 1186.7,731.9 1188.2,732.7 1191.0,731.4 1193.8,730.1 1196.5,729.2 1199.1,728.8 1201.7,726.6 1204.2,726.2 1206.6,724.7 1209.0,724.0 1211.3,723.3 1213.5,722.7 1215.7,720.8 1217.8,720.7 1219.9,720.5 1222.0,719.6 1224.0,719.0 1226.0,747.7 1227.9,745.5 1229.8,745.9 1231.6,745.4 1233.5,744.5 1235.2,743.3 1237.0,742.9 1238.7,741.8 1240.4,741.6 1242.0,740.4 1243.7,739.8 1245.3,739.7 1246.8,739.0 1248.4,738.2 1249.9,737.2 1251.4,736.3 1252.2,735.6 1252.9,736.0 1254.3,735.8 1255.8,734.8 1257.2,734.3 1258.6,733.6 1259.9,732.7 1261.3,732.4 1262.6,731.5 1263.9,731.5 1265.2,731.0 1266.5,730.8 1267.8,729.8 1269.0,729.0 1270.2,729.1 1271.4,728.4 1272.6,727.7 1273.8,728.4 1275.0,727.9 1276.1,728.0 1277.3,728.4 1278.4,727.6 1279.5,727.0 1280.6,726.9 1281.7,725.7 1282.8,726.1 1283.8,725.6 1284.9,725.2 1285.9,724.8 1286.9,724.3 1288.0,723.8 1289.0,722.9 1290.0,723.2 1290.9,722.9 1291.9,722.5 1292.9,722.2 1293.8,721.9 1294.8,721.3 1295.7,720.9 1296.6,720.9 1297.5,719.8 1298.5,720.2 1299.4,719.7 1300.2,719.0 1301.1,718.6 1302.0,718.5 1302.9,717.7 1303.7,717.8 1304.6,717.4 1305.0,717.4" fill="none" stroke="#0969da" stroke-width="2.2" stroke-linejoin="round" stroke-linecap="round"/>
<circle cx="1121.3" cy="719.3" r="2.8" fill="#fff" stroke="#0969da" stroke-width="1.6"/>
<circle cx="1186.7" cy="731.9" r="2.8" fill="#fff" stroke="#0969da" stroke-width="1.6"/>
<circle cx="1252.2" cy="735.6" r="2.8" fill="#fff" stroke="#0969da" stroke-width="1.6"/>
<circle cx="1305.0" cy="717.4" r="2.8" fill="#fff" stroke="#0969da" stroke-width="1.6"/>
<polyline points="859.5,750.3 897.7,747.7 924.9,743.6 946.0,750.1 977.7,750.8 990.4,751.1 1001.5,756.9 1020.4,755.7 1036.2,756.2 1049.7,773.0 1055.8,771.2 1061.5,770.8 1072.0,767.2 1081.5,771.5 1090.1,769.0 1097.9,767.4 1105.2,773.0 1112.0,772.5 1118.3,772.7 1121.3,764.6 1124.2,773.3 1129.7,767.5 1135.0,771.0 1139.9,771.8 1144.7,766.1 1149.2,765.4 1153.4,766.0 1157.6,762.6 1161.5,764.3 1165.3,766.1 1168.9,767.8 1172.4,766.1 1175.8,762.6 1179.0,761.5 1182.2,764.5 1185.2,765.6 1186.7,760.9 1188.2,766.1 1191.0,766.5 1193.8,764.2 1196.5,766.8 1199.1,765.5 1201.7,765.2 1204.2,764.8 1206.6,763.6 1209.0,765.1 1211.3,762.9 1213.5,763.5 1215.7,762.8 1217.8,764.7 1219.9,762.2 1222.0,763.6 1224.0,764.5 1226.0,760.8 1227.9,764.4 1229.8,763.6 1231.6,760.2 1233.5,760.6 1235.2,760.4 1237.0,763.2 1238.7,760.1 1240.4,763.9 1242.0,762.7 1243.7,761.5 1245.3,764.6 1246.8,761.1 1248.4,761.3 1249.9,761.3 1251.4,763.2 1252.2,762.8 1252.9,760.4 1254.3,763.2 1255.8,763.0 1257.2,761.8 1258.6,762.2 1259.9,760.1 1261.3,759.7 1262.6,761.3 1263.9,762.2 1265.2,761.9 1266.5,759.8 1267.8,759.5 1269.0,759.2 1270.2,761.6 1271.4,759.1 1272.6,759.4 1273.8,758.6 1275.0,759.3 1276.1,760.8 1277.3,758.8 1278.4,759.4 1279.5,758.4 1280.6,757.7 1281.7,758.0 1282.8,758.3 1283.8,758.2 1284.9,758.5 1285.9,758.0 1286.9,758.7 1288.0,760.8 1289.0,758.4 1290.0,758.0 1290.9,761.2 1291.9,757.6 1292.9,759.6 1293.8,760.1 1294.8,759.3 1295.7,757.6 1296.6,756.9 1297.5,757.8 1298.5,759.7 1299.4,756.9 1300.2,759.5 1301.1,758.2 1302.0,758.0 1302.9,757.9 1303.7,757.6 1304.6,758.2 1305.0,759.1" fill="none" stroke="#1a7f37" stroke-width="2.2" stroke-linejoin="round" stroke-linecap="round"/>
<circle cx="859.5" cy="750.3" r="2.8" fill="#fff" stroke="#1a7f37" stroke-width="1.6"/>
<circle cx="924.9" cy="743.6" r="2.8" fill="#fff" stroke="#1a7f37" stroke-width="1.6"/>
<circle cx="990.4" cy="751.1" r="2.8" fill="#fff" stroke="#1a7f37" stroke-width="1.6"/>
<circle cx="1055.8" cy="771.2" r="2.8" fill="#fff" stroke="#1a7f37" stroke-width="1.6"/>
<circle cx="1121.3" cy="764.6" r="2.8" fill="#fff" stroke="#1a7f37" stroke-width="1.6"/>
<circle cx="1186.7" cy="760.9" r="2.8" fill="#fff" stroke="#1a7f37" stroke-width="1.6"/>
<circle cx="1252.2" cy="762.8" r="2.8" fill="#fff" stroke="#1a7f37" stroke-width="1.6"/>
<circle cx="1305.0" cy="759.1" r="2.8" fill="#fff" stroke="#1a7f37" stroke-width="1.6"/>
<text x="1049.5" y="831.0" font-size="11" text-anchor="middle" font-weight="normal" fill="#24292f">K (log₂ scale)</text>
<text x="743.0" y="662.5" font-size="11" text-anchor="middle" font-weight="normal" fill="#24292f" transform="rotate(-90 743.0 662.5)">message-equivalent GB/s</text>
<text x="700.0" y="884.0" font-size="11" text-anchor="middle" font-weight="normal" fill="#57606a">Lines include every odd K; hollow markers identify powers of two and K=224. Missing codec cells are not connected.</text>
</svg>
