<svg xmlns="http://www.w3.org/2000/svg" width="1400" height="900" viewBox="0 0 1400 900">
<rect width="100%" height="100%" fill="#ffffff"/>
<style>text { font-family: -apple-system,BlinkMacSystemFont,"Segoe UI",sans-serif; }</style>
<text x="700.0" y="35.0" font-size="23" text-anchor="middle" font-weight="600" fill="#24292f">Decode throughput: 2 random source erasures</text>
<text x="700.0" y="61.0" font-size="13" text-anchor="middle" font-weight="normal" fill="#57606a">R=32; every odd K plus powers of two through K=224; pinned single core; setup included</text>
<line x1="482.5" y1="82" x2="510.5" y2="82" stroke="#cf222e" stroke-width="3"/>
<text x="517.5" y="86.0" font-size="12" text-anchor="start" font-weight="normal" fill="#24292f">Leopard2</text>
<line x1="627.5" y1="82" x2="655.5" y2="82" stroke="#0969da" stroke-width="3"/>
<text x="662.5" y="86.0" font-size="12" text-anchor="start" font-weight="normal" fill="#24292f">Leopard main</text>
<line x1="772.5" y1="82" x2="800.5" y2="82" stroke="#1a7f37" stroke-width="3"/>
<text x="807.5" y="86.0" font-size="12" text-anchor="start" font-weight="normal" fill="#24292f">Wirehair (shipping)</text>
<rect x="78.0" y="105.0" width="593.0" height="335.0" rx="6" fill="#f6f8fa" stroke="#d0d7de"/>
<text x="374.5" y="125.0" font-size="14" text-anchor="middle" font-weight="600" fill="#24292f">64 B</text>
<line x1="143.0" y1="400.0" x2="654.0" y2="400.0" stroke="#d8dee4" stroke-width="1"/>
<text x="136.0" y="404.0" font-size="10" text-anchor="end" font-weight="normal" fill="#57606a">0.10</text>
<line x1="143.0" y1="360.1" x2="654.0" y2="360.1" stroke="#d8dee4" stroke-width="1"/>
<text x="136.0" y="364.1" font-size="10" text-anchor="end" font-weight="normal" fill="#57606a">0.20</text>
<line x1="143.0" y1="307.4" x2="654.0" y2="307.4" stroke="#d8dee4" stroke-width="1"/>
<text x="136.0" y="311.4" font-size="10" text-anchor="end" font-weight="normal" fill="#57606a">0.50</text>
<line x1="143.0" y1="267.5" x2="654.0" y2="267.5" stroke="#d8dee4" stroke-width="1"/>
<text x="136.0" y="271.5" font-size="10" text-anchor="end" font-weight="normal" fill="#57606a">1</text>
<line x1="143.0" y1="227.6" x2="654.0" y2="227.6" stroke="#d8dee4" stroke-width="1"/>
<text x="136.0" y="231.6" font-size="10" text-anchor="end" font-weight="normal" fill="#57606a">2</text>
<line x1="143.0" y1="174.9" x2="654.0" y2="174.9" stroke="#d8dee4" stroke-width="1"/>
<text x="136.0" y="178.9" font-size="10" text-anchor="end" font-weight="normal" fill="#57606a">5</text>
<line x1="143.0" y1="135.0" x2="654.0" y2="135.0" stroke="#d8dee4" stroke-width="1"/>
<text x="136.0" y="139.0" font-size="10" text-anchor="end" font-weight="normal" fill="#57606a">10.0</text>
<line x1="143.0" y1="135.0" x2="143.0" y2="400.0" stroke="#eaeef2" stroke-width="1"/>
<text x="143.0" y="417.0" font-size="10" text-anchor="middle" font-weight="normal" fill="#57606a">1</text>
<line x1="208.5" y1="135.0" x2="208.5" y2="400.0" stroke="#eaeef2" stroke-width="1"/>
<text x="208.5" y="417.0" font-size="10" text-anchor="middle" font-weight="normal" fill="#57606a">2</text>
<line x1="273.9" y1="135.0" x2="273.9" y2="400.0" stroke="#eaeef2" stroke-width="1"/>
<text x="273.9" y="417.0" font-size="10" text-anchor="middle" font-weight="normal" fill="#57606a">4</text>
<line x1="339.4" y1="135.0" x2="339.4" y2="400.0" stroke="#eaeef2" stroke-width="1"/>
<text x="339.4" y="417.0" font-size="10" text-anchor="middle" font-weight="normal" fill="#57606a">8</text>
<line x1="404.8" y1="135.0" x2="404.8" y2="400.0" stroke="#eaeef2" stroke-width="1"/>
<text x="404.8" y="417.0" font-size="10" text-anchor="middle" font-weight="normal" fill="#57606a">16</text>
<line x1="470.3" y1="135.0" x2="470.3" y2="400.0" stroke="#eaeef2" stroke-width="1"/>
<text x="470.3" y="417.0" font-size="10" text-anchor="middle" font-weight="normal" fill="#57606a">32</text>
<line x1="535.7" y1="135.0" x2="535.7" y2="400.0" stroke="#eaeef2" stroke-width="1"/>
<text x="535.7" y="417.0" font-size="10" text-anchor="middle" font-weight="normal" fill="#57606a">64</text>
<line x1="601.2" y1="135.0" x2="601.2" y2="400.0" stroke="#eaeef2" stroke-width="1"/>
<text x="601.2" y="417.0" font-size="10" text-anchor="middle" font-weight="normal" fill="#57606a">128</text>
<line x1="654.0" y1="135.0" x2="654.0" y2="400.0" stroke="#eaeef2" stroke-width="1"/>
<text x="654.0" y="417.0" font-size="10" text-anchor="middle" font-weight="normal" fill="#57606a">224</text>
<polyline points="208.5,311.6 246.7,296.3 273.9,281.7 295.0,274.3 326.7,263.1 339.4,257.9 350.5,254.4 369.4,250.4 385.2,247.2 398.7,243.3 404.8,240.1 410.5,269.1 421.0,262.9 430.5,257.9 439.1,252.3 446.9,249.5 454.2,245.8 461.0,241.1 467.3,238.4 470.3,161.3 473.2,236.3 478.7,234.4 484.0,234.2 488.9,229.9 493.7,228.2 498.2,227.2 502.4,223.9 506.6,221.7 510.5,218.1 514.3,218.3 517.9,217.4 521.4,211.6 524.8,210.3 528.0,220.8 531.2,219.5 534.2,210.3 535.7,217.9 537.2,208.6 540.0,207.4 542.8,205.3 545.5,204.0 548.1,202.5 550.7,201.4 553.2,199.8 555.6,200.2 558.0,200.2 560.3,199.8 562.5,198.3 564.7,197.4 566.8,192.5 568.9,207.5 571.0,192.3 573.0,193.1 575.0,200.5 576.9,196.2 578.8,194.5 580.6,196.4 582.5,197.5 584.2,196.0 586.0,194.7 587.7,191.9 589.4,192.6 591.0,189.3 592.7,189.7 594.3,190.9 595.8,190.0 597.4,190.5 598.9,188.9 600.4,188.1 601.2,203.4 601.9,189.9 603.3,189.0 604.8,187.7 606.2,186.7 607.6,188.2 608.9,186.0 610.3,186.7 611.6,184.0 612.9,184.5 614.2,184.4 615.5,183.8 616.8,182.7 618.0,183.2 619.2,182.6 620.4,179.9 621.6,179.9 622.8,182.5 624.0,181.4 625.1,182.1 626.3,181.9 627.4,179.3 628.5,179.2 629.6,180.1 630.7,178.8 631.8,180.4 632.8,180.7 633.9,182.4 634.9,180.8 635.9,179.1 637.0,180.9 638.0,179.2 639.0,178.4 639.9,181.5 640.9,180.8 641.9,180.7 642.8,180.8 643.8,179.6 644.7,179.2 645.6,178.3 646.5,178.9 647.5,178.6 648.4,176.2 649.2,177.8 650.1,183.1 651.0,175.8 651.9,175.3 652.7,174.0 653.6,175.1 654.0,174.1" fill="none" stroke="#cf222e" stroke-width="2.2" stroke-linejoin="round" stroke-linecap="round"/>
<circle cx="208.5" cy="311.6" r="2.8" fill="#fff" stroke="#cf222e" stroke-width="1.6"/>
<circle cx="273.9" cy="281.7" r="2.8" fill="#fff" stroke="#cf222e" stroke-width="1.6"/>
<circle cx="339.4" cy="257.9" r="2.8" fill="#fff" stroke="#cf222e" stroke-width="1.6"/>
<circle cx="404.8" cy="240.1" r="2.8" fill="#fff" stroke="#cf222e" stroke-width="1.6"/>
<circle cx="470.3" cy="161.3" r="2.8" fill="#fff" stroke="#cf222e" stroke-width="1.6"/>
<circle cx="535.7" cy="217.9" r="2.8" fill="#fff" stroke="#cf222e" stroke-width="1.6"/>
<circle cx="601.2" cy="203.4" r="2.8" fill="#fff" stroke="#cf222e" stroke-width="1.6"/>
<circle cx="654.0" cy="174.1" r="2.8" fill="#fff" stroke="#cf222e" stroke-width="1.6"/>
<polyline points="470.3,238.0 473.2,260.8 478.7,257.4 484.0,255.6 488.9,251.8 493.7,250.2 498.2,247.4 502.4,245.0 506.6,242.6 510.5,239.3 514.3,239.0 517.9,236.4 521.4,234.0 524.8,232.8 528.0,230.7 531.2,228.9 534.2,227.4 535.7,225.7 537.2,226.9 540.0,225.5 542.8,223.4 545.5,221.0 548.1,219.8 550.7,218.5 553.2,217.1 555.6,216.7 558.0,216.6 560.3,216.7 562.5,214.5 564.7,213.5 566.8,211.3 568.9,209.5 571.0,208.9 573.0,208.4 575.0,233.4 576.9,231.7 578.8,230.4 580.6,230.6 582.5,230.0 584.2,228.3 586.0,227.6 587.7,226.8 589.4,225.5 591.0,224.0 592.7,224.6 594.3,224.0 595.8,222.9 597.4,221.6 598.9,221.4 600.4,220.1 601.2,218.6 601.9,220.9 603.3,220.3 604.8,217.9 606.2,216.4 607.6,216.7 608.9,215.5 610.3,215.9 611.6,214.5 612.9,214.4 614.2,213.7 615.5,213.1 616.8,212.5 618.0,212.1 619.2,210.5 620.4,209.6 621.6,210.2 622.8,211.2 624.0,210.6 625.1,209.7 626.3,209.2 627.4,209.3 628.5,207.9 629.6,206.4 630.7,207.2 631.8,206.0 632.8,206.5 633.9,205.9 634.9,206.0 635.9,204.6 637.0,203.2 638.0,203.4 639.0,202.8 639.9,202.4 640.9,202.5 641.9,202.4 642.8,201.5 643.8,200.7 644.7,200.3 645.6,199.8 646.5,199.7 647.5,199.6 648.4,198.8 649.2,198.0 650.1,198.6 651.0,196.8 651.9,197.3 652.7,195.7 653.6,197.3 654.0,196.3" fill="none" stroke="#0969da" stroke-width="2.2" stroke-linejoin="round" stroke-linecap="round"/>
<circle cx="470.3" cy="238.0" r="2.8" fill="#fff" stroke="#0969da" stroke-width="1.6"/>
<circle cx="535.7" cy="225.7" r="2.8" fill="#fff" stroke="#0969da" stroke-width="1.6"/>
<circle cx="601.2" cy="218.6" r="2.8" fill="#fff" stroke="#0969da" stroke-width="1.6"/>
<circle cx="654.0" cy="196.3" r="2.8" fill="#fff" stroke="#0969da" stroke-width="1.6"/>
<polyline points="208.5,399.5 246.7,381.7 273.9,371.3 295.0,365.3 326.7,354.8 339.4,352.0 350.5,347.4 369.4,347.3 385.2,344.1 398.7,343.7 404.8,339.7 410.5,342.5 421.0,334.6 430.5,337.0 439.1,332.2 446.9,326.8 454.2,333.0 461.0,328.2 467.3,330.9 470.3,322.0 473.2,329.9 478.7,323.9 484.0,328.3 488.9,328.7 493.7,322.4 498.2,319.7 502.4,321.1 506.6,317.8 510.5,319.6 514.3,317.5 517.9,323.4 521.4,321.6 524.8,319.3 528.0,315.5 531.2,319.6 534.2,318.7 535.7,314.8 537.2,319.2 540.0,319.5 542.8,316.6 545.5,320.2 548.1,319.2 550.7,319.2 553.2,318.4 555.6,312.1 558.0,319.6 560.3,316.7 562.5,312.6 564.7,314.0 566.8,318.1 568.9,313.0 571.0,316.8 573.0,318.4 575.0,311.6 576.9,316.6 578.8,316.0 580.6,311.2 582.5,311.6 584.2,312.1 586.0,315.6 587.7,311.8 589.4,328.3 591.0,327.8 592.7,322.9 594.3,317.1 595.8,326.2 597.4,325.2 598.9,324.9 600.4,329.2 601.2,326.6 601.9,324.4 603.3,326.8 604.8,326.3 606.2,325.1 607.6,326.6 608.9,321.9 610.3,322.8 611.6,325.9 612.9,325.7 614.2,326.3 615.5,323.1 616.8,324.0 618.0,322.8 619.2,325.3 620.4,323.2 621.6,323.4 622.8,324.7 624.0,325.3 625.1,326.5 626.3,323.9 627.4,321.6 628.5,324.2 629.6,320.4 630.7,320.4 631.8,319.5 632.8,321.9 633.9,322.4 634.9,321.4 635.9,320.6 637.0,324.2 638.0,321.0 639.0,320.8 639.9,324.4 640.9,320.3 641.9,323.1 642.8,323.1 643.8,321.9 644.7,318.8 645.6,320.0 646.5,319.8 647.5,321.8 648.4,320.5 649.2,323.4 650.1,321.9 651.0,320.6 651.9,319.1 652.7,320.4 653.6,319.9 654.0,323.2" fill="none" stroke="#1a7f37" stroke-width="2.2" stroke-linejoin="round" stroke-linecap="round"/>
<circle cx="208.5" cy="399.5" r="2.8" fill="#fff" stroke="#1a7f37" stroke-width="1.6"/>
<circle cx="273.9" cy="371.3" r="2.8" fill="#fff" stroke="#1a7f37" stroke-width="1.6"/>
<circle cx="339.4" cy="352.0" r="2.8" fill="#fff" stroke="#1a7f37" stroke-width="1.6"/>
<circle cx="404.8" cy="339.7" r="2.8" fill="#fff" stroke="#1a7f37" stroke-width="1.6"/>
<circle cx="470.3" cy="322.0" r="2.8" fill="#fff" stroke="#1a7f37" stroke-width="1.6"/>
<circle cx="535.7" cy="314.8" r="2.8" fill="#fff" stroke="#1a7f37" stroke-width="1.6"/>
<circle cx="601.2" cy="326.6" r="2.8" fill="#fff" stroke="#1a7f37" stroke-width="1.6"/>
<circle cx="654.0" cy="323.2" r="2.8" fill="#fff" stroke="#1a7f37" stroke-width="1.6"/>
<text x="398.5" y="436.0" font-size="11" text-anchor="middle" font-weight="normal" fill="#24292f">K (log₂ scale)</text>
<text x="92.0" y="267.5" font-size="11" text-anchor="middle" font-weight="normal" fill="#24292f" transform="rotate(-90 92.0 267.5)">message-equivalent GB/s</text>
<rect x="729.0" y="105.0" width="593.0" height="335.0" rx="6" fill="#f6f8fa" stroke="#d0d7de"/>
<text x="1025.5" y="125.0" font-size="14" text-anchor="middle" font-weight="600" fill="#24292f">1 KiB</text>
<line x1="794.0" y1="400.0" x2="1305.0" y2="400.0" stroke="#d8dee4" stroke-width="1"/>
<text x="787.0" y="404.0" font-size="10" text-anchor="end" font-weight="normal" fill="#57606a">0.40</text>
<line x1="794.0" y1="386.9" x2="1305.0" y2="386.9" stroke="#d8dee4" stroke-width="1"/>
<text x="787.0" y="390.9" font-size="10" text-anchor="end" font-weight="normal" fill="#57606a">0.50</text>
<line x1="794.0" y1="347.0" x2="1305.0" y2="347.0" stroke="#d8dee4" stroke-width="1"/>
<text x="787.0" y="351.0" font-size="10" text-anchor="end" font-weight="normal" fill="#57606a">1</text>
<line x1="794.0" y1="307.1" x2="1305.0" y2="307.1" stroke="#d8dee4" stroke-width="1"/>
<text x="787.0" y="311.1" font-size="10" text-anchor="end" font-weight="normal" fill="#57606a">2</text>
<line x1="794.0" y1="254.4" x2="1305.0" y2="254.4" stroke="#d8dee4" stroke-width="1"/>
<text x="787.0" y="258.4" font-size="10" text-anchor="end" font-weight="normal" fill="#57606a">5</text>
<line x1="794.0" y1="214.5" x2="1305.0" y2="214.5" stroke="#d8dee4" stroke-width="1"/>
<text x="787.0" y="218.5" font-size="10" text-anchor="end" font-weight="normal" fill="#57606a">10.0</text>
<line x1="794.0" y1="174.6" x2="1305.0" y2="174.6" stroke="#d8dee4" stroke-width="1"/>
<text x="787.0" y="178.6" font-size="10" text-anchor="end" font-weight="normal" fill="#57606a">20.0</text>
<line x1="794.0" y1="135.0" x2="1305.0" y2="135.0" stroke="#d8dee4" stroke-width="1"/>
<text x="787.0" y="139.0" font-size="10" text-anchor="end" font-weight="normal" fill="#57606a">39.8</text>
<line x1="794.0" y1="135.0" x2="794.0" y2="400.0" stroke="#eaeef2" stroke-width="1"/>
<text x="794.0" y="417.0" font-size="10" text-anchor="middle" font-weight="normal" fill="#57606a">1</text>
<line x1="859.5" y1="135.0" x2="859.5" y2="400.0" stroke="#eaeef2" stroke-width="1"/>
<text x="859.5" y="417.0" font-size="10" text-anchor="middle" font-weight="normal" fill="#57606a">2</text>
<line x1="924.9" y1="135.0" x2="924.9" y2="400.0" stroke="#eaeef2" stroke-width="1"/>
<text x="924.9" y="417.0" font-size="10" text-anchor="middle" font-weight="normal" fill="#57606a">4</text>
<line x1="990.4" y1="135.0" x2="990.4" y2="400.0" stroke="#eaeef2" stroke-width="1"/>
<text x="990.4" y="417.0" font-size="10" text-anchor="middle" font-weight="normal" fill="#57606a">8</text>
<line x1="1055.8" y1="135.0" x2="1055.8" y2="400.0" stroke="#eaeef2" stroke-width="1"/>
<text x="1055.8" y="417.0" font-size="10" text-anchor="middle" font-weight="normal" fill="#57606a">16</text>
<line x1="1121.3" y1="135.0" x2="1121.3" y2="400.0" stroke="#eaeef2" stroke-width="1"/>
<text x="1121.3" y="417.0" font-size="10" text-anchor="middle" font-weight="normal" fill="#57606a">32</text>
<line x1="1186.7" y1="135.0" x2="1186.7" y2="400.0" stroke="#eaeef2" stroke-width="1"/>
<text x="1186.7" y="417.0" font-size="10" text-anchor="middle" font-weight="normal" fill="#57606a">64</text>
<line x1="1252.2" y1="135.0" x2="1252.2" y2="400.0" stroke="#eaeef2" stroke-width="1"/>
<text x="1252.2" y="417.0" font-size="10" text-anchor="middle" font-weight="normal" fill="#57606a">128</text>
<line x1="1305.0" y1="135.0" x2="1305.0" y2="400.0" stroke="#eaeef2" stroke-width="1"/>
<text x="1305.0" y="417.0" font-size="10" text-anchor="middle" font-weight="normal" fill="#57606a">224</text>
<polyline points="859.5,239.5 897.7,225.3 924.9,212.9 946.0,210.5 977.7,200.9 990.4,194.8 1001.5,195.3 1020.4,190.9 1036.2,188.7 1049.7,187.2 1055.8,185.0 1061.5,260.2 1072.0,254.6 1081.5,247.9 1090.1,243.8 1097.9,240.8 1105.2,236.3 1112.0,233.3 1118.3,229.9 1121.3,159.8 1124.2,241.9 1129.7,240.1 1135.0,243.8 1139.9,236.4 1144.7,236.5 1149.2,237.5 1153.4,232.3 1157.6,231.3 1161.5,226.8 1165.3,228.8 1168.9,227.3 1172.4,219.1 1175.8,217.4 1179.0,215.6 1182.2,214.2 1185.2,224.0 1186.7,211.5 1188.2,219.4 1191.0,217.3 1193.8,214.8 1196.5,214.1 1199.1,213.0 1201.7,212.0 1204.2,210.7 1206.6,212.1 1209.0,215.5 1211.3,214.1 1213.5,213.3 1215.7,211.9 1217.8,203.7 1219.9,199.6 1222.0,203.2 1224.0,206.2 1226.0,212.8 1227.9,206.7 1229.8,206.5 1231.6,209.0 1233.5,212.5 1235.2,207.4 1237.0,209.3 1238.7,203.2 1240.4,203.6 1242.0,199.3 1243.7,202.8 1245.3,205.1 1246.8,204.6 1248.4,211.3 1249.9,204.0 1251.4,201.3 1252.2,196.1 1252.9,204.1 1254.3,203.9 1255.8,200.8 1257.2,199.6 1258.6,201.9 1259.9,199.7 1261.3,201.6 1262.6,196.8 1263.9,198.0 1265.2,199.7 1266.5,199.1 1267.8,197.4 1269.0,196.1 1270.2,199.0 1271.4,191.2 1272.6,192.9 1273.8,198.5 1275.0,197.1 1276.1,198.6 1277.3,198.9 1278.4,194.7 1279.5,194.4 1280.6,197.1 1281.7,196.0 1282.8,191.0 1283.8,193.1 1284.9,195.6 1285.9,193.3 1286.9,192.0 1288.0,195.0 1289.0,192.0 1290.0,190.2 1290.9,194.6 1291.9,197.2 1292.9,199.4 1293.8,199.9 1294.8,197.7 1295.7,197.0 1296.6,197.2 1297.5,198.6 1298.5,197.4 1299.4,195.1 1300.2,196.9 1301.1,195.0 1302.0,194.0 1302.9,194.7 1303.7,191.4 1304.6,193.3 1305.0,192.1" fill="none" stroke="#cf222e" stroke-width="2.2" stroke-linejoin="round" stroke-linecap="round"/>
<circle cx="859.5" cy="239.5" r="2.8" fill="#fff" stroke="#cf222e" stroke-width="1.6"/>
<circle cx="924.9" cy="212.9" r="2.8" fill="#fff" stroke="#cf222e" stroke-width="1.6"/>
<circle cx="990.4" cy="194.8" r="2.8" fill="#fff" stroke="#cf222e" stroke-width="1.6"/>
<circle cx="1055.8" cy="185.0" r="2.8" fill="#fff" stroke="#cf222e" stroke-width="1.6"/>
<circle cx="1121.3" cy="159.8" r="2.8" fill="#fff" stroke="#cf222e" stroke-width="1.6"/>
<circle cx="1186.7" cy="211.5" r="2.8" fill="#fff" stroke="#cf222e" stroke-width="1.6"/>
<circle cx="1252.2" cy="196.1" r="2.8" fill="#fff" stroke="#cf222e" stroke-width="1.6"/>
<circle cx="1305.0" cy="192.1" r="2.8" fill="#fff" stroke="#cf222e" stroke-width="1.6"/>
<polyline points="1121.3,247.4 1124.2,284.1 1129.7,279.9 1135.0,280.6 1139.9,274.8 1144.7,274.7 1149.2,271.9 1153.4,269.7 1157.6,267.2 1161.5,263.7 1165.3,264.5 1168.9,262.6 1172.4,258.3 1175.8,256.1 1179.0,254.8 1182.2,252.8 1185.2,253.3 1186.7,250.5 1188.2,253.1 1191.0,249.0 1193.8,247.7 1196.5,246.3 1199.1,245.1 1201.7,243.3 1204.2,242.2 1206.6,243.0 1209.0,242.9 1211.3,241.4 1213.5,240.2 1215.7,239.1 1217.8,235.9 1219.9,234.2 1222.0,234.2 1224.0,234.7 1226.0,264.4 1227.9,262.5 1229.8,261.0 1231.6,261.4 1233.5,260.6 1235.2,259.6 1237.0,258.7 1238.7,258.6 1240.4,255.7 1242.0,253.2 1243.7,256.7 1245.3,255.4 1246.8,255.0 1248.4,258.4 1249.9,252.1 1251.4,251.1 1252.2,247.5 1252.9,251.3 1254.3,251.4 1255.8,249.7 1257.2,248.2 1258.6,248.2 1259.9,247.2 1261.3,247.7 1262.6,246.0 1263.9,245.7 1265.2,246.3 1266.5,245.7 1267.8,244.7 1269.0,243.7 1270.2,242.3 1271.4,240.2 1272.6,239.8 1273.8,243.0 1275.0,242.1 1276.1,242.2 1277.3,242.8 1278.4,241.7 1279.5,240.0 1280.6,238.6 1281.7,239.9 1282.8,237.8 1283.8,238.0 1284.9,239.0 1285.9,237.3 1286.9,238.2 1288.0,235.3 1289.0,236.6 1290.0,235.0 1290.9,236.1 1291.9,235.5 1292.9,235.1 1293.8,233.8 1294.8,234.2 1295.7,233.4 1296.6,232.3 1297.5,232.7 1298.5,233.1 1299.4,231.1 1300.2,232.1 1301.1,230.2 1302.0,229.2 1302.9,230.3 1303.7,227.3 1304.6,229.8 1305.0,229.3" fill="none" stroke="#0969da" stroke-width="2.2" stroke-linejoin="round" stroke-linecap="round"/>
<circle cx="1121.3" cy="247.4" r="2.8" fill="#fff" stroke="#0969da" stroke-width="1.6"/>
<circle cx="1186.7" cy="250.5" r="2.8" fill="#fff" stroke="#0969da" stroke-width="1.6"/>
<circle cx="1252.2" cy="247.5" r="2.8" fill="#fff" stroke="#0969da" stroke-width="1.6"/>
<circle cx="1305.0" cy="229.3" r="2.8" fill="#fff" stroke="#0969da" stroke-width="1.6"/>
<polyline points="859.5,362.1 897.7,349.9 924.9,342.4 946.0,382.1 977.7,374.0 990.4,369.3 1001.5,367.4 1020.4,365.1 1036.2,357.4 1049.7,358.2 1055.8,356.2 1061.5,356.4 1072.0,353.8 1081.5,356.7 1090.1,353.5 1097.9,351.8 1105.2,356.7 1112.0,354.7 1118.3,326.1 1121.3,349.2 1124.2,325.4 1129.7,351.3 1135.0,324.8 1139.9,325.1 1144.7,350.6 1149.2,348.5 1153.4,350.2 1157.6,348.1 1161.5,348.3 1165.3,347.9 1168.9,350.3 1172.4,348.7 1175.8,347.0 1179.0,345.4 1182.2,347.8 1185.2,347.3 1186.7,344.6 1188.2,348.1 1191.0,347.0 1193.8,346.5 1196.5,347.5 1199.1,347.4 1201.7,347.3 1204.2,347.1 1206.6,343.1 1209.0,346.2 1211.3,345.5 1213.5,343.6 1215.7,343.6 1217.8,344.7 1219.9,342.3 1222.0,344.4 1224.0,344.4 1226.0,341.6 1227.9,350.6 1229.8,345.8 1231.6,344.1 1233.5,342.6 1235.2,343.0 1237.0,344.5 1238.7,342.1 1240.4,343.9 1242.0,344.5 1243.7,341.9 1245.3,344.4 1246.8,342.9 1248.4,342.0 1249.9,341.9 1251.4,343.4 1252.2,341.5 1252.9,340.4 1254.3,342.0 1255.8,341.7 1257.2,340.5 1258.6,340.4 1259.9,339.4 1261.3,338.9 1262.6,341.1 1263.9,341.6 1265.2,341.3 1266.5,338.3 1267.8,339.0 1269.0,339.5 1270.2,340.2 1271.4,339.4 1272.6,339.7 1273.8,339.1 1275.0,338.6 1276.1,339.7 1277.3,338.7 1278.4,337.8 1279.5,342.7 1280.6,338.1 1281.7,337.8 1282.8,338.2 1283.8,338.2 1284.9,338.0 1285.9,338.3 1286.9,338.5 1288.0,338.8 1289.0,337.3 1290.0,336.9 1290.9,338.5 1291.9,337.3 1292.9,338.0 1293.8,338.1 1294.8,338.6 1295.7,336.5 1296.6,314.0 1297.5,336.5 1298.5,315.7 1299.4,336.2 1300.2,316.2 1301.1,337.0 1302.0,313.9 1302.9,336.6 1303.7,336.1 1304.6,314.2 1305.0,316.2" fill="none" stroke="#1a7f37" stroke-width="2.2" stroke-linejoin="round" stroke-linecap="round"/>
<circle cx="859.5" cy="362.1" r="2.8" fill="#fff" stroke="#1a7f37" stroke-width="1.6"/>
<circle cx="924.9" cy="342.4" r="2.8" fill="#fff" stroke="#1a7f37" stroke-width="1.6"/>
<circle cx="990.4" cy="369.3" r="2.8" fill="#fff" stroke="#1a7f37" stroke-width="1.6"/>
<circle cx="1055.8" cy="356.2" r="2.8" fill="#fff" stroke="#1a7f37" stroke-width="1.6"/>
<circle cx="1121.3" cy="349.2" r="2.8" fill="#fff" stroke="#1a7f37" stroke-width="1.6"/>
<circle cx="1186.7" cy="344.6" r="2.8" fill="#fff" stroke="#1a7f37" stroke-width="1.6"/>
<circle cx="1252.2" cy="341.5" r="2.8" fill="#fff" stroke="#1a7f37" stroke-width="1.6"/>
<circle cx="1305.0" cy="316.2" r="2.8" fill="#fff" stroke="#1a7f37" stroke-width="1.6"/>
<text x="1049.5" y="436.0" font-size="11" text-anchor="middle" font-weight="normal" fill="#24292f">K (log₂ scale)</text>
<text x="743.0" y="267.5" font-size="11" text-anchor="middle" font-weight="normal" fill="#24292f" transform="rotate(-90 743.0 267.5)">message-equivalent GB/s</text>
<rect x="78.0" y="500.0" width="593.0" height="335.0" rx="6" fill="#f6f8fa" stroke="#d0d7de"/>
<text x="374.5" y="520.0" font-size="14" text-anchor="middle" font-weight="600" fill="#24292f">4 KiB</text>
<line x1="143.0" y1="795.0" x2="654.0" y2="795.0" stroke="#d8dee4" stroke-width="1"/>
<text x="136.0" y="799.0" font-size="10" text-anchor="end" font-weight="normal" fill="#57606a">0.25</text>
<line x1="143.0" y1="762.0" x2="654.0" y2="762.0" stroke="#d8dee4" stroke-width="1"/>
<text x="136.0" y="766.0" font-size="10" text-anchor="end" font-weight="normal" fill="#57606a">0.50</text>
<line x1="143.0" y1="728.8" x2="654.0" y2="728.8" stroke="#d8dee4" stroke-width="1"/>
<text x="136.0" y="732.8" font-size="10" text-anchor="end" font-weight="normal" fill="#57606a">1</text>
<line x1="143.0" y1="695.5" x2="654.0" y2="695.5" stroke="#d8dee4" stroke-width="1"/>
<text x="136.0" y="699.5" font-size="10" text-anchor="end" font-weight="normal" fill="#57606a">2</text>
<line x1="143.0" y1="651.6" x2="654.0" y2="651.6" stroke="#d8dee4" stroke-width="1"/>
<text x="136.0" y="655.6" font-size="10" text-anchor="end" font-weight="normal" fill="#57606a">5</text>
<line x1="143.0" y1="618.3" x2="654.0" y2="618.3" stroke="#d8dee4" stroke-width="1"/>
<text x="136.0" y="622.3" font-size="10" text-anchor="end" font-weight="normal" fill="#57606a">10.0</text>
<line x1="143.0" y1="585.1" x2="654.0" y2="585.1" stroke="#d8dee4" stroke-width="1"/>
<text x="136.0" y="589.1" font-size="10" text-anchor="end" font-weight="normal" fill="#57606a">20.0</text>
<line x1="143.0" y1="541.2" x2="654.0" y2="541.2" stroke="#d8dee4" stroke-width="1"/>
<text x="136.0" y="545.2" font-size="10" text-anchor="end" font-weight="normal" fill="#57606a">50.0</text>
<line x1="143.0" y1="530.0" x2="654.0" y2="530.0" stroke="#d8dee4" stroke-width="1"/>
<text x="136.0" y="534.0" font-size="10" text-anchor="end" font-weight="normal" fill="#57606a">63.1</text>
<line x1="143.0" y1="530.0" x2="143.0" y2="795.0" stroke="#eaeef2" stroke-width="1"/>
<text x="143.0" y="812.0" font-size="10" text-anchor="middle" font-weight="normal" fill="#57606a">1</text>
<line x1="208.5" y1="530.0" x2="208.5" y2="795.0" stroke="#eaeef2" stroke-width="1"/>
<text x="208.5" y="812.0" font-size="10" text-anchor="middle" font-weight="normal" fill="#57606a">2</text>
<line x1="273.9" y1="530.0" x2="273.9" y2="795.0" stroke="#eaeef2" stroke-width="1"/>
<text x="273.9" y="812.0" font-size="10" text-anchor="middle" font-weight="normal" fill="#57606a">4</text>
<line x1="339.4" y1="530.0" x2="339.4" y2="795.0" stroke="#eaeef2" stroke-width="1"/>
<text x="339.4" y="812.0" font-size="10" text-anchor="middle" font-weight="normal" fill="#57606a">8</text>
<line x1="404.8" y1="530.0" x2="404.8" y2="795.0" stroke="#eaeef2" stroke-width="1"/>
<text x="404.8" y="812.0" font-size="10" text-anchor="middle" font-weight="normal" fill="#57606a">16</text>
<line x1="470.3" y1="530.0" x2="470.3" y2="795.0" stroke="#eaeef2" stroke-width="1"/>
<text x="470.3" y="812.0" font-size="10" text-anchor="middle" font-weight="normal" fill="#57606a">32</text>
<line x1="535.7" y1="530.0" x2="535.7" y2="795.0" stroke="#eaeef2" stroke-width="1"/>
<text x="535.7" y="812.0" font-size="10" text-anchor="middle" font-weight="normal" fill="#57606a">64</text>
<line x1="601.2" y1="530.0" x2="601.2" y2="795.0" stroke="#eaeef2" stroke-width="1"/>
<text x="601.2" y="812.0" font-size="10" text-anchor="middle" font-weight="normal" fill="#57606a">128</text>
<line x1="654.0" y1="530.0" x2="654.0" y2="795.0" stroke="#eaeef2" stroke-width="1"/>
<text x="654.0" y="812.0" font-size="10" text-anchor="middle" font-weight="normal" fill="#57606a">224</text>
<polyline points="208.5,592.7 246.7,584.0 273.9,575.7 295.0,574.4 326.7,570.6 339.4,567.6 350.5,566.2 369.4,566.1 385.2,565.9 398.7,564.9 404.8,563.6 410.5,659.0 421.0,657.0 430.5,647.7 439.1,644.7 446.9,644.8 454.2,638.3 461.0,638.2 467.3,632.3 470.3,549.0 473.2,648.4 478.7,643.9 484.0,647.3 488.9,641.2 493.7,642.4 498.2,641.1 502.4,639.3 506.6,637.3 510.5,632.3 514.3,635.5 517.9,634.0 521.4,629.1 524.8,629.8 528.0,623.8 531.2,622.4 534.2,627.1 535.7,620.5 537.2,632.5 540.0,625.7 542.8,624.6 545.5,622.1 548.1,621.5 550.7,621.3 553.2,618.3 555.6,624.6 558.0,624.9 560.3,623.6 562.5,622.7 564.7,619.2 566.8,615.2 568.9,610.1 571.0,613.8 573.0,618.5 575.0,620.2 576.9,614.8 578.8,613.2 580.6,617.9 582.5,617.6 584.2,616.3 586.0,616.4 587.7,613.1 589.4,610.4 591.0,608.3 592.7,611.9 594.3,611.6 595.8,610.9 597.4,612.7 598.9,612.2 600.4,611.6 601.2,601.5 601.9,612.7 603.3,612.7 604.8,611.7 606.2,615.2 607.6,610.8 608.9,610.1 610.3,607.5 611.6,609.2 612.9,613.3 614.2,609.5 615.5,609.3 616.8,608.5 618.0,608.0 619.2,607.2 620.4,602.2 621.6,602.3 622.8,608.4 624.0,607.7 625.1,606.9 626.3,606.9 627.4,606.7 628.5,605.7 629.6,605.8 630.7,605.1 631.8,598.4 632.8,604.6 633.9,604.9 634.9,603.9 635.9,604.5 637.0,604.0 638.0,601.3 639.0,603.0 639.9,604.2 640.9,604.0 641.9,603.6 642.8,603.1 643.8,603.1 644.7,602.9 645.6,602.5 646.5,602.5 647.5,602.7 648.4,601.7 649.2,601.8 650.1,599.0 651.0,599.2 651.9,600.8 652.7,597.0 653.6,600.7 654.0,598.3" fill="none" stroke="#cf222e" stroke-width="2.2" stroke-linejoin="round" stroke-linecap="round"/>
<circle cx="208.5" cy="592.7" r="2.8" fill="#fff" stroke="#cf222e" stroke-width="1.6"/>
<circle cx="273.9" cy="575.7" r="2.8" fill="#fff" stroke="#cf222e" stroke-width="1.6"/>
<circle cx="339.4" cy="567.6" r="2.8" fill="#fff" stroke="#cf222e" stroke-width="1.6"/>
<circle cx="404.8" cy="563.6" r="2.8" fill="#fff" stroke="#cf222e" stroke-width="1.6"/>
<circle cx="470.3" cy="549.0" r="2.8" fill="#fff" stroke="#cf222e" stroke-width="1.6"/>
<circle cx="535.7" cy="620.5" r="2.8" fill="#fff" stroke="#cf222e" stroke-width="1.6"/>
<circle cx="601.2" cy="601.5" r="2.8" fill="#fff" stroke="#cf222e" stroke-width="1.6"/>
<circle cx="654.0" cy="598.3" r="2.8" fill="#fff" stroke="#cf222e" stroke-width="1.6"/>
<polyline points="470.3,644.0 473.2,676.3 478.7,672.9 484.0,673.4 488.9,668.8 493.7,668.2 498.2,666.3 502.4,664.6 506.6,662.2 510.5,659.0 514.3,659.7 517.9,658.4 521.4,654.7 524.8,653.2 528.0,652.2 531.2,650.3 534.2,650.6 535.7,648.0 537.2,650.5 540.0,647.2 542.8,645.8 545.5,644.9 548.1,643.8 550.7,642.5 553.2,641.5 555.6,642.2 558.0,642.0 560.3,641.1 562.5,640.0 564.7,639.0 566.8,636.9 568.9,635.2 571.0,634.5 573.0,635.4 575.0,663.1 576.9,660.8 578.8,660.1 580.6,660.6 582.5,659.4 584.2,658.7 586.0,657.8 587.7,657.7 589.4,655.8 591.0,653.7 592.7,656.4 594.3,655.7 595.8,655.1 597.4,658.2 598.9,652.7 600.4,651.9 601.2,648.9 601.9,651.7 603.3,651.7 604.8,649.9 606.2,648.7 607.6,648.7 608.9,648.1 610.3,648.2 611.6,646.8 612.9,651.5 614.2,647.0 615.5,646.6 616.8,646.2 618.0,649.4 619.2,643.7 620.4,642.8 621.6,642.1 622.8,644.6 624.0,643.9 625.1,643.6 626.3,643.9 627.4,643.3 628.5,641.4 629.6,640.7 630.7,641.8 631.8,639.4 632.8,640.4 633.9,640.4 634.9,639.3 635.9,640.4 637.0,638.1 638.0,639.1 639.0,637.8 639.9,638.2 640.9,637.9 641.9,637.4 642.8,637.0 643.8,640.3 644.7,636.3 645.6,635.6 646.5,635.7 647.5,635.5 648.4,634.6 649.2,634.7 650.1,633.8 651.0,632.8 651.9,633.8 652.7,631.6 653.6,633.0 654.0,632.6" fill="none" stroke="#0969da" stroke-width="2.2" stroke-linejoin="round" stroke-linecap="round"/>
<circle cx="470.3" cy="644.0" r="2.8" fill="#fff" stroke="#0969da" stroke-width="1.6"/>
<circle cx="535.7" cy="648.0" r="2.8" fill="#fff" stroke="#0969da" stroke-width="1.6"/>
<circle cx="601.2" cy="648.9" r="2.8" fill="#fff" stroke="#0969da" stroke-width="1.6"/>
<circle cx="654.0" cy="632.6" r="2.8" fill="#fff" stroke="#0969da" stroke-width="1.6"/>
<polyline points="208.5,788.7 246.7,770.5 273.9,761.9 295.0,755.9 326.7,746.1 339.4,742.8 350.5,739.2 369.4,737.0 385.2,732.4 398.7,733.9 404.8,729.8 410.5,731.1 421.0,727.1 430.5,729.7 439.1,725.5 446.9,723.9 454.2,728.0 461.0,725.6 467.3,726.2 470.3,727.2 473.2,726.0 478.7,722.4 484.0,724.8 488.9,703.6 493.7,720.6 498.2,719.0 502.4,719.9 506.6,718.6 510.5,719.7 514.3,718.6 517.9,721.3 521.4,720.6 524.8,719.0 528.0,717.5 531.2,720.1 534.2,719.5 535.7,718.1 537.2,720.5 540.0,720.3 542.8,719.8 545.5,720.4 548.1,720.6 550.7,720.2 553.2,719.8 555.6,717.5 558.0,720.1 560.3,719.0 562.5,717.9 564.7,718.0 566.8,719.5 568.9,717.7 571.0,718.6 573.0,718.9 575.0,717.3 576.9,718.5 578.8,718.6 580.6,717.1 582.5,723.2 584.2,716.4 586.0,717.7 587.7,716.8 589.4,699.2 591.0,698.7 592.7,697.1 594.3,698.7 595.8,697.8 597.4,697.0 598.9,697.0 600.4,699.2 601.2,698.1 601.9,696.5 603.3,698.0 604.8,698.0 606.2,697.4 607.6,697.9 608.9,696.0 610.3,696.0 611.6,698.4 612.9,704.6 614.2,697.7 615.5,696.2 616.8,696.9 618.0,696.7 619.2,698.3 620.4,696.4 621.6,697.0 622.8,697.1 624.0,696.6 625.1,698.0 626.3,696.8 627.4,696.4 628.5,696.4 629.6,696.6 630.7,696.3 631.8,696.0 632.8,696.2 633.9,696.4 634.9,696.1 635.9,696.2 637.0,698.1 638.0,696.2 639.0,695.7 639.9,697.5 640.9,696.2 641.9,697.2 642.8,697.1 643.8,696.9 644.7,695.6 645.6,695.4 646.5,696.0 647.5,697.2 648.4,695.7 649.2,697.4 650.1,696.1 651.0,695.6 651.9,695.8 652.7,695.5 653.6,695.9 654.0,697.2" fill="none" stroke="#1a7f37" stroke-width="2.2" stroke-linejoin="round" stroke-linecap="round"/>
<circle cx="208.5" cy="788.7" r="2.8" fill="#fff" stroke="#1a7f37" stroke-width="1.6"/>
<circle cx="273.9" cy="761.9" r="2.8" fill="#fff" stroke="#1a7f37" stroke-width="1.6"/>
<circle cx="339.4" cy="742.8" r="2.8" fill="#fff" stroke="#1a7f37" stroke-width="1.6"/>
<circle cx="404.8" cy="729.8" r="2.8" fill="#fff" stroke="#1a7f37" stroke-width="1.6"/>
<circle cx="470.3" cy="727.2" r="2.8" fill="#fff" stroke="#1a7f37" stroke-width="1.6"/>
<circle cx="535.7" cy="718.1" r="2.8" fill="#fff" stroke="#1a7f37" stroke-width="1.6"/>
<circle cx="601.2" cy="698.1" r="2.8" fill="#fff" stroke="#1a7f37" stroke-width="1.6"/>
<circle cx="654.0" cy="697.2" r="2.8" fill="#fff" stroke="#1a7f37" stroke-width="1.6"/>
<text x="398.5" y="831.0" font-size="11" text-anchor="middle" font-weight="normal" fill="#24292f">K (log₂ scale)</text>
<text x="92.0" y="662.5" font-size="11" text-anchor="middle" font-weight="normal" fill="#24292f" transform="rotate(-90 92.0 662.5)">message-equivalent GB/s</text>
<rect x="729.0" y="500.0" width="593.0" height="335.0" rx="6" fill="#f6f8fa" stroke="#d0d7de"/>
<text x="1025.5" y="520.0" font-size="14" text-anchor="middle" font-weight="600" fill="#24292f">1 MiB</text>
<line x1="794.0" y1="795.0" x2="1305.0" y2="795.0" stroke="#d8dee4" stroke-width="1"/>
<text x="787.0" y="799.0" font-size="10" text-anchor="end" font-weight="normal" fill="#57606a">0.63</text>
<line x1="794.0" y1="765.6" x2="1305.0" y2="765.6" stroke="#d8dee4" stroke-width="1"/>
<text x="787.0" y="769.6" font-size="10" text-anchor="end" font-weight="normal" fill="#57606a">1</text>
<line x1="794.0" y1="721.2" x2="1305.0" y2="721.2" stroke="#d8dee4" stroke-width="1"/>
<text x="787.0" y="725.2" font-size="10" text-anchor="end" font-weight="normal" fill="#57606a">2</text>
<line x1="794.0" y1="662.7" x2="1305.0" y2="662.7" stroke="#d8dee4" stroke-width="1"/>
<text x="787.0" y="666.7" font-size="10" text-anchor="end" font-weight="normal" fill="#57606a">5</text>
<line x1="794.0" y1="618.3" x2="1305.0" y2="618.3" stroke="#d8dee4" stroke-width="1"/>
<text x="787.0" y="622.3" font-size="10" text-anchor="end" font-weight="normal" fill="#57606a">10.0</text>
<line x1="794.0" y1="574.0" x2="1305.0" y2="574.0" stroke="#d8dee4" stroke-width="1"/>
<text x="787.0" y="578.0" font-size="10" text-anchor="end" font-weight="normal" fill="#57606a">20.0</text>
<line x1="794.0" y1="530.0" x2="1305.0" y2="530.0" stroke="#d8dee4" stroke-width="1"/>
<text x="787.0" y="534.0" font-size="10" text-anchor="end" font-weight="normal" fill="#57606a">39.8</text>
<line x1="794.0" y1="530.0" x2="794.0" y2="795.0" stroke="#eaeef2" stroke-width="1"/>
<text x="794.0" y="812.0" font-size="10" text-anchor="middle" font-weight="normal" fill="#57606a">1</text>
<line x1="859.5" y1="530.0" x2="859.5" y2="795.0" stroke="#eaeef2" stroke-width="1"/>
<text x="859.5" y="812.0" font-size="10" text-anchor="middle" font-weight="normal" fill="#57606a">2</text>
<line x1="924.9" y1="530.0" x2="924.9" y2="795.0" stroke="#eaeef2" stroke-width="1"/>
<text x="924.9" y="812.0" font-size="10" text-anchor="middle" font-weight="normal" fill="#57606a">4</text>
<line x1="990.4" y1="530.0" x2="990.4" y2="795.0" stroke="#eaeef2" stroke-width="1"/>
<text x="990.4" y="812.0" font-size="10" text-anchor="middle" font-weight="normal" fill="#57606a">8</text>
<line x1="1055.8" y1="530.0" x2="1055.8" y2="795.0" stroke="#eaeef2" stroke-width="1"/>
<text x="1055.8" y="812.0" font-size="10" text-anchor="middle" font-weight="normal" fill="#57606a">16</text>
<line x1="1121.3" y1="530.0" x2="1121.3" y2="795.0" stroke="#eaeef2" stroke-width="1"/>
<text x="1121.3" y="812.0" font-size="10" text-anchor="middle" font-weight="normal" fill="#57606a">32</text>
<line x1="1186.7" y1="530.0" x2="1186.7" y2="795.0" stroke="#eaeef2" stroke-width="1"/>
<text x="1186.7" y="812.0" font-size="10" text-anchor="middle" font-weight="normal" fill="#57606a">64</text>
<line x1="1252.2" y1="530.0" x2="1252.2" y2="795.0" stroke="#eaeef2" stroke-width="1"/>
<text x="1252.2" y="812.0" font-size="10" text-anchor="middle" font-weight="normal" fill="#57606a">128</text>
<line x1="1305.0" y1="530.0" x2="1305.0" y2="795.0" stroke="#eaeef2" stroke-width="1"/>
<text x="1305.0" y="812.0" font-size="10" text-anchor="middle" font-weight="normal" fill="#57606a">224</text>
<polyline points="859.5,540.8 897.7,535.1 924.9,534.6 946.0,539.5 977.7,541.3 990.4,541.9 1001.5,540.2 1020.4,540.3 1036.2,541.3 1049.7,543.8 1055.8,544.4 1061.5,727.8 1072.0,727.2 1081.5,712.0 1090.1,708.8 1097.9,704.5 1105.2,699.6 1112.0,695.1 1118.3,691.3 1121.3,554.0 1124.2,658.7 1129.7,656.5 1135.0,658.8 1139.9,652.1 1144.7,654.3 1149.2,651.1 1153.4,648.8 1157.6,647.5 1161.5,646.1 1165.3,644.7 1168.9,643.7 1172.4,638.5 1175.8,636.5 1179.0,634.3 1182.2,632.7 1185.2,636.0 1186.7,630.8 1188.2,641.3 1191.0,635.8 1193.8,634.2 1196.5,633.3 1199.1,632.8 1201.7,631.2 1204.2,629.5 1206.6,632.8 1209.0,632.5 1211.3,631.5 1213.5,630.6 1215.7,628.8 1217.8,625.7 1219.9,622.7 1222.0,624.1 1224.0,626.7 1226.0,630.3 1227.9,626.9 1229.8,624.6 1231.6,628.0 1233.5,627.4 1235.2,626.7 1237.0,627.4 1238.7,629.8 1240.4,627.6 1242.0,619.8 1243.7,622.8 1245.3,622.1 1246.8,628.1 1248.4,622.0 1249.9,625.9 1251.4,620.5 1252.2,614.5 1252.9,624.2 1254.3,622.8 1255.8,622.3 1257.2,621.7 1258.6,621.9 1259.9,620.8 1261.3,620.1 1262.6,620.3 1263.9,620.1 1265.2,619.9 1266.5,619.1 1267.8,619.0 1269.0,618.6 1270.2,617.9 1271.4,614.7 1272.6,614.6 1273.8,619.7 1275.0,619.1 1276.1,618.1 1277.3,618.5 1278.4,618.6 1279.5,617.1 1280.6,617.5 1281.7,617.8 1282.8,613.5 1283.8,616.1 1284.9,616.1 1285.9,619.7 1286.9,615.3 1288.0,615.2 1289.0,613.6 1290.0,613.9 1290.9,616.7 1291.9,616.1 1292.9,616.0 1293.8,615.0 1294.8,615.6 1295.7,614.9 1296.6,614.2 1297.5,614.2 1298.5,614.7 1299.4,617.9 1300.2,613.7 1301.1,611.9 1302.0,612.4 1302.9,612.8 1303.7,614.1 1304.6,612.0 1305.0,611.3" fill="none" stroke="#cf222e" stroke-width="2.2" stroke-linejoin="round" stroke-linecap="round"/>
<circle cx="859.5" cy="540.8" r="2.8" fill="#fff" stroke="#cf222e" stroke-width="1.6"/>
<circle cx="924.9" cy="534.6" r="2.8" fill="#fff" stroke="#cf222e" stroke-width="1.6"/>
<circle cx="990.4" cy="541.9" r="2.8" fill="#fff" stroke="#cf222e" stroke-width="1.6"/>
<circle cx="1055.8" cy="544.4" r="2.8" fill="#fff" stroke="#cf222e" stroke-width="1.6"/>
<circle cx="1121.3" cy="554.0" r="2.8" fill="#fff" stroke="#cf222e" stroke-width="1.6"/>
<circle cx="1186.7" cy="630.8" r="2.8" fill="#fff" stroke="#cf222e" stroke-width="1.6"/>
<circle cx="1252.2" cy="614.5" r="2.8" fill="#fff" stroke="#cf222e" stroke-width="1.6"/>
<circle cx="1305.0" cy="611.3" r="2.8" fill="#fff" stroke="#cf222e" stroke-width="1.6"/>
<polyline points="1121.3,719.5 1124.2,772.9 1129.7,769.2 1135.0,767.5 1139.9,763.2 1144.7,762.1 1149.2,759.5 1153.4,755.2 1157.6,754.1 1161.5,749.7 1165.3,748.3 1168.9,747.1 1172.4,743.3 1175.8,741.7 1179.0,739.2 1182.2,737.5 1185.2,737.2 1186.7,734.7 1188.2,736.6 1191.0,733.3 1193.8,731.0 1196.5,729.1 1199.1,729.2 1201.7,726.3 1204.2,724.5 1206.6,724.3 1209.0,724.2 1211.3,723.6 1213.5,721.9 1215.7,720.4 1217.8,717.6 1219.9,714.8 1222.0,715.1 1224.0,715.5 1226.0,756.3 1227.9,753.8 1229.8,752.5 1231.6,752.7 1233.5,751.3 1235.2,750.3 1237.0,749.3 1238.7,748.5 1240.4,746.0 1242.0,744.5 1243.7,746.6 1245.3,744.9 1246.8,743.8 1248.4,742.7 1249.9,741.7 1251.4,740.7 1252.2,738.3 1252.9,740.5 1254.3,739.7 1255.8,738.4 1257.2,736.3 1258.6,736.2 1259.9,736.0 1261.3,735.3 1262.6,734.2 1263.9,734.1 1265.2,732.9 1266.5,732.6 1267.8,731.6 1269.0,730.9 1270.2,730.4 1271.4,728.3 1272.6,727.8 1273.8,729.7 1275.0,728.9 1276.1,728.0 1277.3,728.6 1278.4,727.3 1279.5,726.6 1280.6,724.3 1281.7,725.7 1282.8,723.7 1283.8,724.3 1284.9,723.5 1285.9,722.8 1286.9,723.0 1288.0,720.9 1289.0,721.1 1290.0,720.5 1290.9,721.5 1291.9,720.0 1292.9,719.1 1293.8,718.9 1294.8,718.1 1295.7,717.8 1296.6,717.3 1297.5,716.5 1298.5,716.4 1299.4,715.7 1300.2,715.3 1301.1,714.7 1302.0,712.9 1302.9,714.2 1303.7,711.3 1304.6,712.9 1305.0,712.7" fill="none" stroke="#0969da" stroke-width="2.2" stroke-linejoin="round" stroke-linecap="round"/>
<circle cx="1121.3" cy="719.5" r="2.8" fill="#fff" stroke="#0969da" stroke-width="1.6"/>
<circle cx="1186.7" cy="734.7" r="2.8" fill="#fff" stroke="#0969da" stroke-width="1.6"/>
<circle cx="1252.2" cy="738.3" r="2.8" fill="#fff" stroke="#0969da" stroke-width="1.6"/>
<circle cx="1305.0" cy="712.7" r="2.8" fill="#fff" stroke="#0969da" stroke-width="1.6"/>
<polyline points="859.5,764.8 897.7,758.4 924.9,752.2 946.0,759.1 977.7,761.4 990.4,762.5 1001.5,761.3 1020.4,765.4 1036.2,766.8 1049.7,789.9 1055.8,786.7 1061.5,787.0 1072.0,782.9 1081.5,786.7 1090.1,782.8 1097.9,779.8 1105.2,789.8 1112.0,786.5 1118.3,788.9 1121.3,778.6 1124.2,789.3 1129.7,781.9 1135.0,788.4 1139.9,789.3 1144.7,781.6 1149.2,777.9 1153.4,780.8 1157.6,778.2 1161.5,778.0 1165.3,778.4 1168.9,783.5 1172.4,781.6 1175.8,778.5 1179.0,776.8 1182.2,781.0 1185.2,780.8 1186.7,776.5 1188.2,782.7 1191.0,782.0 1193.8,781.5 1196.5,783.3 1199.1,783.1 1201.7,782.7 1204.2,782.5 1206.6,776.4 1209.0,782.4 1211.3,779.8 1213.5,777.3 1215.7,778.1 1217.8,781.1 1219.9,777.9 1222.0,779.9 1224.0,780.4 1226.0,775.7 1227.9,780.1 1229.8,780.2 1231.6,775.6 1233.5,776.7 1235.2,775.8 1237.0,778.4 1238.7,776.5 1240.4,780.8 1242.0,780.0 1243.7,777.5 1245.3,781.4 1246.8,777.9 1248.4,776.9 1249.9,777.0 1251.4,781.2 1252.2,778.8 1252.9,775.3 1254.3,778.3 1255.8,777.4 1257.2,777.6 1258.6,778.1 1259.9,774.2 1261.3,775.6 1262.6,779.1 1263.9,777.6 1265.2,778.1 1266.5,774.9 1267.8,774.7 1269.0,775.0 1270.2,777.5 1271.4,774.5 1272.6,774.9 1273.8,775.7 1275.0,775.2 1276.1,776.9 1277.3,775.5 1278.4,773.4 1279.5,775.0 1280.6,774.7 1281.7,773.9 1282.8,773.7 1283.8,774.2 1284.9,774.4 1285.9,773.3 1286.9,774.6 1288.0,777.1 1289.0,774.1 1290.0,773.8 1290.9,776.9 1291.9,772.8 1292.9,775.2 1293.8,776.0 1294.8,775.5 1295.7,773.2 1296.6,772.9 1297.5,772.8 1298.5,775.2 1299.4,773.2 1300.2,775.4 1301.1,772.6 1302.0,771.9 1302.9,772.3 1303.7,772.5 1304.6,772.6 1305.0,775.8" fill="none" stroke="#1a7f37" stroke-width="2.2" stroke-linejoin="round" stroke-linecap="round"/>
<circle cx="859.5" cy="764.8" r="2.8" fill="#fff" stroke="#1a7f37" stroke-width="1.6"/>
<circle cx="924.9" cy="752.2" r="2.8" fill="#fff" stroke="#1a7f37" stroke-width="1.6"/>
<circle cx="990.4" cy="762.5" r="2.8" fill="#fff" stroke="#1a7f37" stroke-width="1.6"/>
<circle cx="1055.8" cy="786.7" r="2.8" fill="#fff" stroke="#1a7f37" stroke-width="1.6"/>
<circle cx="1121.3" cy="778.6" r="2.8" fill="#fff" stroke="#1a7f37" stroke-width="1.6"/>
<circle cx="1186.7" cy="776.5" r="2.8" fill="#fff" stroke="#1a7f37" stroke-width="1.6"/>
<circle cx="1252.2" cy="778.8" r="2.8" fill="#fff" stroke="#1a7f37" stroke-width="1.6"/>
<circle cx="1305.0" cy="775.8" r="2.8" fill="#fff" stroke="#1a7f37" stroke-width="1.6"/>
<text x="1049.5" y="831.0" font-size="11" text-anchor="middle" font-weight="normal" fill="#24292f">K (log₂ scale)</text>
<text x="743.0" y="662.5" font-size="11" text-anchor="middle" font-weight="normal" fill="#24292f" transform="rotate(-90 743.0 662.5)">message-equivalent GB/s</text>
<text x="700.0" y="884.0" font-size="11" text-anchor="middle" font-weight="normal" fill="#57606a">Lines include every odd K; hollow markers identify powers of two and K=224. Missing codec cells are not connected.</text>
</svg>
