<svg xmlns="http://www.w3.org/2000/svg" width="1400" height="900" viewBox="0 0 1400 900">
<rect width="100%" height="100%" fill="#ffffff"/>
<style>text { font-family: -apple-system,BlinkMacSystemFont,"Segoe UI",sans-serif; }</style>
<text x="700.0" y="35.0" font-size="23" text-anchor="middle" font-weight="600" fill="#24292f">Leopard2 decode speedup over Wirehair: 2 random source erasures</text>
<text x="700.0" y="61.0" font-size="13" text-anchor="middle" font-weight="normal" fill="#57606a">AVX2-restricted L2 and L1; R=32; odd K + powers of two through 224; single core; setup included; values above 1 are faster</text>
<line x1="627.5" y1="82" x2="655.5" y2="82" stroke="#cf222e" stroke-width="3"/>
<text x="662.5" y="86.0" font-size="12" text-anchor="start" font-weight="normal" fill="#24292f">Leopard2</text>
<rect x="78.0" y="105.0" width="593.0" height="335.0" rx="6" fill="#f6f8fa" stroke="#d0d7de"/>
<text x="374.5" y="125.0" font-size="14" text-anchor="middle" font-weight="600" fill="#24292f">64 B</text>
<line x1="143.0" y1="400.0" x2="654.0" y2="400.0" stroke="#d8dee4" stroke-width="1"/>
<text x="136.0" y="404.0" font-size="10" text-anchor="end" font-weight="normal" fill="#57606a">1</text>
<line x1="143.0" y1="343.0" x2="654.0" y2="343.0" stroke="#d8dee4" stroke-width="1"/>
<text x="136.0" y="347.0" font-size="10" text-anchor="end" font-weight="normal" fill="#57606a">2</text>
<line x1="143.0" y1="267.7" x2="654.0" y2="267.7" stroke="#d8dee4" stroke-width="1"/>
<text x="136.0" y="271.7" font-size="10" text-anchor="end" font-weight="normal" fill="#57606a">5</text>
<line x1="143.0" y1="210.7" x2="654.0" y2="210.7" stroke="#d8dee4" stroke-width="1"/>
<text x="136.0" y="214.7" font-size="10" text-anchor="end" font-weight="normal" fill="#57606a">10.0</text>
<line x1="143.0" y1="153.7" x2="654.0" y2="153.7" stroke="#d8dee4" stroke-width="1"/>
<text x="136.0" y="157.7" font-size="10" text-anchor="end" font-weight="normal" fill="#57606a">20.0</text>
<line x1="143.0" y1="135.0" x2="654.0" y2="135.0" stroke="#d8dee4" stroke-width="1"/>
<text x="136.0" y="139.0" font-size="10" text-anchor="end" font-weight="normal" fill="#57606a">25.1</text>
<line x1="143.0" y1="135.0" x2="143.0" y2="400.0" stroke="#eaeef2" stroke-width="1"/>
<text x="143.0" y="417.0" font-size="10" text-anchor="middle" font-weight="normal" fill="#57606a">1</text>
<line x1="208.5" y1="135.0" x2="208.5" y2="400.0" stroke="#eaeef2" stroke-width="1"/>
<text x="208.5" y="417.0" font-size="10" text-anchor="middle" font-weight="normal" fill="#57606a">2</text>
<line x1="273.9" y1="135.0" x2="273.9" y2="400.0" stroke="#eaeef2" stroke-width="1"/>
<text x="273.9" y="417.0" font-size="10" text-anchor="middle" font-weight="normal" fill="#57606a">4</text>
<line x1="339.4" y1="135.0" x2="339.4" y2="400.0" stroke="#eaeef2" stroke-width="1"/>
<text x="339.4" y="417.0" font-size="10" text-anchor="middle" font-weight="normal" fill="#57606a">8</text>
<line x1="404.8" y1="135.0" x2="404.8" y2="400.0" stroke="#eaeef2" stroke-width="1"/>
<text x="404.8" y="417.0" font-size="10" text-anchor="middle" font-weight="normal" fill="#57606a">16</text>
<line x1="470.3" y1="135.0" x2="470.3" y2="400.0" stroke="#eaeef2" stroke-width="1"/>
<text x="470.3" y="417.0" font-size="10" text-anchor="middle" font-weight="normal" fill="#57606a">32</text>
<line x1="535.7" y1="135.0" x2="535.7" y2="400.0" stroke="#eaeef2" stroke-width="1"/>
<text x="535.7" y="417.0" font-size="10" text-anchor="middle" font-weight="normal" fill="#57606a">64</text>
<line x1="601.2" y1="135.0" x2="601.2" y2="400.0" stroke="#eaeef2" stroke-width="1"/>
<text x="601.2" y="417.0" font-size="10" text-anchor="middle" font-weight="normal" fill="#57606a">128</text>
<line x1="654.0" y1="135.0" x2="654.0" y2="400.0" stroke="#eaeef2" stroke-width="1"/>
<text x="654.0" y="417.0" font-size="10" text-anchor="middle" font-weight="normal" fill="#57606a">224</text>
<line x1="143.0" y1="400.0" x2="654.0" y2="400.0" stroke="#6e7781" stroke-width="1.5" stroke-dasharray="5 4"/>
<polyline points="208.5,274.4 246.7,278.1 273.9,272.0 295.0,269.9 326.7,269.1 339.4,265.7 350.5,267.2 369.4,261.6 385.2,261.5 398.7,256.6 404.8,257.7 410.5,295.2 421.0,297.7 430.5,287.0 439.1,285.7 446.9,289.6 454.2,275.4 461.0,275.6 467.3,267.7 470.3,170.4 473.2,266.4 478.7,272.3 484.0,265.6 488.9,258.9 493.7,265.4 498.2,267.8 502.4,261.1 506.6,262.8 510.5,255.0 514.3,258.3 517.9,248.7 521.4,242.9 524.8,244.2 528.0,264.8 531.2,257.0 534.2,245.1 535.7,261.6 537.2,242.1 540.0,239.8 542.8,240.9 545.5,233.9 548.1,233.2 550.7,231.8 553.2,230.6 555.6,240.2 558.0,229.5 560.3,233.0 562.5,236.7 564.7,233.5 566.8,220.5 568.9,249.2 571.0,222.1 573.0,221.0 575.0,241.3 576.9,228.0 578.8,226.4 580.6,235.9 582.5,237.0 584.2,234.1 586.0,227.4 587.7,228.8 589.4,206.1 591.0,202.1 592.7,209.8 594.3,219.7 595.8,205.5 597.4,207.5 598.9,205.8 600.4,198.5 601.2,223.9 601.9,207.8 603.3,203.1 604.8,201.9 606.2,202.4 607.6,202.2 608.9,205.9 610.3,205.6 611.6,197.2 612.9,198.2 614.2,197.3 615.5,201.1 616.8,198.1 618.0,200.5 619.2,196.2 620.4,195.2 621.6,195.0 622.8,196.8 624.0,194.5 625.1,193.6 626.3,197.2 627.4,196.8 628.5,193.0 629.6,199.6 630.7,197.7 631.8,201.2 632.8,198.4 633.9,200.0 634.9,199.2 635.9,197.9 637.0,195.3 638.0,197.5 639.0,196.6 639.9,195.9 640.9,200.6 641.9,196.5 642.8,196.6 643.8,196.7 644.7,200.5 645.6,197.6 646.5,198.8 647.5,195.4 648.4,193.8 649.2,191.9 650.1,201.8 651.0,193.1 651.9,194.6 652.7,190.8 653.6,193.1 654.0,187.0" fill="none" stroke="#cf222e" stroke-width="2.2" stroke-linejoin="round" stroke-linecap="round"/>
<circle cx="208.5" cy="274.4" r="2.8" fill="#fff" stroke="#cf222e" stroke-width="1.6"/>
<circle cx="273.9" cy="272.0" r="2.8" fill="#fff" stroke="#cf222e" stroke-width="1.6"/>
<circle cx="339.4" cy="265.7" r="2.8" fill="#fff" stroke="#cf222e" stroke-width="1.6"/>
<circle cx="404.8" cy="257.7" r="2.8" fill="#fff" stroke="#cf222e" stroke-width="1.6"/>
<circle cx="470.3" cy="170.4" r="2.8" fill="#fff" stroke="#cf222e" stroke-width="1.6"/>
<circle cx="535.7" cy="261.6" r="2.8" fill="#fff" stroke="#cf222e" stroke-width="1.6"/>
<circle cx="601.2" cy="223.9" r="2.8" fill="#fff" stroke="#cf222e" stroke-width="1.6"/>
<circle cx="654.0" cy="187.0" r="2.8" fill="#fff" stroke="#cf222e" stroke-width="1.6"/>
<text x="398.5" y="436.0" font-size="11" text-anchor="middle" font-weight="normal" fill="#24292f">K (log₂ scale)</text>
<text x="92.0" y="267.5" font-size="11" text-anchor="middle" font-weight="normal" fill="#24292f" transform="rotate(-90 92.0 267.5)">speedup (×)</text>
<rect x="729.0" y="105.0" width="593.0" height="335.0" rx="6" fill="#f6f8fa" stroke="#d0d7de"/>
<text x="1025.5" y="125.0" font-size="14" text-anchor="middle" font-weight="600" fill="#24292f">1 KiB</text>
<line x1="794.0" y1="400.0" x2="1305.0" y2="400.0" stroke="#d8dee4" stroke-width="1"/>
<text x="787.0" y="404.0" font-size="10" text-anchor="end" font-weight="normal" fill="#57606a">1</text>
<line x1="794.0" y1="350.1" x2="1305.0" y2="350.1" stroke="#d8dee4" stroke-width="1"/>
<text x="787.0" y="354.1" font-size="10" text-anchor="end" font-weight="normal" fill="#57606a">2</text>
<line x1="794.0" y1="284.2" x2="1305.0" y2="284.2" stroke="#d8dee4" stroke-width="1"/>
<text x="787.0" y="288.2" font-size="10" text-anchor="end" font-weight="normal" fill="#57606a">5</text>
<line x1="794.0" y1="234.4" x2="1305.0" y2="234.4" stroke="#d8dee4" stroke-width="1"/>
<text x="787.0" y="238.4" font-size="10" text-anchor="end" font-weight="normal" fill="#57606a">10.0</text>
<line x1="794.0" y1="184.5" x2="1305.0" y2="184.5" stroke="#d8dee4" stroke-width="1"/>
<text x="787.0" y="188.5" font-size="10" text-anchor="end" font-weight="normal" fill="#57606a">20.0</text>
<line x1="794.0" y1="135.0" x2="1305.0" y2="135.0" stroke="#d8dee4" stroke-width="1"/>
<text x="787.0" y="139.0" font-size="10" text-anchor="end" font-weight="normal" fill="#57606a">39.8</text>
<line x1="794.0" y1="135.0" x2="794.0" y2="400.0" stroke="#eaeef2" stroke-width="1"/>
<text x="794.0" y="417.0" font-size="10" text-anchor="middle" font-weight="normal" fill="#57606a">1</text>
<line x1="859.5" y1="135.0" x2="859.5" y2="400.0" stroke="#eaeef2" stroke-width="1"/>
<text x="859.5" y="417.0" font-size="10" text-anchor="middle" font-weight="normal" fill="#57606a">2</text>
<line x1="924.9" y1="135.0" x2="924.9" y2="400.0" stroke="#eaeef2" stroke-width="1"/>
<text x="924.9" y="417.0" font-size="10" text-anchor="middle" font-weight="normal" fill="#57606a">4</text>
<line x1="990.4" y1="135.0" x2="990.4" y2="400.0" stroke="#eaeef2" stroke-width="1"/>
<text x="990.4" y="417.0" font-size="10" text-anchor="middle" font-weight="normal" fill="#57606a">8</text>
<line x1="1055.8" y1="135.0" x2="1055.8" y2="400.0" stroke="#eaeef2" stroke-width="1"/>
<text x="1055.8" y="417.0" font-size="10" text-anchor="middle" font-weight="normal" fill="#57606a">16</text>
<line x1="1121.3" y1="135.0" x2="1121.3" y2="400.0" stroke="#eaeef2" stroke-width="1"/>
<text x="1121.3" y="417.0" font-size="10" text-anchor="middle" font-weight="normal" fill="#57606a">32</text>
<line x1="1186.7" y1="135.0" x2="1186.7" y2="400.0" stroke="#eaeef2" stroke-width="1"/>
<text x="1186.7" y="417.0" font-size="10" text-anchor="middle" font-weight="normal" fill="#57606a">64</text>
<line x1="1252.2" y1="135.0" x2="1252.2" y2="400.0" stroke="#eaeef2" stroke-width="1"/>
<text x="1252.2" y="417.0" font-size="10" text-anchor="middle" font-weight="normal" fill="#57606a">128</text>
<line x1="1305.0" y1="135.0" x2="1305.0" y2="400.0" stroke="#eaeef2" stroke-width="1"/>
<text x="1305.0" y="417.0" font-size="10" text-anchor="middle" font-weight="normal" fill="#57606a">224</text>
<line x1="794.0" y1="400.0" x2="1305.0" y2="400.0" stroke="#6e7781" stroke-width="1.5" stroke-dasharray="5 4"/>
<polyline points="859.5,246.8 897.7,244.2 924.9,238.1 946.0,185.6 977.7,183.6 990.4,181.9 1001.5,184.8 1020.4,182.3 1036.2,189.1 1049.7,186.2 1055.8,186.0 1061.5,279.8 1072.0,275.9 1081.5,264.0 1090.1,262.9 1097.9,261.3 1105.2,249.5 1112.0,248.2 1118.3,279.8 1121.3,163.3 1124.2,295.6 1129.7,261.1 1135.0,298.7 1139.9,289.2 1144.7,257.4 1149.2,261.3 1153.4,252.7 1157.6,254.1 1161.5,248.1 1165.3,251.2 1168.9,246.2 1172.4,238.1 1175.8,238.1 1179.0,237.8 1182.2,233.0 1185.2,245.9 1186.7,233.7 1188.2,239.1 1191.0,237.9 1193.8,235.3 1196.5,233.3 1199.1,232.0 1201.7,230.8 1204.2,229.5 1206.6,236.2 1209.0,236.6 1211.3,235.8 1213.5,237.1 1215.7,235.4 1217.8,223.8 1219.9,221.7 1222.0,223.5 1224.0,227.2 1226.0,239.0 1227.9,220.2 1229.8,225.8 1231.6,231.1 1233.5,237.3 1235.2,230.4 1237.0,231.1 1238.7,226.4 1240.4,224.7 1242.0,218.4 1243.7,226.0 1245.3,225.9 1246.8,227.1 1248.4,236.6 1249.9,227.6 1251.4,222.3 1252.2,218.2 1252.9,229.7 1254.3,227.5 1255.8,223.8 1257.2,224.0 1258.6,226.8 1259.9,225.4 1261.3,228.4 1262.6,219.6 1263.9,220.5 1265.2,223.1 1266.5,226.1 1267.8,222.9 1269.0,220.7 1270.2,223.6 1271.4,214.7 1272.6,216.6 1273.8,224.3 1275.0,223.1 1276.1,223.6 1277.3,225.2 1278.4,221.2 1279.5,214.6 1280.6,223.8 1281.7,222.7 1282.8,216.1 1283.8,218.6 1284.9,222.1 1285.9,218.8 1286.9,216.9 1288.0,220.2 1289.0,218.4 1290.0,216.7 1290.9,220.1 1291.9,224.9 1292.9,226.8 1293.8,227.3 1294.8,223.9 1295.7,225.6 1296.6,254.1 1297.5,227.7 1298.5,252.1 1299.4,223.7 1300.2,250.9 1301.1,222.5 1302.0,250.1 1302.9,222.6 1303.7,219.1 1304.6,248.9 1305.0,244.9" fill="none" stroke="#cf222e" stroke-width="2.2" stroke-linejoin="round" stroke-linecap="round"/>
<circle cx="859.5" cy="246.8" r="2.8" fill="#fff" stroke="#cf222e" stroke-width="1.6"/>
<circle cx="924.9" cy="238.1" r="2.8" fill="#fff" stroke="#cf222e" stroke-width="1.6"/>
<circle cx="990.4" cy="181.9" r="2.8" fill="#fff" stroke="#cf222e" stroke-width="1.6"/>
<circle cx="1055.8" cy="186.0" r="2.8" fill="#fff" stroke="#cf222e" stroke-width="1.6"/>
<circle cx="1121.3" cy="163.3" r="2.8" fill="#fff" stroke="#cf222e" stroke-width="1.6"/>
<circle cx="1186.7" cy="233.7" r="2.8" fill="#fff" stroke="#cf222e" stroke-width="1.6"/>
<circle cx="1252.2" cy="218.2" r="2.8" fill="#fff" stroke="#cf222e" stroke-width="1.6"/>
<circle cx="1305.0" cy="244.9" r="2.8" fill="#fff" stroke="#cf222e" stroke-width="1.6"/>
<text x="1049.5" y="436.0" font-size="11" text-anchor="middle" font-weight="normal" fill="#24292f">K (log₂ scale)</text>
<text x="743.0" y="267.5" font-size="11" text-anchor="middle" font-weight="normal" fill="#24292f" transform="rotate(-90 743.0 267.5)">speedup (×)</text>
<rect x="78.0" y="500.0" width="593.0" height="335.0" rx="6" fill="#f6f8fa" stroke="#d0d7de"/>
<text x="374.5" y="520.0" font-size="14" text-anchor="middle" font-weight="600" fill="#24292f">4 KiB</text>
<line x1="143.0" y1="795.0" x2="654.0" y2="795.0" stroke="#d8dee4" stroke-width="1"/>
<text x="136.0" y="799.0" font-size="10" text-anchor="end" font-weight="normal" fill="#57606a">1</text>
<line x1="143.0" y1="750.7" x2="654.0" y2="750.7" stroke="#d8dee4" stroke-width="1"/>
<text x="136.0" y="754.7" font-size="10" text-anchor="end" font-weight="normal" fill="#57606a">2</text>
<line x1="143.0" y1="692.1" x2="654.0" y2="692.1" stroke="#d8dee4" stroke-width="1"/>
<text x="136.0" y="696.1" font-size="10" text-anchor="end" font-weight="normal" fill="#57606a">5</text>
<line x1="143.0" y1="647.8" x2="654.0" y2="647.8" stroke="#d8dee4" stroke-width="1"/>
<text x="136.0" y="651.8" font-size="10" text-anchor="end" font-weight="normal" fill="#57606a">10.0</text>
<line x1="143.0" y1="603.5" x2="654.0" y2="603.5" stroke="#d8dee4" stroke-width="1"/>
<text x="136.0" y="607.5" font-size="10" text-anchor="end" font-weight="normal" fill="#57606a">20.0</text>
<line x1="143.0" y1="544.9" x2="654.0" y2="544.9" stroke="#d8dee4" stroke-width="1"/>
<text x="136.0" y="548.9" font-size="10" text-anchor="end" font-weight="normal" fill="#57606a">50.0</text>
<line x1="143.0" y1="530.0" x2="654.0" y2="530.0" stroke="#d8dee4" stroke-width="1"/>
<text x="136.0" y="534.0" font-size="10" text-anchor="end" font-weight="normal" fill="#57606a">63.1</text>
<line x1="143.0" y1="530.0" x2="143.0" y2="795.0" stroke="#eaeef2" stroke-width="1"/>
<text x="143.0" y="812.0" font-size="10" text-anchor="middle" font-weight="normal" fill="#57606a">1</text>
<line x1="208.5" y1="530.0" x2="208.5" y2="795.0" stroke="#eaeef2" stroke-width="1"/>
<text x="208.5" y="812.0" font-size="10" text-anchor="middle" font-weight="normal" fill="#57606a">2</text>
<line x1="273.9" y1="530.0" x2="273.9" y2="795.0" stroke="#eaeef2" stroke-width="1"/>
<text x="273.9" y="812.0" font-size="10" text-anchor="middle" font-weight="normal" fill="#57606a">4</text>
<line x1="339.4" y1="530.0" x2="339.4" y2="795.0" stroke="#eaeef2" stroke-width="1"/>
<text x="339.4" y="812.0" font-size="10" text-anchor="middle" font-weight="normal" fill="#57606a">8</text>
<line x1="404.8" y1="530.0" x2="404.8" y2="795.0" stroke="#eaeef2" stroke-width="1"/>
<text x="404.8" y="812.0" font-size="10" text-anchor="middle" font-weight="normal" fill="#57606a">16</text>
<line x1="470.3" y1="530.0" x2="470.3" y2="795.0" stroke="#eaeef2" stroke-width="1"/>
<text x="470.3" y="812.0" font-size="10" text-anchor="middle" font-weight="normal" fill="#57606a">32</text>
<line x1="535.7" y1="530.0" x2="535.7" y2="795.0" stroke="#eaeef2" stroke-width="1"/>
<text x="535.7" y="812.0" font-size="10" text-anchor="middle" font-weight="normal" fill="#57606a">64</text>
<line x1="601.2" y1="530.0" x2="601.2" y2="795.0" stroke="#eaeef2" stroke-width="1"/>
<text x="601.2" y="812.0" font-size="10" text-anchor="middle" font-weight="normal" fill="#57606a">128</text>
<line x1="654.0" y1="530.0" x2="654.0" y2="795.0" stroke="#eaeef2" stroke-width="1"/>
<text x="654.0" y="812.0" font-size="10" text-anchor="middle" font-weight="normal" fill="#57606a">224</text>
<line x1="143.0" y1="795.0" x2="654.0" y2="795.0" stroke="#6e7781" stroke-width="1.5" stroke-dasharray="5 4"/>
<polyline points="208.5,533.6 246.7,546.4 273.9,546.6 295.0,553.0 326.7,561.0 339.4,561.4 350.5,564.4 369.4,567.1 385.2,572.9 398.7,569.6 404.8,573.4 410.5,698.9 421.0,701.5 430.5,685.7 439.1,687.3 446.9,689.5 454.2,675.4 461.0,678.4 467.3,669.7 470.3,557.3 473.2,691.6 478.7,690.4 484.0,691.7 488.9,711.8 493.7,690.7 498.2,691.1 502.4,687.5 506.6,686.6 510.5,678.4 514.3,684.1 517.9,678.6 521.4,673.1 524.8,676.1 528.0,670.0 531.2,664.8 534.2,671.8 535.7,664.8 537.2,677.7 540.0,668.9 542.8,668.2 545.5,663.9 548.1,662.9 550.7,663.1 553.2,659.7 555.6,671.2 558.0,668.1 560.3,667.8 562.5,668.0 564.7,663.3 566.8,656.0 568.9,651.4 571.0,655.2 573.0,661.1 575.0,665.5 576.9,656.7 578.8,654.4 580.6,662.8 582.5,654.1 584.2,661.5 586.0,660.0 587.7,656.7 589.4,676.6 591.0,674.4 592.7,681.4 594.3,678.8 595.8,679.1 597.4,682.6 598.9,681.9 600.4,678.1 601.2,666.1 601.9,683.3 603.3,681.3 604.8,680.0 606.2,685.3 607.6,678.9 608.9,680.5 610.3,677.0 611.6,676.0 612.9,673.4 614.2,677.3 615.5,679.0 616.8,677.1 618.0,676.7 619.2,673.5 620.4,669.4 621.6,668.8 622.8,676.7 624.0,676.5 625.1,673.6 626.3,675.1 627.4,675.4 628.5,674.0 629.6,673.9 630.7,673.5 631.8,664.9 632.8,672.8 633.9,673.1 634.9,672.1 635.9,672.6 637.0,669.6 638.0,668.5 639.0,671.4 639.9,670.7 640.9,672.0 641.9,670.3 642.8,669.7 643.8,669.9 644.7,671.5 645.6,671.0 646.5,670.2 647.5,669.0 648.4,669.7 649.2,667.6 650.1,665.6 651.0,666.5 651.9,668.4 652.7,663.7 653.6,668.1 654.0,663.2" fill="none" stroke="#cf222e" stroke-width="2.2" stroke-linejoin="round" stroke-linecap="round"/>
<circle cx="208.5" cy="533.6" r="2.8" fill="#fff" stroke="#cf222e" stroke-width="1.6"/>
<circle cx="273.9" cy="546.6" r="2.8" fill="#fff" stroke="#cf222e" stroke-width="1.6"/>
<circle cx="339.4" cy="561.4" r="2.8" fill="#fff" stroke="#cf222e" stroke-width="1.6"/>
<circle cx="404.8" cy="573.4" r="2.8" fill="#fff" stroke="#cf222e" stroke-width="1.6"/>
<circle cx="470.3" cy="557.3" r="2.8" fill="#fff" stroke="#cf222e" stroke-width="1.6"/>
<circle cx="535.7" cy="664.8" r="2.8" fill="#fff" stroke="#cf222e" stroke-width="1.6"/>
<circle cx="601.2" cy="666.1" r="2.8" fill="#fff" stroke="#cf222e" stroke-width="1.6"/>
<circle cx="654.0" cy="663.2" r="2.8" fill="#fff" stroke="#cf222e" stroke-width="1.6"/>
<text x="398.5" y="831.0" font-size="11" text-anchor="middle" font-weight="normal" fill="#24292f">K (log₂ scale)</text>
<text x="92.0" y="662.5" font-size="11" text-anchor="middle" font-weight="normal" fill="#24292f" transform="rotate(-90 92.0 662.5)">speedup (×)</text>
<rect x="729.0" y="500.0" width="593.0" height="335.0" rx="6" fill="#f6f8fa" stroke="#d0d7de"/>
<text x="1025.5" y="520.0" font-size="14" text-anchor="middle" font-weight="600" fill="#24292f">1 MiB</text>
<line x1="794.0" y1="795.0" x2="1305.0" y2="795.0" stroke="#d8dee4" stroke-width="1"/>
<text x="787.0" y="799.0" font-size="10" text-anchor="end" font-weight="normal" fill="#57606a">1</text>
<line x1="794.0" y1="750.7" x2="1305.0" y2="750.7" stroke="#d8dee4" stroke-width="1"/>
<text x="787.0" y="754.7" font-size="10" text-anchor="end" font-weight="normal" fill="#57606a">2</text>
<line x1="794.0" y1="692.1" x2="1305.0" y2="692.1" stroke="#d8dee4" stroke-width="1"/>
<text x="787.0" y="696.1" font-size="10" text-anchor="end" font-weight="normal" fill="#57606a">5</text>
<line x1="794.0" y1="647.8" x2="1305.0" y2="647.8" stroke="#d8dee4" stroke-width="1"/>
<text x="787.0" y="651.8" font-size="10" text-anchor="end" font-weight="normal" fill="#57606a">10.0</text>
<line x1="794.0" y1="603.5" x2="1305.0" y2="603.5" stroke="#d8dee4" stroke-width="1"/>
<text x="787.0" y="607.5" font-size="10" text-anchor="end" font-weight="normal" fill="#57606a">20.0</text>
<line x1="794.0" y1="544.9" x2="1305.0" y2="544.9" stroke="#d8dee4" stroke-width="1"/>
<text x="787.0" y="548.9" font-size="10" text-anchor="end" font-weight="normal" fill="#57606a">50.0</text>
<line x1="794.0" y1="530.0" x2="1305.0" y2="530.0" stroke="#d8dee4" stroke-width="1"/>
<text x="787.0" y="534.0" font-size="10" text-anchor="end" font-weight="normal" fill="#57606a">63.1</text>
<line x1="794.0" y1="530.0" x2="794.0" y2="795.0" stroke="#eaeef2" stroke-width="1"/>
<text x="794.0" y="812.0" font-size="10" text-anchor="middle" font-weight="normal" fill="#57606a">1</text>
<line x1="859.5" y1="530.0" x2="859.5" y2="795.0" stroke="#eaeef2" stroke-width="1"/>
<text x="859.5" y="812.0" font-size="10" text-anchor="middle" font-weight="normal" fill="#57606a">2</text>
<line x1="924.9" y1="530.0" x2="924.9" y2="795.0" stroke="#eaeef2" stroke-width="1"/>
<text x="924.9" y="812.0" font-size="10" text-anchor="middle" font-weight="normal" fill="#57606a">4</text>
<line x1="990.4" y1="530.0" x2="990.4" y2="795.0" stroke="#eaeef2" stroke-width="1"/>
<text x="990.4" y="812.0" font-size="10" text-anchor="middle" font-weight="normal" fill="#57606a">8</text>
<line x1="1055.8" y1="530.0" x2="1055.8" y2="795.0" stroke="#eaeef2" stroke-width="1"/>
<text x="1055.8" y="812.0" font-size="10" text-anchor="middle" font-weight="normal" fill="#57606a">16</text>
<line x1="1121.3" y1="530.0" x2="1121.3" y2="795.0" stroke="#eaeef2" stroke-width="1"/>
<text x="1121.3" y="812.0" font-size="10" text-anchor="middle" font-weight="normal" fill="#57606a">32</text>
<line x1="1186.7" y1="530.0" x2="1186.7" y2="795.0" stroke="#eaeef2" stroke-width="1"/>
<text x="1186.7" y="812.0" font-size="10" text-anchor="middle" font-weight="normal" fill="#57606a">64</text>
<line x1="1252.2" y1="530.0" x2="1252.2" y2="795.0" stroke="#eaeef2" stroke-width="1"/>
<text x="1252.2" y="812.0" font-size="10" text-anchor="middle" font-weight="normal" fill="#57606a">128</text>
<line x1="1305.0" y1="530.0" x2="1305.0" y2="795.0" stroke="#eaeef2" stroke-width="1"/>
<text x="1305.0" y="812.0" font-size="10" text-anchor="middle" font-weight="normal" fill="#57606a">224</text>
<line x1="794.0" y1="795.0" x2="1305.0" y2="795.0" stroke="#6e7781" stroke-width="1.5" stroke-dasharray="5 4"/>
<polyline points="859.5,570.9 897.7,571.7 924.9,577.4 946.0,575.3 977.7,574.9 990.4,574.5 1001.5,573.9 1020.4,570.0 1036.2,569.5 1049.7,548.9 1055.8,552.6 1061.5,735.8 1072.0,739.3 1081.5,720.3 1090.1,721.0 1097.9,719.7 1105.2,704.8 1112.0,703.6 1118.3,697.4 1121.3,570.4 1124.2,664.4 1129.7,669.6 1135.0,665.3 1139.9,657.7 1144.7,667.8 1149.2,668.2 1153.4,663.1 1157.6,664.3 1161.5,663.0 1165.3,661.3 1168.9,655.2 1172.4,651.9 1175.8,653.0 1179.0,652.5 1182.2,646.7 1185.2,650.2 1186.7,649.3 1188.2,653.6 1191.0,648.7 1193.8,647.7 1196.5,645.0 1199.1,644.6 1201.7,643.5 1204.2,641.9 1206.6,651.4 1209.0,645.0 1211.3,646.7 1213.5,648.3 1215.7,645.7 1217.8,639.6 1219.9,639.7 1222.0,639.3 1224.0,641.3 1226.0,649.6 1227.9,641.7 1229.8,639.4 1231.6,647.4 1233.5,645.7 1235.2,645.9 1237.0,644.0 1238.7,648.3 1240.4,641.9 1242.0,634.8 1243.7,640.2 1245.3,635.7 1246.8,645.2 1248.4,640.1 1249.9,643.9 1251.4,634.3 1252.2,630.7 1252.9,643.9 1254.3,639.5 1255.8,639.9 1257.2,639.1 1258.6,638.7 1259.9,641.6 1261.3,639.5 1262.6,636.2 1263.9,637.5 1265.2,636.8 1266.5,639.2 1267.8,639.2 1269.0,638.5 1270.2,635.4 1271.4,635.1 1272.6,634.6 1273.8,639.0 1275.0,638.9 1276.1,636.2 1277.3,638.0 1278.4,640.2 1279.5,637.1 1280.6,637.8 1281.7,638.9 1282.8,634.7 1283.8,636.9 1284.9,636.8 1285.9,641.4 1286.9,635.7 1288.0,633.1 1289.0,634.5 1290.0,635.1 1290.9,634.8 1291.9,638.4 1292.9,635.7 1293.8,634.0 1294.8,635.1 1295.7,636.7 1296.6,636.4 1297.5,636.4 1298.5,634.4 1299.4,639.7 1300.2,633.3 1301.1,634.3 1302.0,635.5 1302.9,635.5 1303.7,636.6 1304.6,634.4 1305.0,630.5" fill="none" stroke="#cf222e" stroke-width="2.2" stroke-linejoin="round" stroke-linecap="round"/>
<circle cx="859.5" cy="570.9" r="2.8" fill="#fff" stroke="#cf222e" stroke-width="1.6"/>
<circle cx="924.9" cy="577.4" r="2.8" fill="#fff" stroke="#cf222e" stroke-width="1.6"/>
<circle cx="990.4" cy="574.5" r="2.8" fill="#fff" stroke="#cf222e" stroke-width="1.6"/>
<circle cx="1055.8" cy="552.6" r="2.8" fill="#fff" stroke="#cf222e" stroke-width="1.6"/>
<circle cx="1121.3" cy="570.4" r="2.8" fill="#fff" stroke="#cf222e" stroke-width="1.6"/>
<circle cx="1186.7" cy="649.3" r="2.8" fill="#fff" stroke="#cf222e" stroke-width="1.6"/>
<circle cx="1252.2" cy="630.7" r="2.8" fill="#fff" stroke="#cf222e" stroke-width="1.6"/>
<circle cx="1305.0" cy="630.5" r="2.8" fill="#fff" stroke="#cf222e" stroke-width="1.6"/>
<text x="1049.5" y="831.0" font-size="11" text-anchor="middle" font-weight="normal" fill="#24292f">K (log₂ scale)</text>
<text x="743.0" y="662.5" font-size="11" text-anchor="middle" font-weight="normal" fill="#24292f" transform="rotate(-90 743.0 662.5)">speedup (×)</text>
<text x="700.0" y="884.0" font-size="11" text-anchor="middle" font-weight="normal" fill="#57606a">Lines include every odd K; hollow markers identify powers of two and K=224. Missing codec cells are not connected.</text>
</svg>
