<svg xmlns="http://www.w3.org/2000/svg" width="1400" height="900" viewBox="0 0 1400 900">
<rect width="100%" height="100%" fill="#ffffff"/>
<style>text { font-family: -apple-system,BlinkMacSystemFont,"Segoe UI",sans-serif; }</style>
<text x="700.0" y="35.0" font-size="23" text-anchor="middle" font-weight="600" fill="#24292f">Leopard2 decode speedup over Wirehair: 10% random source erasures</text>
<text x="700.0" y="61.0" font-size="13" text-anchor="middle" font-weight="normal" fill="#57606a">R=32; every odd K plus powers of two through K=224; pinned single core; setup included; values above 1 are faster</text>
<line x1="627.5" y1="82" x2="655.5" y2="82" stroke="#cf222e" stroke-width="3"/>
<text x="662.5" y="86.0" font-size="12" text-anchor="start" font-weight="normal" fill="#24292f">Leopard2</text>
<rect x="78.0" y="105.0" width="593.0" height="335.0" rx="6" fill="#f6f8fa" stroke="#d0d7de"/>
<text x="374.5" y="125.0" font-size="14" text-anchor="middle" font-weight="600" fill="#24292f">64 B</text>
<line x1="143.0" y1="400.0" x2="654.0" y2="400.0" stroke="#d8dee4" stroke-width="1"/>
<text x="136.0" y="404.0" font-size="10" text-anchor="end" font-weight="normal" fill="#57606a">1</text>
<line x1="143.0" y1="333.5" x2="654.0" y2="333.5" stroke="#d8dee4" stroke-width="1"/>
<text x="136.0" y="337.5" font-size="10" text-anchor="end" font-weight="normal" fill="#57606a">2</text>
<line x1="143.0" y1="245.6" x2="654.0" y2="245.6" stroke="#d8dee4" stroke-width="1"/>
<text x="136.0" y="249.6" font-size="10" text-anchor="end" font-weight="normal" fill="#57606a">5</text>
<line x1="143.0" y1="179.2" x2="654.0" y2="179.2" stroke="#d8dee4" stroke-width="1"/>
<text x="136.0" y="183.2" font-size="10" text-anchor="end" font-weight="normal" fill="#57606a">10.0</text>
<line x1="143.0" y1="135.0" x2="654.0" y2="135.0" stroke="#d8dee4" stroke-width="1"/>
<text x="136.0" y="139.0" font-size="10" text-anchor="end" font-weight="normal" fill="#57606a">15.8</text>
<line x1="143.0" y1="135.0" x2="143.0" y2="400.0" stroke="#eaeef2" stroke-width="1"/>
<text x="143.0" y="417.0" font-size="10" text-anchor="middle" font-weight="normal" fill="#57606a">1</text>
<line x1="208.5" y1="135.0" x2="208.5" y2="400.0" stroke="#eaeef2" stroke-width="1"/>
<text x="208.5" y="417.0" font-size="10" text-anchor="middle" font-weight="normal" fill="#57606a">2</text>
<line x1="273.9" y1="135.0" x2="273.9" y2="400.0" stroke="#eaeef2" stroke-width="1"/>
<text x="273.9" y="417.0" font-size="10" text-anchor="middle" font-weight="normal" fill="#57606a">4</text>
<line x1="339.4" y1="135.0" x2="339.4" y2="400.0" stroke="#eaeef2" stroke-width="1"/>
<text x="339.4" y="417.0" font-size="10" text-anchor="middle" font-weight="normal" fill="#57606a">8</text>
<line x1="404.8" y1="135.0" x2="404.8" y2="400.0" stroke="#eaeef2" stroke-width="1"/>
<text x="404.8" y="417.0" font-size="10" text-anchor="middle" font-weight="normal" fill="#57606a">16</text>
<line x1="470.3" y1="135.0" x2="470.3" y2="400.0" stroke="#eaeef2" stroke-width="1"/>
<text x="470.3" y="417.0" font-size="10" text-anchor="middle" font-weight="normal" fill="#57606a">32</text>
<line x1="535.7" y1="135.0" x2="535.7" y2="400.0" stroke="#eaeef2" stroke-width="1"/>
<text x="535.7" y="417.0" font-size="10" text-anchor="middle" font-weight="normal" fill="#57606a">64</text>
<line x1="601.2" y1="135.0" x2="601.2" y2="400.0" stroke="#eaeef2" stroke-width="1"/>
<text x="601.2" y="417.0" font-size="10" text-anchor="middle" font-weight="normal" fill="#57606a">128</text>
<line x1="654.0" y1="135.0" x2="654.0" y2="400.0" stroke="#eaeef2" stroke-width="1"/>
<text x="654.0" y="417.0" font-size="10" text-anchor="middle" font-weight="normal" fill="#57606a">224</text>
<line x1="143.0" y1="400.0" x2="654.0" y2="400.0" stroke="#6e7781" stroke-width="1.5" stroke-dasharray="5 4"/>
<polyline points="208.5,217.3 246.7,215.4 273.9,212.7 295.0,220.3 326.7,195.4 339.4,195.4 350.5,193.3 369.4,238.5 385.2,238.4 398.7,232.7 404.8,233.9 410.5,277.7 421.0,280.6 430.5,271.7 439.1,268.2 446.9,274.5 454.2,257.7 461.0,258.5 467.3,249.8 470.3,177.7 473.2,241.5 478.7,254.3 484.0,241.3 488.9,234.4 493.7,244.1 498.2,246.7 502.4,238.1 506.6,238.5 510.5,236.3 514.3,237.2 517.9,222.8 521.4,224.1 524.8,229.1 528.0,232.1 531.2,220.2 534.2,219.3 535.7,226.6 537.2,221.8 540.0,218.9 542.8,219.0 545.5,218.1 548.1,229.0 550.7,217.1 553.2,208.2 555.6,218.2 558.0,213.4 560.3,207.5 562.5,209.4 564.7,211.6 566.8,205.4 568.9,213.3 571.0,202.8 573.0,198.0 575.0,222.2 576.9,208.6 578.8,215.8 580.6,220.8 582.5,216.9 584.2,222.6 586.0,208.9 587.7,191.1 589.4,207.8 591.0,202.1 592.7,214.3 594.3,183.1 595.8,187.7 597.4,184.0 598.9,187.2 600.4,178.5 601.2,182.6 601.9,192.8 603.3,186.8 604.8,190.5 606.2,183.1 607.6,181.7 608.9,185.8 610.3,184.8 611.6,182.2 612.9,183.4 614.2,186.0 615.5,183.9 616.8,197.8 618.0,179.2 619.2,178.7 620.4,180.2 621.6,179.9 622.8,187.1 624.0,183.2 625.1,181.5 626.3,182.4 627.4,179.2 628.5,181.5 629.6,187.1 630.7,183.2 631.8,192.1 632.8,188.1 633.9,189.4 634.9,187.0 635.9,182.4 637.0,179.7 638.0,184.5 639.0,182.3 639.9,182.1 640.9,188.8 641.9,181.7 642.8,179.4 643.8,181.7 644.7,186.2 645.6,189.9 646.5,181.6 647.5,180.7 648.4,180.1 649.2,182.0 650.1,180.5 651.0,181.0 651.9,178.4 652.7,182.8 653.6,181.9 654.0,176.2" fill="none" stroke="#cf222e" stroke-width="2.2" stroke-linejoin="round" stroke-linecap="round"/>
<circle cx="208.5" cy="217.3" r="2.8" fill="#fff" stroke="#cf222e" stroke-width="1.6"/>
<circle cx="273.9" cy="212.7" r="2.8" fill="#fff" stroke="#cf222e" stroke-width="1.6"/>
<circle cx="339.4" cy="195.4" r="2.8" fill="#fff" stroke="#cf222e" stroke-width="1.6"/>
<circle cx="404.8" cy="233.9" r="2.8" fill="#fff" stroke="#cf222e" stroke-width="1.6"/>
<circle cx="470.3" cy="177.7" r="2.8" fill="#fff" stroke="#cf222e" stroke-width="1.6"/>
<circle cx="535.7" cy="226.6" r="2.8" fill="#fff" stroke="#cf222e" stroke-width="1.6"/>
<circle cx="601.2" cy="182.6" r="2.8" fill="#fff" stroke="#cf222e" stroke-width="1.6"/>
<circle cx="654.0" cy="176.2" r="2.8" fill="#fff" stroke="#cf222e" stroke-width="1.6"/>
<text x="398.5" y="436.0" font-size="11" text-anchor="middle" font-weight="normal" fill="#24292f">K (log₂ scale)</text>
<text x="92.0" y="267.5" font-size="11" text-anchor="middle" font-weight="normal" fill="#24292f" transform="rotate(-90 92.0 267.5)">speedup (×)</text>
<rect x="729.0" y="105.0" width="593.0" height="335.0" rx="6" fill="#f6f8fa" stroke="#d0d7de"/>
<text x="1025.5" y="125.0" font-size="14" text-anchor="middle" font-weight="600" fill="#24292f">1 KiB</text>
<line x1="794.0" y1="400.0" x2="1305.0" y2="400.0" stroke="#d8dee4" stroke-width="1"/>
<text x="787.0" y="404.0" font-size="10" text-anchor="end" font-weight="normal" fill="#57606a">1</text>
<line x1="794.0" y1="350.1" x2="1305.0" y2="350.1" stroke="#d8dee4" stroke-width="1"/>
<text x="787.0" y="354.1" font-size="10" text-anchor="end" font-weight="normal" fill="#57606a">2</text>
<line x1="794.0" y1="284.2" x2="1305.0" y2="284.2" stroke="#d8dee4" stroke-width="1"/>
<text x="787.0" y="288.2" font-size="10" text-anchor="end" font-weight="normal" fill="#57606a">5</text>
<line x1="794.0" y1="234.4" x2="1305.0" y2="234.4" stroke="#d8dee4" stroke-width="1"/>
<text x="787.0" y="238.4" font-size="10" text-anchor="end" font-weight="normal" fill="#57606a">10.0</text>
<line x1="794.0" y1="184.5" x2="1305.0" y2="184.5" stroke="#d8dee4" stroke-width="1"/>
<text x="787.0" y="188.5" font-size="10" text-anchor="end" font-weight="normal" fill="#57606a">20.0</text>
<line x1="794.0" y1="135.0" x2="1305.0" y2="135.0" stroke="#d8dee4" stroke-width="1"/>
<text x="787.0" y="139.0" font-size="10" text-anchor="end" font-weight="normal" fill="#57606a">39.8</text>
<line x1="794.0" y1="135.0" x2="794.0" y2="400.0" stroke="#eaeef2" stroke-width="1"/>
<text x="794.0" y="417.0" font-size="10" text-anchor="middle" font-weight="normal" fill="#57606a">1</text>
<line x1="859.5" y1="135.0" x2="859.5" y2="400.0" stroke="#eaeef2" stroke-width="1"/>
<text x="859.5" y="417.0" font-size="10" text-anchor="middle" font-weight="normal" fill="#57606a">2</text>
<line x1="924.9" y1="135.0" x2="924.9" y2="400.0" stroke="#eaeef2" stroke-width="1"/>
<text x="924.9" y="417.0" font-size="10" text-anchor="middle" font-weight="normal" fill="#57606a">4</text>
<line x1="990.4" y1="135.0" x2="990.4" y2="400.0" stroke="#eaeef2" stroke-width="1"/>
<text x="990.4" y="417.0" font-size="10" text-anchor="middle" font-weight="normal" fill="#57606a">8</text>
<line x1="1055.8" y1="135.0" x2="1055.8" y2="400.0" stroke="#eaeef2" stroke-width="1"/>
<text x="1055.8" y="417.0" font-size="10" text-anchor="middle" font-weight="normal" fill="#57606a">16</text>
<line x1="1121.3" y1="135.0" x2="1121.3" y2="400.0" stroke="#eaeef2" stroke-width="1"/>
<text x="1121.3" y="417.0" font-size="10" text-anchor="middle" font-weight="normal" fill="#57606a">32</text>
<line x1="1186.7" y1="135.0" x2="1186.7" y2="400.0" stroke="#eaeef2" stroke-width="1"/>
<text x="1186.7" y="417.0" font-size="10" text-anchor="middle" font-weight="normal" fill="#57606a">64</text>
<line x1="1252.2" y1="135.0" x2="1252.2" y2="400.0" stroke="#eaeef2" stroke-width="1"/>
<text x="1252.2" y="417.0" font-size="10" text-anchor="middle" font-weight="normal" fill="#57606a">128</text>
<line x1="1305.0" y1="135.0" x2="1305.0" y2="400.0" stroke="#eaeef2" stroke-width="1"/>
<text x="1305.0" y="417.0" font-size="10" text-anchor="middle" font-weight="normal" fill="#57606a">224</text>
<line x1="794.0" y1="400.0" x2="1305.0" y2="400.0" stroke="#6e7781" stroke-width="1.5" stroke-dasharray="5 4"/>
<polyline points="859.5,222.7 897.7,212.8 924.9,209.8 946.0,144.5 977.7,147.2 990.4,142.0 1001.5,143.2 1020.4,182.3 1036.2,189.1 1049.7,186.2 1055.8,186.0 1061.5,279.8 1072.0,275.9 1081.5,268.5 1090.1,267.2 1097.9,264.2 1105.2,255.5 1112.0,250.9 1118.3,284.1 1121.3,198.7 1124.2,297.1 1129.7,265.9 1135.0,294.4 1139.9,290.9 1144.7,264.8 1149.2,264.4 1153.4,258.0 1157.6,259.4 1161.5,258.6 1165.3,257.4 1168.9,251.4 1172.4,253.1 1175.8,256.2 1179.0,256.6 1182.2,252.0 1185.2,247.4 1186.7,250.4 1188.2,251.6 1191.0,249.3 1193.8,246.8 1196.5,252.9 1199.1,253.5 1201.7,244.0 1204.2,243.3 1206.6,249.5 1209.0,251.6 1211.3,244.4 1213.5,243.9 1215.7,248.1 1217.8,246.9 1219.9,248.5 1222.0,245.3 1224.0,242.8 1226.0,254.9 1227.9,243.9 1229.8,248.8 1231.6,252.8 1233.5,249.6 1235.2,253.1 1237.0,245.9 1238.7,247.8 1240.4,248.8 1242.0,245.1 1243.7,250.7 1245.3,245.2 1246.8,247.5 1248.4,246.2 1249.9,247.7 1251.4,244.0 1252.2,245.2 1252.9,251.5 1254.3,248.7 1255.8,249.1 1257.2,245.5 1258.6,247.4 1259.9,248.4 1261.3,249.4 1262.6,248.7 1263.9,258.2 1265.2,250.5 1266.5,247.4 1267.8,248.4 1269.0,247.6 1270.2,247.5 1271.4,247.4 1272.6,248.9 1273.8,251.1 1275.0,247.5 1276.1,248.1 1277.3,248.8 1278.4,245.1 1279.5,248.4 1280.6,250.0 1281.7,249.7 1282.8,249.1 1283.8,248.1 1284.9,248.6 1285.9,248.5 1286.9,246.5 1288.0,249.0 1289.0,250.2 1290.0,251.4 1290.9,251.7 1291.9,252.5 1292.9,248.8 1293.8,248.3 1294.8,251.3 1295.7,252.0 1296.6,255.2 1297.5,250.9 1298.5,250.7 1299.4,249.4 1300.2,278.7 1301.1,251.6 1302.0,279.5 1302.9,250.0 1303.7,251.2 1304.6,280.7 1305.0,249.3" fill="none" stroke="#cf222e" stroke-width="2.2" stroke-linejoin="round" stroke-linecap="round"/>
<circle cx="859.5" cy="222.7" r="2.8" fill="#fff" stroke="#cf222e" stroke-width="1.6"/>
<circle cx="924.9" cy="209.8" r="2.8" fill="#fff" stroke="#cf222e" stroke-width="1.6"/>
<circle cx="990.4" cy="142.0" r="2.8" fill="#fff" stroke="#cf222e" stroke-width="1.6"/>
<circle cx="1055.8" cy="186.0" r="2.8" fill="#fff" stroke="#cf222e" stroke-width="1.6"/>
<circle cx="1121.3" cy="198.7" r="2.8" fill="#fff" stroke="#cf222e" stroke-width="1.6"/>
<circle cx="1186.7" cy="250.4" r="2.8" fill="#fff" stroke="#cf222e" stroke-width="1.6"/>
<circle cx="1252.2" cy="245.2" r="2.8" fill="#fff" stroke="#cf222e" stroke-width="1.6"/>
<circle cx="1305.0" cy="249.3" r="2.8" fill="#fff" stroke="#cf222e" stroke-width="1.6"/>
<text x="1049.5" y="436.0" font-size="11" text-anchor="middle" font-weight="normal" fill="#24292f">K (log₂ scale)</text>
<text x="743.0" y="267.5" font-size="11" text-anchor="middle" font-weight="normal" fill="#24292f" transform="rotate(-90 743.0 267.5)">speedup (×)</text>
<rect x="78.0" y="500.0" width="593.0" height="335.0" rx="6" fill="#f6f8fa" stroke="#d0d7de"/>
<text x="374.5" y="520.0" font-size="14" text-anchor="middle" font-weight="600" fill="#24292f">4 KiB</text>
<line x1="143.0" y1="795.0" x2="654.0" y2="795.0" stroke="#d8dee4" stroke-width="1"/>
<text x="136.0" y="799.0" font-size="10" text-anchor="end" font-weight="normal" fill="#57606a">1</text>
<line x1="143.0" y1="755.1" x2="654.0" y2="755.1" stroke="#d8dee4" stroke-width="1"/>
<text x="136.0" y="759.1" font-size="10" text-anchor="end" font-weight="normal" fill="#57606a">2</text>
<line x1="143.0" y1="702.4" x2="654.0" y2="702.4" stroke="#d8dee4" stroke-width="1"/>
<text x="136.0" y="706.4" font-size="10" text-anchor="end" font-weight="normal" fill="#57606a">5</text>
<line x1="143.0" y1="662.5" x2="654.0" y2="662.5" stroke="#d8dee4" stroke-width="1"/>
<text x="136.0" y="666.5" font-size="10" text-anchor="end" font-weight="normal" fill="#57606a">10.0</text>
<line x1="143.0" y1="622.6" x2="654.0" y2="622.6" stroke="#d8dee4" stroke-width="1"/>
<text x="136.0" y="626.6" font-size="10" text-anchor="end" font-weight="normal" fill="#57606a">20.0</text>
<line x1="143.0" y1="569.9" x2="654.0" y2="569.9" stroke="#d8dee4" stroke-width="1"/>
<text x="136.0" y="573.9" font-size="10" text-anchor="end" font-weight="normal" fill="#57606a">50.0</text>
<line x1="143.0" y1="530.0" x2="654.0" y2="530.0" stroke="#d8dee4" stroke-width="1"/>
<text x="136.0" y="534.0" font-size="10" text-anchor="end" font-weight="normal" fill="#57606a">100</text>
<line x1="143.0" y1="530.0" x2="143.0" y2="795.0" stroke="#eaeef2" stroke-width="1"/>
<text x="143.0" y="812.0" font-size="10" text-anchor="middle" font-weight="normal" fill="#57606a">1</text>
<line x1="208.5" y1="530.0" x2="208.5" y2="795.0" stroke="#eaeef2" stroke-width="1"/>
<text x="208.5" y="812.0" font-size="10" text-anchor="middle" font-weight="normal" fill="#57606a">2</text>
<line x1="273.9" y1="530.0" x2="273.9" y2="795.0" stroke="#eaeef2" stroke-width="1"/>
<text x="273.9" y="812.0" font-size="10" text-anchor="middle" font-weight="normal" fill="#57606a">4</text>
<line x1="339.4" y1="530.0" x2="339.4" y2="795.0" stroke="#eaeef2" stroke-width="1"/>
<text x="339.4" y="812.0" font-size="10" text-anchor="middle" font-weight="normal" fill="#57606a">8</text>
<line x1="404.8" y1="530.0" x2="404.8" y2="795.0" stroke="#eaeef2" stroke-width="1"/>
<text x="404.8" y="812.0" font-size="10" text-anchor="middle" font-weight="normal" fill="#57606a">16</text>
<line x1="470.3" y1="530.0" x2="470.3" y2="795.0" stroke="#eaeef2" stroke-width="1"/>
<text x="470.3" y="812.0" font-size="10" text-anchor="middle" font-weight="normal" fill="#57606a">32</text>
<line x1="535.7" y1="530.0" x2="535.7" y2="795.0" stroke="#eaeef2" stroke-width="1"/>
<text x="535.7" y="812.0" font-size="10" text-anchor="middle" font-weight="normal" fill="#57606a">64</text>
<line x1="601.2" y1="530.0" x2="601.2" y2="795.0" stroke="#eaeef2" stroke-width="1"/>
<text x="601.2" y="812.0" font-size="10" text-anchor="middle" font-weight="normal" fill="#57606a">128</text>
<line x1="654.0" y1="530.0" x2="654.0" y2="795.0" stroke="#eaeef2" stroke-width="1"/>
<text x="654.0" y="812.0" font-size="10" text-anchor="middle" font-weight="normal" fill="#57606a">224</text>
<line x1="143.0" y1="795.0" x2="654.0" y2="795.0" stroke="#6e7781" stroke-width="1.5" stroke-dasharray="5 4"/>
<polyline points="208.5,530.5 246.7,539.9 273.9,542.9 295.0,544.2 326.7,548.9 339.4,551.0 350.5,554.2 369.4,589.9 385.2,595.1 398.7,592.2 404.8,595.5 410.5,708.5 421.0,710.8 430.5,699.9 439.1,704.0 446.9,699.6 454.2,693.7 461.0,692.7 467.3,688.6 470.3,621.0 473.2,701.8 478.7,707.7 484.0,700.6 488.9,720.4 493.7,705.3 498.2,705.9 502.4,700.8 506.6,702.4 510.5,701.7 514.3,700.9 517.9,695.6 521.4,697.7 524.8,696.8 528.0,696.9 531.2,693.0 534.2,691.1 535.7,691.8 537.2,692.2 540.0,692.6 542.8,692.0 545.5,694.8 548.1,694.3 550.7,694.0 553.2,688.5 555.6,692.7 558.0,692.7 560.3,688.6 562.5,687.8 564.7,690.8 566.8,689.0 568.9,690.3 571.0,686.7 573.0,684.7 575.0,693.4 576.9,683.7 578.8,688.7 580.6,693.9 582.5,691.6 584.2,692.7 586.0,689.6 587.7,689.7 589.4,712.5 591.0,709.2 592.7,714.9 594.3,709.0 595.8,711.2 597.4,710.6 598.9,711.0 600.4,706.9 601.2,709.3 601.9,713.9 603.3,711.8 604.8,711.6 606.2,709.9 607.6,709.3 608.9,712.6 610.3,712.5 611.6,714.4 612.9,716.2 614.2,711.3 615.5,710.1 616.8,711.0 618.0,709.6 619.2,707.7 620.4,708.8 621.6,708.8 622.8,712.7 624.0,712.4 625.1,711.3 626.3,711.3 627.4,708.3 628.5,711.7 629.6,712.4 630.7,711.8 631.8,711.1 632.8,708.9 633.9,710.7 634.9,710.5 635.9,707.0 637.0,707.5 638.0,713.4 639.0,709.3 639.9,711.2 640.9,709.3 641.9,709.2 642.8,707.0 643.8,709.4 644.7,711.1 645.6,712.1 646.5,709.5 647.5,709.3 648.4,707.7 649.2,707.6 650.1,714.0 651.0,709.0 651.9,709.5 652.7,709.7 653.6,709.1 654.0,707.3" fill="none" stroke="#cf222e" stroke-width="2.2" stroke-linejoin="round" stroke-linecap="round"/>
<circle cx="208.5" cy="530.5" r="2.8" fill="#fff" stroke="#cf222e" stroke-width="1.6"/>
<circle cx="273.9" cy="542.9" r="2.8" fill="#fff" stroke="#cf222e" stroke-width="1.6"/>
<circle cx="339.4" cy="551.0" r="2.8" fill="#fff" stroke="#cf222e" stroke-width="1.6"/>
<circle cx="404.8" cy="595.5" r="2.8" fill="#fff" stroke="#cf222e" stroke-width="1.6"/>
<circle cx="470.3" cy="621.0" r="2.8" fill="#fff" stroke="#cf222e" stroke-width="1.6"/>
<circle cx="535.7" cy="691.8" r="2.8" fill="#fff" stroke="#cf222e" stroke-width="1.6"/>
<circle cx="601.2" cy="709.3" r="2.8" fill="#fff" stroke="#cf222e" stroke-width="1.6"/>
<circle cx="654.0" cy="707.3" r="2.8" fill="#fff" stroke="#cf222e" stroke-width="1.6"/>
<text x="398.5" y="831.0" font-size="11" text-anchor="middle" font-weight="normal" fill="#24292f">K (log₂ scale)</text>
<text x="92.0" y="662.5" font-size="11" text-anchor="middle" font-weight="normal" fill="#24292f" transform="rotate(-90 92.0 662.5)">speedup (×)</text>
<rect x="729.0" y="500.0" width="593.0" height="335.0" rx="6" fill="#f6f8fa" stroke="#d0d7de"/>
<text x="1025.5" y="520.0" font-size="14" text-anchor="middle" font-weight="600" fill="#24292f">1 MiB</text>
<line x1="794.0" y1="795.0" x2="1305.0" y2="795.0" stroke="#d8dee4" stroke-width="1"/>
<text x="787.0" y="799.0" font-size="10" text-anchor="end" font-weight="normal" fill="#57606a">1</text>
<line x1="794.0" y1="755.1" x2="1305.0" y2="755.1" stroke="#d8dee4" stroke-width="1"/>
<text x="787.0" y="759.1" font-size="10" text-anchor="end" font-weight="normal" fill="#57606a">2</text>
<line x1="794.0" y1="702.4" x2="1305.0" y2="702.4" stroke="#d8dee4" stroke-width="1"/>
<text x="787.0" y="706.4" font-size="10" text-anchor="end" font-weight="normal" fill="#57606a">5</text>
<line x1="794.0" y1="662.5" x2="1305.0" y2="662.5" stroke="#d8dee4" stroke-width="1"/>
<text x="787.0" y="666.5" font-size="10" text-anchor="end" font-weight="normal" fill="#57606a">10.0</text>
<line x1="794.0" y1="622.6" x2="1305.0" y2="622.6" stroke="#d8dee4" stroke-width="1"/>
<text x="787.0" y="626.6" font-size="10" text-anchor="end" font-weight="normal" fill="#57606a">20.0</text>
<line x1="794.0" y1="569.9" x2="1305.0" y2="569.9" stroke="#d8dee4" stroke-width="1"/>
<text x="787.0" y="573.9" font-size="10" text-anchor="end" font-weight="normal" fill="#57606a">50.0</text>
<line x1="794.0" y1="530.0" x2="1305.0" y2="530.0" stroke="#d8dee4" stroke-width="1"/>
<text x="787.0" y="534.0" font-size="10" text-anchor="end" font-weight="normal" fill="#57606a">100</text>
<line x1="794.0" y1="530.0" x2="794.0" y2="795.0" stroke="#eaeef2" stroke-width="1"/>
<text x="794.0" y="812.0" font-size="10" text-anchor="middle" font-weight="normal" fill="#57606a">1</text>
<line x1="859.5" y1="530.0" x2="859.5" y2="795.0" stroke="#eaeef2" stroke-width="1"/>
<text x="859.5" y="812.0" font-size="10" text-anchor="middle" font-weight="normal" fill="#57606a">2</text>
<line x1="924.9" y1="530.0" x2="924.9" y2="795.0" stroke="#eaeef2" stroke-width="1"/>
<text x="924.9" y="812.0" font-size="10" text-anchor="middle" font-weight="normal" fill="#57606a">4</text>
<line x1="990.4" y1="530.0" x2="990.4" y2="795.0" stroke="#eaeef2" stroke-width="1"/>
<text x="990.4" y="812.0" font-size="10" text-anchor="middle" font-weight="normal" fill="#57606a">8</text>
<line x1="1055.8" y1="530.0" x2="1055.8" y2="795.0" stroke="#eaeef2" stroke-width="1"/>
<text x="1055.8" y="812.0" font-size="10" text-anchor="middle" font-weight="normal" fill="#57606a">16</text>
<line x1="1121.3" y1="530.0" x2="1121.3" y2="795.0" stroke="#eaeef2" stroke-width="1"/>
<text x="1121.3" y="812.0" font-size="10" text-anchor="middle" font-weight="normal" fill="#57606a">32</text>
<line x1="1186.7" y1="530.0" x2="1186.7" y2="795.0" stroke="#eaeef2" stroke-width="1"/>
<text x="1186.7" y="812.0" font-size="10" text-anchor="middle" font-weight="normal" fill="#57606a">64</text>
<line x1="1252.2" y1="530.0" x2="1252.2" y2="795.0" stroke="#eaeef2" stroke-width="1"/>
<text x="1252.2" y="812.0" font-size="10" text-anchor="middle" font-weight="normal" fill="#57606a">128</text>
<line x1="1305.0" y1="530.0" x2="1305.0" y2="795.0" stroke="#eaeef2" stroke-width="1"/>
<text x="1305.0" y="812.0" font-size="10" text-anchor="middle" font-weight="normal" fill="#57606a">224</text>
<line x1="794.0" y1="795.0" x2="1305.0" y2="795.0" stroke="#6e7781" stroke-width="1.5" stroke-dasharray="5 4"/>
<polyline points="859.5,551.4 897.7,559.3 924.9,565.8 946.0,569.1 977.7,573.2 990.4,555.2 1001.5,553.1 1020.4,592.5 1036.2,592.0 1049.7,573.5 1055.8,576.9 1061.5,741.7 1072.0,744.9 1081.5,729.4 1090.1,732.3 1097.9,727.2 1105.2,716.4 1112.0,716.0 1118.3,708.9 1121.3,622.8 1124.2,679.4 1129.7,685.7 1135.0,678.1 1139.9,672.2 1144.7,683.9 1149.2,684.8 1153.4,677.6 1157.6,686.6 1161.5,680.2 1165.3,679.7 1168.9,672.3 1172.4,673.5 1175.8,677.1 1179.0,676.2 1182.2,670.4 1185.2,670.1 1186.7,671.9 1188.2,669.7 1191.0,671.1 1193.8,671.3 1196.5,671.4 1199.1,673.1 1201.7,672.3 1204.2,667.4 1206.6,673.1 1209.0,672.0 1211.3,668.4 1213.5,668.2 1215.7,670.8 1217.8,667.4 1219.9,670.0 1222.0,666.2 1224.0,665.3 1226.0,674.3 1227.9,665.8 1229.8,669.1 1231.6,674.7 1233.5,671.9 1235.2,673.8 1237.0,670.2 1238.7,670.9 1240.4,668.3 1242.0,665.9 1243.7,671.1 1245.3,665.5 1246.8,668.8 1248.4,667.2 1249.9,669.1 1251.4,664.3 1252.2,665.9 1252.9,671.6 1254.3,668.6 1255.8,668.7 1257.2,667.4 1258.6,667.5 1259.9,670.5 1261.3,670.6 1262.6,668.3 1263.9,669.2 1265.2,671.8 1266.5,671.8 1267.8,670.0 1269.0,673.2 1270.2,666.0 1271.4,667.4 1272.6,672.9 1273.8,671.5 1275.0,670.2 1276.1,669.1 1277.3,671.2 1278.4,668.6 1279.5,669.9 1280.6,671.5 1281.7,671.3 1282.8,670.4 1283.8,669.0 1284.9,669.8 1285.9,670.3 1286.9,668.2 1288.0,666.7 1289.0,672.7 1290.0,672.4 1290.9,668.9 1291.9,674.0 1292.9,667.1 1293.8,666.3 1294.8,672.0 1295.7,670.7 1296.6,674.9 1297.5,670.1 1298.5,671.9 1299.4,669.1 1300.2,670.2 1301.1,673.7 1302.0,673.3 1302.9,672.9 1303.7,669.5 1304.6,668.9 1305.0,669.9" fill="none" stroke="#cf222e" stroke-width="2.2" stroke-linejoin="round" stroke-linecap="round"/>
<circle cx="859.5" cy="551.4" r="2.8" fill="#fff" stroke="#cf222e" stroke-width="1.6"/>
<circle cx="924.9" cy="565.8" r="2.8" fill="#fff" stroke="#cf222e" stroke-width="1.6"/>
<circle cx="990.4" cy="555.2" r="2.8" fill="#fff" stroke="#cf222e" stroke-width="1.6"/>
<circle cx="1055.8" cy="576.9" r="2.8" fill="#fff" stroke="#cf222e" stroke-width="1.6"/>
<circle cx="1121.3" cy="622.8" r="2.8" fill="#fff" stroke="#cf222e" stroke-width="1.6"/>
<circle cx="1186.7" cy="671.9" r="2.8" fill="#fff" stroke="#cf222e" stroke-width="1.6"/>
<circle cx="1252.2" cy="665.9" r="2.8" fill="#fff" stroke="#cf222e" stroke-width="1.6"/>
<circle cx="1305.0" cy="669.9" r="2.8" fill="#fff" stroke="#cf222e" stroke-width="1.6"/>
<text x="1049.5" y="831.0" font-size="11" text-anchor="middle" font-weight="normal" fill="#24292f">K (log₂ scale)</text>
<text x="743.0" y="662.5" font-size="11" text-anchor="middle" font-weight="normal" fill="#24292f" transform="rotate(-90 743.0 662.5)">speedup (×)</text>
<text x="700.0" y="884.0" font-size="11" text-anchor="middle" font-weight="normal" fill="#57606a">Lines include every odd K; hollow markers identify powers of two and K=224. Missing codec cells are not connected.</text>
</svg>
