<svg xmlns="http://www.w3.org/2000/svg" width="1400" height="900" viewBox="0 0 1400 900">
<rect width="100%" height="100%" fill="#ffffff"/>
<style>text { font-family: -apple-system,BlinkMacSystemFont,"Segoe UI",sans-serif; }</style>
<text x="700.0" y="35.0" font-size="23" text-anchor="middle" font-weight="600" fill="#24292f">Repeated decode-call throughput: 10% random source erasures</text>
<text x="700.0" y="61.0" font-size="13" text-anchor="middle" font-weight="normal" fill="#57606a">AVX2-restricted L2 and L1; R=32; odd K + powers of two through 224; single core; Leopard2 reuses a plan; Leopard main repeats setup; Wirehair omitted</text>
<line x1="500.0" y1="82" x2="528.0" y2="82" stroke="#cf222e" stroke-width="3"/>
<text x="535.0" y="86.0" font-size="12" text-anchor="start" font-weight="normal" fill="#24292f">Leopard2</text>
<line x1="645.0" y1="82" x2="673.0" y2="82" stroke="#0969da" stroke-width="3"/>
<text x="680.0" y="86.0" font-size="12" text-anchor="start" font-weight="normal" fill="#24292f">Leopard main (AVX2-restricted)</text>
<rect x="78.0" y="105.0" width="593.0" height="335.0" rx="6" fill="#f6f8fa" stroke="#d0d7de"/>
<text x="374.5" y="125.0" font-size="14" text-anchor="middle" font-weight="600" fill="#24292f">64 B</text>
<line x1="143.0" y1="400.0" x2="654.0" y2="400.0" stroke="#d8dee4" stroke-width="1"/>
<text x="136.0" y="404.0" font-size="10" text-anchor="end" font-weight="normal" fill="#57606a">1</text>
<line x1="143.0" y1="320.2" x2="654.0" y2="320.2" stroke="#d8dee4" stroke-width="1"/>
<text x="136.0" y="324.2" font-size="10" text-anchor="end" font-weight="normal" fill="#57606a">2</text>
<line x1="143.0" y1="214.8" x2="654.0" y2="214.8" stroke="#d8dee4" stroke-width="1"/>
<text x="136.0" y="218.8" font-size="10" text-anchor="end" font-weight="normal" fill="#57606a">5</text>
<line x1="143.0" y1="135.0" x2="654.0" y2="135.0" stroke="#d8dee4" stroke-width="1"/>
<text x="136.0" y="139.0" font-size="10" text-anchor="end" font-weight="normal" fill="#57606a">10.0</text>
<line x1="143.0" y1="135.0" x2="143.0" y2="400.0" stroke="#eaeef2" stroke-width="1"/>
<text x="143.0" y="417.0" font-size="10" text-anchor="middle" font-weight="normal" fill="#57606a">1</text>
<line x1="208.5" y1="135.0" x2="208.5" y2="400.0" stroke="#eaeef2" stroke-width="1"/>
<text x="208.5" y="417.0" font-size="10" text-anchor="middle" font-weight="normal" fill="#57606a">2</text>
<line x1="273.9" y1="135.0" x2="273.9" y2="400.0" stroke="#eaeef2" stroke-width="1"/>
<text x="273.9" y="417.0" font-size="10" text-anchor="middle" font-weight="normal" fill="#57606a">4</text>
<line x1="339.4" y1="135.0" x2="339.4" y2="400.0" stroke="#eaeef2" stroke-width="1"/>
<text x="339.4" y="417.0" font-size="10" text-anchor="middle" font-weight="normal" fill="#57606a">8</text>
<line x1="404.8" y1="135.0" x2="404.8" y2="400.0" stroke="#eaeef2" stroke-width="1"/>
<text x="404.8" y="417.0" font-size="10" text-anchor="middle" font-weight="normal" fill="#57606a">16</text>
<line x1="470.3" y1="135.0" x2="470.3" y2="400.0" stroke="#eaeef2" stroke-width="1"/>
<text x="470.3" y="417.0" font-size="10" text-anchor="middle" font-weight="normal" fill="#57606a">32</text>
<line x1="535.7" y1="135.0" x2="535.7" y2="400.0" stroke="#eaeef2" stroke-width="1"/>
<text x="535.7" y="417.0" font-size="10" text-anchor="middle" font-weight="normal" fill="#57606a">64</text>
<line x1="601.2" y1="135.0" x2="601.2" y2="400.0" stroke="#eaeef2" stroke-width="1"/>
<text x="601.2" y="417.0" font-size="10" text-anchor="middle" font-weight="normal" fill="#57606a">128</text>
<line x1="654.0" y1="135.0" x2="654.0" y2="400.0" stroke="#eaeef2" stroke-width="1"/>
<text x="654.0" y="417.0" font-size="10" text-anchor="middle" font-weight="normal" fill="#57606a">224</text>
<polyline points="143.0,319.3 208.5,272.8 246.7,236.7 273.9,212.6 295.0,210.3 326.7,171.4 339.4,164.1 350.5,156.4 369.4,235.5 385.2,218.1 398.7,202.7 404.8,203.6 410.5,375.7 421.0,375.2 430.5,355.7 439.1,357.5 446.9,341.0 454.2,339.5 461.0,331.4 467.3,320.2 470.3,216.3 473.2,323.0 478.7,316.7 484.0,309.9 488.9,307.2 493.7,308.7 498.2,301.3 502.4,295.2 506.6,293.4 510.5,291.0 514.3,287.2 517.9,282.7 521.4,281.0 524.8,279.3 528.0,276.3 531.2,275.4 534.2,269.2 535.7,268.5 537.2,269.6 540.0,272.6 542.8,266.7 545.5,272.1 548.1,286.2 550.7,265.4 553.2,258.0 555.6,259.8 558.0,263.7 560.3,253.5 562.5,252.0 564.7,253.0 566.8,251.9 568.9,254.1 571.0,250.8 573.0,247.3 575.0,253.4 576.9,246.7 578.8,252.5 580.6,255.8 582.5,249.6 584.2,251.7 586.0,245.8 587.7,245.4 589.4,247.9 591.0,240.2 592.7,246.4 594.3,242.8 595.8,242.2 597.4,238.1 598.9,239.3 600.4,239.9 601.2,238.7 601.9,243.9 603.3,244.4 604.8,243.7 606.2,240.4 607.6,238.2 608.9,237.9 610.3,239.1 611.6,238.5 612.9,238.8 614.2,239.0 615.5,235.7 616.8,249.0 618.0,230.6 619.2,235.0 620.4,233.3 621.6,234.1 622.8,238.0 624.0,234.3 625.1,234.8 626.3,235.5 627.4,229.1 628.5,232.8 629.6,233.7 630.7,232.3 631.8,232.2 632.8,228.4 633.9,230.4 634.9,229.4 635.9,225.2 637.0,226.0 638.0,228.5 639.0,226.6 639.9,232.0 640.9,230.8 641.9,226.7 642.8,225.1 643.8,230.4 644.7,227.3 645.6,231.7 646.5,225.5 647.5,227.2 648.4,220.1 649.2,229.0 650.1,226.3 651.0,224.8 651.9,223.0 652.7,222.7 653.6,223.3 654.0,221.6" fill="none" stroke="#cf222e" stroke-width="2.2" stroke-linejoin="round" stroke-linecap="round"/>
<circle cx="143.0" cy="319.3" r="2.8" fill="#fff" stroke="#cf222e" stroke-width="1.6"/>
<circle cx="208.5" cy="272.8" r="2.8" fill="#fff" stroke="#cf222e" stroke-width="1.6"/>
<circle cx="273.9" cy="212.6" r="2.8" fill="#fff" stroke="#cf222e" stroke-width="1.6"/>
<circle cx="339.4" cy="164.1" r="2.8" fill="#fff" stroke="#cf222e" stroke-width="1.6"/>
<circle cx="404.8" cy="203.6" r="2.8" fill="#fff" stroke="#cf222e" stroke-width="1.6"/>
<circle cx="470.3" cy="216.3" r="2.8" fill="#fff" stroke="#cf222e" stroke-width="1.6"/>
<circle cx="535.7" cy="268.5" r="2.8" fill="#fff" stroke="#cf222e" stroke-width="1.6"/>
<circle cx="601.2" cy="238.7" r="2.8" fill="#fff" stroke="#cf222e" stroke-width="1.6"/>
<circle cx="654.0" cy="221.6" r="2.8" fill="#fff" stroke="#cf222e" stroke-width="1.6"/>
<polyline points="470.3,346.2 473.2,387.1 478.7,380.7 484.0,376.8 488.9,369.1 493.7,365.7 498.2,361.7 502.4,355.9 506.6,352.0 510.5,348.8 514.3,345.2 517.9,340.5 521.4,336.4 524.8,333.7 528.0,329.9 531.2,326.7 534.2,322.7 535.7,335.1 537.2,323.5 540.0,316.3 542.8,314.5 545.5,312.1 548.1,310.9 550.7,307.5 553.2,303.2 555.6,304.0 558.0,303.2 560.3,297.9 562.5,296.4 564.7,294.9 566.8,294.2 568.9,292.1 571.0,288.8 573.0,287.4 575.0,337.0 576.9,332.8 578.8,331.6 580.6,332.3 582.5,329.5 584.2,327.3 586.0,325.6 587.7,323.2 589.4,324.0 591.0,319.2 592.7,320.9 594.3,317.4 595.8,316.6 597.4,314.8 598.9,313.7 600.4,310.9 601.2,311.3 601.9,310.9 603.3,309.7 604.8,307.1 606.2,306.5 607.6,306.4 608.9,303.5 610.3,301.6 611.6,300.8 612.9,300.5 614.2,315.1 615.5,297.8 616.8,297.6 618.0,294.8 619.2,293.8 620.4,292.3 621.6,292.1 622.8,293.2 624.0,292.4 625.1,293.3 626.3,292.4 627.4,291.7 628.5,290.5 629.6,289.2 630.7,288.5 631.8,286.7 632.8,284.5 633.9,285.8 634.9,285.5 635.9,284.1 637.0,283.3 638.0,281.6 639.0,280.6 639.9,281.8 640.9,278.7 641.9,277.1 642.8,274.8 643.8,276.6 644.7,275.0 645.6,276.6 646.5,273.3 647.5,274.6 648.4,272.7 649.2,271.7 650.1,272.1 651.0,269.9 651.9,270.9 652.7,272.8 653.6,267.8 654.0,267.1" fill="none" stroke="#0969da" stroke-width="2.2" stroke-linejoin="round" stroke-linecap="round"/>
<circle cx="470.3" cy="346.2" r="2.8" fill="#fff" stroke="#0969da" stroke-width="1.6"/>
<circle cx="535.7" cy="335.1" r="2.8" fill="#fff" stroke="#0969da" stroke-width="1.6"/>
<circle cx="601.2" cy="311.3" r="2.8" fill="#fff" stroke="#0969da" stroke-width="1.6"/>
<circle cx="654.0" cy="267.1" r="2.8" fill="#fff" stroke="#0969da" stroke-width="1.6"/>
<text x="398.5" y="436.0" font-size="11" text-anchor="middle" font-weight="normal" fill="#24292f">K (log₂ scale)</text>
<text x="92.0" y="267.5" font-size="11" text-anchor="middle" font-weight="normal" fill="#24292f" transform="rotate(-90 92.0 267.5)">message-equivalent GB/s</text>
<rect x="729.0" y="105.0" width="593.0" height="335.0" rx="6" fill="#f6f8fa" stroke="#d0d7de"/>
<text x="1025.5" y="125.0" font-size="14" text-anchor="middle" font-weight="600" fill="#24292f">1 KiB</text>
<line x1="794.0" y1="400.0" x2="1305.0" y2="400.0" stroke="#d8dee4" stroke-width="1"/>
<text x="787.0" y="404.0" font-size="10" text-anchor="end" font-weight="normal" fill="#57606a">2.5</text>
<line x1="794.0" y1="343.4" x2="1305.0" y2="343.4" stroke="#d8dee4" stroke-width="1"/>
<text x="787.0" y="347.4" font-size="10" text-anchor="end" font-weight="normal" fill="#57606a">5</text>
<line x1="794.0" y1="286.4" x2="1305.0" y2="286.4" stroke="#d8dee4" stroke-width="1"/>
<text x="787.0" y="290.4" font-size="10" text-anchor="end" font-weight="normal" fill="#57606a">10.0</text>
<line x1="794.0" y1="229.4" x2="1305.0" y2="229.4" stroke="#d8dee4" stroke-width="1"/>
<text x="787.0" y="233.4" font-size="10" text-anchor="end" font-weight="normal" fill="#57606a">20.0</text>
<line x1="794.0" y1="154.1" x2="1305.0" y2="154.1" stroke="#d8dee4" stroke-width="1"/>
<text x="787.0" y="158.1" font-size="10" text-anchor="end" font-weight="normal" fill="#57606a">50.0</text>
<line x1="794.0" y1="135.0" x2="1305.0" y2="135.0" stroke="#d8dee4" stroke-width="1"/>
<text x="787.0" y="139.0" font-size="10" text-anchor="end" font-weight="normal" fill="#57606a">63.1</text>
<line x1="794.0" y1="135.0" x2="794.0" y2="400.0" stroke="#eaeef2" stroke-width="1"/>
<text x="794.0" y="417.0" font-size="10" text-anchor="middle" font-weight="normal" fill="#57606a">1</text>
<line x1="859.5" y1="135.0" x2="859.5" y2="400.0" stroke="#eaeef2" stroke-width="1"/>
<text x="859.5" y="417.0" font-size="10" text-anchor="middle" font-weight="normal" fill="#57606a">2</text>
<line x1="924.9" y1="135.0" x2="924.9" y2="400.0" stroke="#eaeef2" stroke-width="1"/>
<text x="924.9" y="417.0" font-size="10" text-anchor="middle" font-weight="normal" fill="#57606a">4</text>
<line x1="990.4" y1="135.0" x2="990.4" y2="400.0" stroke="#eaeef2" stroke-width="1"/>
<text x="990.4" y="417.0" font-size="10" text-anchor="middle" font-weight="normal" fill="#57606a">8</text>
<line x1="1055.8" y1="135.0" x2="1055.8" y2="400.0" stroke="#eaeef2" stroke-width="1"/>
<text x="1055.8" y="417.0" font-size="10" text-anchor="middle" font-weight="normal" fill="#57606a">16</text>
<line x1="1121.3" y1="135.0" x2="1121.3" y2="400.0" stroke="#eaeef2" stroke-width="1"/>
<text x="1121.3" y="417.0" font-size="10" text-anchor="middle" font-weight="normal" fill="#57606a">32</text>
<line x1="1186.7" y1="135.0" x2="1186.7" y2="400.0" stroke="#eaeef2" stroke-width="1"/>
<text x="1186.7" y="417.0" font-size="10" text-anchor="middle" font-weight="normal" fill="#57606a">64</text>
<line x1="1252.2" y1="135.0" x2="1252.2" y2="400.0" stroke="#eaeef2" stroke-width="1"/>
<text x="1252.2" y="417.0" font-size="10" text-anchor="middle" font-weight="normal" fill="#57606a">128</text>
<line x1="1305.0" y1="135.0" x2="1305.0" y2="400.0" stroke="#eaeef2" stroke-width="1"/>
<text x="1305.0" y="417.0" font-size="10" text-anchor="middle" font-weight="normal" fill="#57606a">224</text>
<polyline points="794.0,189.9 859.5,186.3 897.7,172.4 924.9,159.6 946.0,161.8 977.7,149.6 990.4,147.9 1001.5,143.3 1020.4,194.2 1036.2,194.2 1049.7,193.3 1055.8,189.5 1061.5,343.0 1072.0,341.8 1081.5,329.1 1090.1,330.6 1097.9,320.7 1105.2,317.9 1112.0,313.8 1118.3,306.8 1121.3,211.2 1124.2,335.9 1129.7,332.1 1135.0,327.9 1139.9,323.2 1144.7,328.7 1149.2,326.1 1153.4,321.4 1157.6,319.7 1161.5,319.9 1165.3,318.7 1168.9,315.2 1172.4,312.4 1175.8,313.0 1179.0,311.9 1182.2,310.2 1185.2,307.4 1186.7,304.0 1188.2,307.6 1191.0,309.4 1193.8,306.7 1196.5,311.2 1199.1,311.6 1201.7,309.7 1204.2,303.8 1206.6,305.2 1209.0,308.6 1211.3,301.9 1213.5,300.2 1215.7,303.2 1217.8,302.9 1219.9,301.5 1222.0,298.7 1224.0,297.1 1226.0,303.8 1227.9,294.0 1229.8,300.2 1231.6,305.6 1233.5,301.6 1235.2,301.0 1237.0,298.9 1238.7,298.1 1240.4,300.1 1242.0,296.5 1243.7,300.5 1245.3,296.2 1246.8,296.8 1248.4,295.3 1249.9,295.9 1251.4,292.5 1252.2,294.8 1252.9,298.6 1254.3,299.1 1255.8,297.1 1257.2,296.3 1258.6,296.5 1259.9,297.2 1261.3,297.3 1262.6,294.5 1263.9,305.4 1265.2,296.0 1266.5,293.8 1267.8,294.9 1269.0,292.9 1270.2,291.7 1271.4,291.4 1272.6,292.5 1273.8,296.0 1275.0,294.2 1276.1,295.8 1277.3,294.1 1278.4,290.9 1279.5,293.8 1280.6,294.7 1281.7,293.3 1282.8,293.0 1283.8,290.6 1284.9,292.6 1285.9,292.3 1286.9,287.9 1288.0,295.4 1289.0,295.0 1290.0,294.4 1290.9,299.1 1291.9,294.7 1292.9,295.7 1293.8,294.3 1294.8,298.0 1295.7,297.1 1296.6,297.4 1297.5,295.2 1298.5,296.3 1299.4,292.3 1300.2,295.8 1301.1,295.7 1302.0,294.5 1302.9,294.4 1303.7,294.1 1304.6,293.6 1305.0,292.4" fill="none" stroke="#cf222e" stroke-width="2.2" stroke-linejoin="round" stroke-linecap="round"/>
<circle cx="794.0" cy="189.9" r="2.8" fill="#fff" stroke="#cf222e" stroke-width="1.6"/>
<circle cx="859.5" cy="186.3" r="2.8" fill="#fff" stroke="#cf222e" stroke-width="1.6"/>
<circle cx="924.9" cy="159.6" r="2.8" fill="#fff" stroke="#cf222e" stroke-width="1.6"/>
<circle cx="990.4" cy="147.9" r="2.8" fill="#fff" stroke="#cf222e" stroke-width="1.6"/>
<circle cx="1055.8" cy="189.5" r="2.8" fill="#fff" stroke="#cf222e" stroke-width="1.6"/>
<circle cx="1121.3" cy="211.2" r="2.8" fill="#fff" stroke="#cf222e" stroke-width="1.6"/>
<circle cx="1186.7" cy="304.0" r="2.8" fill="#fff" stroke="#cf222e" stroke-width="1.6"/>
<circle cx="1252.2" cy="294.8" r="2.8" fill="#fff" stroke="#cf222e" stroke-width="1.6"/>
<circle cx="1305.0" cy="292.4" r="2.8" fill="#fff" stroke="#cf222e" stroke-width="1.6"/>
<polyline points="1121.3,338.7 1124.2,387.7 1129.7,382.1 1135.0,378.3 1139.9,374.1 1144.7,373.4 1149.2,371.0 1153.4,366.3 1157.6,364.0 1161.5,363.4 1165.3,359.8 1168.9,356.7 1172.4,354.4 1175.8,352.4 1179.0,350.0 1182.2,348.7 1185.2,344.8 1186.7,343.1 1188.2,347.7 1191.0,341.2 1193.8,339.2 1196.5,340.6 1199.1,340.8 1201.7,337.2 1204.2,332.8 1206.6,333.9 1209.0,333.1 1211.3,329.0 1213.5,327.2 1215.7,328.9 1217.8,327.6 1219.9,326.3 1222.0,333.3 1224.0,321.7 1226.0,362.8 1227.9,359.6 1229.8,358.8 1231.6,362.3 1233.5,359.3 1235.2,358.5 1237.0,357.1 1238.7,355.5 1240.4,356.3 1242.0,351.6 1243.7,355.1 1245.3,352.0 1246.8,350.8 1248.4,348.9 1249.9,348.9 1251.4,346.6 1252.2,347.5 1252.9,347.6 1254.3,346.9 1255.8,345.4 1257.2,344.6 1258.6,344.0 1259.9,342.8 1261.3,342.2 1262.6,340.2 1263.9,348.8 1265.2,340.2 1266.5,338.3 1267.8,338.5 1269.0,336.5 1270.2,335.7 1271.4,334.3 1272.6,334.5 1273.8,337.0 1275.0,335.5 1276.1,336.4 1277.3,335.0 1278.4,335.3 1279.5,334.2 1280.6,335.6 1281.7,333.8 1282.8,334.6 1283.8,330.1 1284.9,332.7 1285.9,332.0 1286.9,331.0 1288.0,330.6 1289.0,329.7 1290.0,328.7 1290.9,331.3 1291.9,327.2 1292.9,327.1 1293.8,325.1 1294.8,326.5 1295.7,325.7 1296.6,326.3 1297.5,323.1 1298.5,325.1 1299.4,332.0 1300.2,323.6 1301.1,323.9 1302.0,322.2 1302.9,321.9 1303.7,321.0 1304.6,321.1 1305.0,320.4" fill="none" stroke="#0969da" stroke-width="2.2" stroke-linejoin="round" stroke-linecap="round"/>
<circle cx="1121.3" cy="338.7" r="2.8" fill="#fff" stroke="#0969da" stroke-width="1.6"/>
<circle cx="1186.7" cy="343.1" r="2.8" fill="#fff" stroke="#0969da" stroke-width="1.6"/>
<circle cx="1252.2" cy="347.5" r="2.8" fill="#fff" stroke="#0969da" stroke-width="1.6"/>
<circle cx="1305.0" cy="320.4" r="2.8" fill="#fff" stroke="#0969da" stroke-width="1.6"/>
<text x="1049.5" y="436.0" font-size="11" text-anchor="middle" font-weight="normal" fill="#24292f">K (log₂ scale)</text>
<text x="743.0" y="267.5" font-size="11" text-anchor="middle" font-weight="normal" fill="#24292f" transform="rotate(-90 743.0 267.5)">message-equivalent GB/s</text>
<rect x="78.0" y="500.0" width="593.0" height="335.0" rx="6" fill="#f6f8fa" stroke="#d0d7de"/>
<text x="374.5" y="520.0" font-size="14" text-anchor="middle" font-weight="600" fill="#24292f">4 KiB</text>
<line x1="143.0" y1="795.0" x2="654.0" y2="795.0" stroke="#d8dee4" stroke-width="1"/>
<text x="136.0" y="799.0" font-size="10" text-anchor="end" font-weight="normal" fill="#57606a">2.5</text>
<line x1="143.0" y1="745.5" x2="654.0" y2="745.5" stroke="#d8dee4" stroke-width="1"/>
<text x="136.0" y="749.5" font-size="10" text-anchor="end" font-weight="normal" fill="#57606a">5</text>
<line x1="143.0" y1="695.6" x2="654.0" y2="695.6" stroke="#d8dee4" stroke-width="1"/>
<text x="136.0" y="699.6" font-size="10" text-anchor="end" font-weight="normal" fill="#57606a">10.0</text>
<line x1="143.0" y1="645.8" x2="654.0" y2="645.8" stroke="#d8dee4" stroke-width="1"/>
<text x="136.0" y="649.8" font-size="10" text-anchor="end" font-weight="normal" fill="#57606a">20.0</text>
<line x1="143.0" y1="579.9" x2="654.0" y2="579.9" stroke="#d8dee4" stroke-width="1"/>
<text x="136.0" y="583.9" font-size="10" text-anchor="end" font-weight="normal" fill="#57606a">50.0</text>
<line x1="143.0" y1="530.0" x2="654.0" y2="530.0" stroke="#d8dee4" stroke-width="1"/>
<text x="136.0" y="534.0" font-size="10" text-anchor="end" font-weight="normal" fill="#57606a">100</text>
<line x1="143.0" y1="530.0" x2="143.0" y2="795.0" stroke="#eaeef2" stroke-width="1"/>
<text x="143.0" y="812.0" font-size="10" text-anchor="middle" font-weight="normal" fill="#57606a">1</text>
<line x1="208.5" y1="530.0" x2="208.5" y2="795.0" stroke="#eaeef2" stroke-width="1"/>
<text x="208.5" y="812.0" font-size="10" text-anchor="middle" font-weight="normal" fill="#57606a">2</text>
<line x1="273.9" y1="530.0" x2="273.9" y2="795.0" stroke="#eaeef2" stroke-width="1"/>
<text x="273.9" y="812.0" font-size="10" text-anchor="middle" font-weight="normal" fill="#57606a">4</text>
<line x1="339.4" y1="530.0" x2="339.4" y2="795.0" stroke="#eaeef2" stroke-width="1"/>
<text x="339.4" y="812.0" font-size="10" text-anchor="middle" font-weight="normal" fill="#57606a">8</text>
<line x1="404.8" y1="530.0" x2="404.8" y2="795.0" stroke="#eaeef2" stroke-width="1"/>
<text x="404.8" y="812.0" font-size="10" text-anchor="middle" font-weight="normal" fill="#57606a">16</text>
<line x1="470.3" y1="530.0" x2="470.3" y2="795.0" stroke="#eaeef2" stroke-width="1"/>
<text x="470.3" y="812.0" font-size="10" text-anchor="middle" font-weight="normal" fill="#57606a">32</text>
<line x1="535.7" y1="530.0" x2="535.7" y2="795.0" stroke="#eaeef2" stroke-width="1"/>
<text x="535.7" y="812.0" font-size="10" text-anchor="middle" font-weight="normal" fill="#57606a">64</text>
<line x1="601.2" y1="530.0" x2="601.2" y2="795.0" stroke="#eaeef2" stroke-width="1"/>
<text x="601.2" y="812.0" font-size="10" text-anchor="middle" font-weight="normal" fill="#57606a">128</text>
<line x1="654.0" y1="530.0" x2="654.0" y2="795.0" stroke="#eaeef2" stroke-width="1"/>
<text x="654.0" y="812.0" font-size="10" text-anchor="middle" font-weight="normal" fill="#57606a">224</text>
<polyline points="143.0,547.1 208.5,567.6 246.7,560.2 273.9,555.6 295.0,553.5 326.7,550.8 339.4,551.7 350.5,547.6 369.4,598.0 385.2,599.3 398.7,595.6 404.8,594.6 410.5,742.1 421.0,740.3 430.5,729.1 439.1,730.8 446.9,723.2 454.2,721.1 461.0,715.5 467.3,710.7 470.3,620.7 473.2,736.0 478.7,732.4 484.0,728.3 488.9,723.5 493.7,729.0 498.2,726.9 502.4,722.8 506.6,720.9 510.5,721.1 514.3,719.8 517.9,717.5 521.4,719.8 524.8,715.4 528.0,713.4 531.2,712.4 534.2,710.2 535.7,706.8 537.2,711.3 540.0,711.6 542.8,709.1 545.5,713.7 548.1,713.4 550.7,712.1 553.2,706.1 555.6,708.3 558.0,709.8 560.3,705.0 562.5,703.7 564.7,705.7 566.8,706.1 568.9,704.8 571.0,702.4 573.0,700.2 575.0,707.4 576.9,699.4 578.8,704.5 580.6,707.7 582.5,705.4 584.2,704.5 586.0,703.4 587.7,702.1 589.4,704.4 591.0,700.7 592.7,704.5 594.3,700.8 595.8,700.8 597.4,699.6 598.9,700.0 600.4,697.5 601.2,699.6 601.9,702.3 603.3,703.2 604.8,701.5 606.2,700.1 607.6,705.4 608.9,702.0 610.3,701.0 611.6,703.7 612.9,706.3 614.2,700.9 615.5,698.2 616.8,699.3 618.0,697.2 619.2,696.4 620.4,696.6 621.6,696.9 622.8,699.9 624.0,699.8 625.1,700.6 626.3,698.7 627.4,696.8 628.5,699.0 629.6,699.8 630.7,698.1 631.8,698.0 632.8,696.1 633.9,698.4 634.9,697.7 635.9,694.3 637.0,696.5 638.0,700.2 639.0,695.9 639.9,700.2 640.9,695.9 641.9,697.0 642.8,695.5 643.8,698.5 644.7,698.0 645.6,699.0 646.5,696.4 647.5,697.7 648.4,693.4 649.2,696.0 650.1,701.1 651.0,694.9 651.9,696.2 652.7,695.2 653.6,695.1 654.0,694.4" fill="none" stroke="#cf222e" stroke-width="2.2" stroke-linejoin="round" stroke-linecap="round"/>
<circle cx="143.0" cy="547.1" r="2.8" fill="#fff" stroke="#cf222e" stroke-width="1.6"/>
<circle cx="208.5" cy="567.6" r="2.8" fill="#fff" stroke="#cf222e" stroke-width="1.6"/>
<circle cx="273.9" cy="555.6" r="2.8" fill="#fff" stroke="#cf222e" stroke-width="1.6"/>
<circle cx="339.4" cy="551.7" r="2.8" fill="#fff" stroke="#cf222e" stroke-width="1.6"/>
<circle cx="404.8" cy="594.6" r="2.8" fill="#fff" stroke="#cf222e" stroke-width="1.6"/>
<circle cx="470.3" cy="620.7" r="2.8" fill="#fff" stroke="#cf222e" stroke-width="1.6"/>
<circle cx="535.7" cy="706.8" r="2.8" fill="#fff" stroke="#cf222e" stroke-width="1.6"/>
<circle cx="601.2" cy="699.6" r="2.8" fill="#fff" stroke="#cf222e" stroke-width="1.6"/>
<circle cx="654.0" cy="694.4" r="2.8" fill="#fff" stroke="#cf222e" stroke-width="1.6"/>
<polyline points="470.3,738.8 473.2,783.3 478.7,779.5 484.0,776.1 488.9,771.6 493.7,771.4 498.2,769.5 502.4,765.9 506.6,763.6 510.5,762.5 514.3,760.3 517.9,757.1 521.4,755.4 524.8,753.3 528.0,751.7 531.2,749.5 534.2,746.7 535.7,745.0 537.2,748.5 540.0,743.2 542.8,741.3 545.5,743.5 548.1,742.1 550.7,740.6 553.2,735.6 555.6,736.5 558.0,736.4 560.3,732.4 562.5,731.7 564.7,732.5 566.8,732.2 568.9,730.1 571.0,729.5 573.0,726.1 575.0,766.9 576.9,764.3 578.8,762.9 580.6,765.6 582.5,763.4 584.2,763.1 586.0,761.4 587.7,759.3 589.4,760.5 591.0,756.4 592.7,759.6 594.3,757.1 595.8,756.1 597.4,754.2 598.9,754.3 600.4,752.4 601.2,752.7 601.9,753.1 603.3,752.1 604.8,751.0 606.2,756.7 607.6,749.2 608.9,748.6 610.3,748.0 611.6,745.2 612.9,753.5 614.2,746.1 615.5,744.5 616.8,745.0 618.0,742.3 619.2,741.8 620.4,741.5 621.6,741.9 622.8,743.1 624.0,741.9 625.1,743.0 626.3,741.2 627.4,741.4 628.5,741.4 629.6,741.4 630.7,739.9 631.8,739.9 632.8,737.7 633.9,738.2 634.9,739.1 635.9,738.0 637.0,737.7 638.0,736.6 639.0,735.3 639.9,736.3 640.9,734.5 641.9,734.0 642.8,732.7 643.8,732.9 644.7,732.8 645.6,733.8 646.5,730.6 647.5,732.0 648.4,730.8 649.2,730.6 650.1,739.7 651.0,729.7 651.9,730.0 652.7,728.7 653.6,728.7 654.0,728.1" fill="none" stroke="#0969da" stroke-width="2.2" stroke-linejoin="round" stroke-linecap="round"/>
<circle cx="470.3" cy="738.8" r="2.8" fill="#fff" stroke="#0969da" stroke-width="1.6"/>
<circle cx="535.7" cy="745.0" r="2.8" fill="#fff" stroke="#0969da" stroke-width="1.6"/>
<circle cx="601.2" cy="752.7" r="2.8" fill="#fff" stroke="#0969da" stroke-width="1.6"/>
<circle cx="654.0" cy="728.1" r="2.8" fill="#fff" stroke="#0969da" stroke-width="1.6"/>
<text x="398.5" y="831.0" font-size="11" text-anchor="middle" font-weight="normal" fill="#24292f">K (log₂ scale)</text>
<text x="92.0" y="662.5" font-size="11" text-anchor="middle" font-weight="normal" fill="#24292f" transform="rotate(-90 92.0 662.5)">message-equivalent GB/s</text>
<rect x="729.0" y="500.0" width="593.0" height="335.0" rx="6" fill="#f6f8fa" stroke="#d0d7de"/>
<text x="1025.5" y="520.0" font-size="14" text-anchor="middle" font-weight="600" fill="#24292f">1 MiB</text>
<line x1="794.0" y1="795.0" x2="1305.0" y2="795.0" stroke="#d8dee4" stroke-width="1"/>
<text x="787.0" y="799.0" font-size="10" text-anchor="end" font-weight="normal" fill="#57606a">0.63</text>
<line x1="794.0" y1="770.9" x2="1305.0" y2="770.9" stroke="#d8dee4" stroke-width="1"/>
<text x="787.0" y="774.9" font-size="10" text-anchor="end" font-weight="normal" fill="#57606a">1</text>
<line x1="794.0" y1="734.6" x2="1305.0" y2="734.6" stroke="#d8dee4" stroke-width="1"/>
<text x="787.0" y="738.6" font-size="10" text-anchor="end" font-weight="normal" fill="#57606a">2</text>
<line x1="794.0" y1="686.7" x2="1305.0" y2="686.7" stroke="#d8dee4" stroke-width="1"/>
<text x="787.0" y="690.7" font-size="10" text-anchor="end" font-weight="normal" fill="#57606a">5</text>
<line x1="794.0" y1="650.5" x2="1305.0" y2="650.5" stroke="#d8dee4" stroke-width="1"/>
<text x="787.0" y="654.5" font-size="10" text-anchor="end" font-weight="normal" fill="#57606a">10.0</text>
<line x1="794.0" y1="614.2" x2="1305.0" y2="614.2" stroke="#d8dee4" stroke-width="1"/>
<text x="787.0" y="618.2" font-size="10" text-anchor="end" font-weight="normal" fill="#57606a">20.0</text>
<line x1="794.0" y1="566.3" x2="1305.0" y2="566.3" stroke="#d8dee4" stroke-width="1"/>
<text x="787.0" y="570.3" font-size="10" text-anchor="end" font-weight="normal" fill="#57606a">50.0</text>
<line x1="794.0" y1="530.0" x2="1305.0" y2="530.0" stroke="#d8dee4" stroke-width="1"/>
<text x="787.0" y="534.0" font-size="10" text-anchor="end" font-weight="normal" fill="#57606a">100</text>
<line x1="794.0" y1="530.0" x2="794.0" y2="795.0" stroke="#eaeef2" stroke-width="1"/>
<text x="794.0" y="812.0" font-size="10" text-anchor="middle" font-weight="normal" fill="#57606a">1</text>
<line x1="859.5" y1="530.0" x2="859.5" y2="795.0" stroke="#eaeef2" stroke-width="1"/>
<text x="859.5" y="812.0" font-size="10" text-anchor="middle" font-weight="normal" fill="#57606a">2</text>
<line x1="924.9" y1="530.0" x2="924.9" y2="795.0" stroke="#eaeef2" stroke-width="1"/>
<text x="924.9" y="812.0" font-size="10" text-anchor="middle" font-weight="normal" fill="#57606a">4</text>
<line x1="990.4" y1="530.0" x2="990.4" y2="795.0" stroke="#eaeef2" stroke-width="1"/>
<text x="990.4" y="812.0" font-size="10" text-anchor="middle" font-weight="normal" fill="#57606a">8</text>
<line x1="1055.8" y1="530.0" x2="1055.8" y2="795.0" stroke="#eaeef2" stroke-width="1"/>
<text x="1055.8" y="812.0" font-size="10" text-anchor="middle" font-weight="normal" fill="#57606a">16</text>
<line x1="1121.3" y1="530.0" x2="1121.3" y2="795.0" stroke="#eaeef2" stroke-width="1"/>
<text x="1121.3" y="812.0" font-size="10" text-anchor="middle" font-weight="normal" fill="#57606a">32</text>
<line x1="1186.7" y1="530.0" x2="1186.7" y2="795.0" stroke="#eaeef2" stroke-width="1"/>
<text x="1186.7" y="812.0" font-size="10" text-anchor="middle" font-weight="normal" fill="#57606a">64</text>
<line x1="1252.2" y1="530.0" x2="1252.2" y2="795.0" stroke="#eaeef2" stroke-width="1"/>
<text x="1252.2" y="812.0" font-size="10" text-anchor="middle" font-weight="normal" fill="#57606a">128</text>
<line x1="1305.0" y1="530.0" x2="1305.0" y2="795.0" stroke="#eaeef2" stroke-width="1"/>
<text x="1305.0" y="812.0" font-size="10" text-anchor="middle" font-weight="normal" fill="#57606a">224</text>
<polyline points="794.0,552.4 859.5,554.9 897.7,554.5 924.9,558.3 946.0,566.8 977.7,572.5 990.4,572.5 1001.5,584.4 1020.4,586.6 1036.2,586.9 1049.7,588.3 1055.8,589.7 1061.5,741.8 1072.0,737.0 1081.5,729.0 1090.1,727.5 1097.9,723.8 1105.2,720.7 1112.0,717.4 1118.3,713.0 1121.3,630.9 1124.2,691.9 1129.7,685.5 1135.0,685.7 1139.9,685.3 1144.7,685.4 1149.2,682.8 1153.4,681.3 1157.6,682.0 1161.5,678.9 1165.3,678.3 1168.9,677.2 1172.4,675.6 1175.8,679.0 1179.0,678.1 1182.2,673.5 1185.2,672.3 1186.7,669.9 1188.2,672.8 1191.0,673.8 1193.8,672.8 1196.5,674.8 1199.1,675.3 1201.7,674.4 1204.2,670.3 1206.6,673.1 1209.0,673.4 1211.3,670.0 1213.5,668.9 1215.7,670.4 1217.8,670.6 1219.9,670.3 1222.0,668.6 1224.0,667.4 1226.0,671.5 1227.9,672.4 1229.8,672.8 1231.6,672.0 1233.5,670.2 1235.2,670.6 1237.0,669.6 1238.7,668.7 1240.4,669.7 1242.0,667.4 1243.7,669.3 1245.3,667.9 1246.8,667.5 1248.4,666.9 1249.9,671.0 1251.4,665.7 1252.2,666.7 1252.9,668.0 1254.3,668.8 1255.8,667.3 1257.2,667.0 1258.6,667.5 1259.9,667.9 1261.3,667.8 1262.6,667.2 1263.9,667.1 1265.2,671.0 1266.5,669.3 1267.8,666.3 1269.0,668.6 1270.2,664.8 1271.4,665.5 1272.6,668.7 1273.8,670.3 1275.0,666.2 1276.1,666.0 1277.3,666.2 1278.4,665.2 1279.5,666.2 1280.6,666.4 1281.7,665.6 1282.8,665.2 1283.8,664.1 1284.9,665.1 1285.9,665.0 1286.9,667.4 1288.0,667.6 1289.0,667.1 1290.0,667.4 1290.9,669.5 1291.9,668.0 1292.9,667.9 1293.8,663.8 1294.8,669.0 1295.7,668.4 1296.6,669.0 1297.5,664.3 1298.5,668.2 1299.4,663.3 1300.2,667.1 1301.1,669.2 1302.0,667.0 1302.9,666.9 1303.7,663.4 1304.6,666.1 1305.0,666.1" fill="none" stroke="#cf222e" stroke-width="2.2" stroke-linejoin="round" stroke-linecap="round"/>
<circle cx="794.0" cy="552.4" r="2.8" fill="#fff" stroke="#cf222e" stroke-width="1.6"/>
<circle cx="859.5" cy="554.9" r="2.8" fill="#fff" stroke="#cf222e" stroke-width="1.6"/>
<circle cx="924.9" cy="558.3" r="2.8" fill="#fff" stroke="#cf222e" stroke-width="1.6"/>
<circle cx="990.4" cy="572.5" r="2.8" fill="#fff" stroke="#cf222e" stroke-width="1.6"/>
<circle cx="1055.8" cy="589.7" r="2.8" fill="#fff" stroke="#cf222e" stroke-width="1.6"/>
<circle cx="1121.3" cy="630.9" r="2.8" fill="#fff" stroke="#cf222e" stroke-width="1.6"/>
<circle cx="1186.7" cy="669.9" r="2.8" fill="#fff" stroke="#cf222e" stroke-width="1.6"/>
<circle cx="1252.2" cy="666.7" r="2.8" fill="#fff" stroke="#cf222e" stroke-width="1.6"/>
<circle cx="1305.0" cy="666.1" r="2.8" fill="#fff" stroke="#cf222e" stroke-width="1.6"/>
<polyline points="1121.3,734.6 1124.2,777.4 1129.7,775.1 1135.0,772.2 1139.9,770.3 1144.7,768.7 1149.2,766.6 1153.4,764.0 1157.6,761.3 1161.5,760.9 1165.3,759.1 1168.9,757.4 1172.4,755.8 1175.8,753.8 1179.0,752.2 1182.2,751.0 1185.2,749.4 1186.7,747.5 1188.2,749.3 1191.0,746.4 1193.8,744.9 1196.5,745.2 1199.1,744.6 1201.7,742.8 1204.2,740.0 1206.6,741.4 1209.0,740.4 1211.3,737.7 1213.5,736.7 1215.7,736.8 1217.8,736.2 1219.9,735.6 1222.0,734.3 1224.0,732.7 1226.0,765.2 1227.9,763.6 1229.8,762.7 1231.6,763.7 1233.5,762.9 1235.2,762.0 1237.0,760.9 1238.7,759.4 1240.4,760.1 1242.0,757.3 1243.7,758.7 1245.3,757.3 1246.8,756.6 1248.4,754.8 1249.9,755.1 1251.4,753.6 1252.2,754.4 1252.9,754.1 1254.3,753.3 1255.8,752.5 1257.2,751.8 1258.6,751.2 1259.9,750.1 1261.3,750.3 1262.6,748.6 1263.9,749.1 1265.2,748.7 1266.5,747.7 1267.8,747.5 1269.0,746.8 1270.2,745.9 1271.4,744.8 1272.6,745.0 1273.8,745.7 1275.0,745.0 1276.1,744.5 1277.3,744.8 1278.4,744.4 1279.5,744.0 1280.6,743.9 1281.7,743.0 1282.8,742.9 1283.8,741.1 1284.9,742.2 1285.9,741.8 1286.9,741.2 1288.0,740.8 1289.0,740.6 1290.0,739.9 1290.9,740.3 1291.9,739.0 1292.9,738.3 1293.8,737.1 1294.8,737.5 1295.7,737.7 1296.6,737.3 1297.5,736.2 1298.5,736.8 1299.4,735.6 1300.2,735.5 1301.1,735.8 1302.0,734.7 1302.9,735.0 1303.7,733.7 1304.6,733.7 1305.0,733.0" fill="none" stroke="#0969da" stroke-width="2.2" stroke-linejoin="round" stroke-linecap="round"/>
<circle cx="1121.3" cy="734.6" r="2.8" fill="#fff" stroke="#0969da" stroke-width="1.6"/>
<circle cx="1186.7" cy="747.5" r="2.8" fill="#fff" stroke="#0969da" stroke-width="1.6"/>
<circle cx="1252.2" cy="754.4" r="2.8" fill="#fff" stroke="#0969da" stroke-width="1.6"/>
<circle cx="1305.0" cy="733.0" r="2.8" fill="#fff" stroke="#0969da" stroke-width="1.6"/>
<text x="1049.5" y="831.0" font-size="11" text-anchor="middle" font-weight="normal" fill="#24292f">K (log₂ scale)</text>
<text x="743.0" y="662.5" font-size="11" text-anchor="middle" font-weight="normal" fill="#24292f" transform="rotate(-90 743.0 662.5)">message-equivalent GB/s</text>
<text x="700.0" y="884.0" font-size="11" text-anchor="middle" font-weight="normal" fill="#57606a">Lines include every odd K; hollow markers identify powers of two and K=224. Missing codec cells are not connected.</text>
</svg>
