<svg xmlns="http://www.w3.org/2000/svg" width="1400" height="900" viewBox="0 0 1400 900">
<rect width="100%" height="100%" fill="#ffffff"/>
<style>text { font-family: -apple-system,BlinkMacSystemFont,"Segoe UI",sans-serif; }</style>
<text x="700.0" y="35.0" font-size="23" text-anchor="middle" font-weight="600" fill="#24292f">Wirehair marginal repair-row emission</text>
<text x="700.0" y="61.0" font-size="13" text-anchor="middle" font-weight="normal" fill="#57606a">R=32; every odd K plus powers of two through K=224; pinned single core; excludes message-dependent encoder creation/precode</text>
<line x1="627.5" y1="82" x2="655.5" y2="82" stroke="#1a7f37" stroke-width="3"/>
<text x="662.5" y="86.0" font-size="12" text-anchor="start" font-weight="normal" fill="#24292f">Wirehair (shipping)</text>
<rect x="78.0" y="105.0" width="593.0" height="335.0" rx="6" fill="#f6f8fa" stroke="#d0d7de"/>
<text x="374.5" y="125.0" font-size="14" text-anchor="middle" font-weight="600" fill="#24292f">64 B</text>
<line x1="143.0" y1="400.0" x2="654.0" y2="400.0" stroke="#d8dee4" stroke-width="1"/>
<text x="136.0" y="404.0" font-size="10" text-anchor="end" font-weight="normal" fill="#57606a">1.6</text>
<line x1="143.0" y1="355.4" x2="654.0" y2="355.4" stroke="#d8dee4" stroke-width="1"/>
<text x="136.0" y="359.4" font-size="10" text-anchor="end" font-weight="normal" fill="#57606a">2</text>
<line x1="143.0" y1="179.6" x2="654.0" y2="179.6" stroke="#d8dee4" stroke-width="1"/>
<text x="136.0" y="183.6" font-size="10" text-anchor="end" font-weight="normal" fill="#57606a">5</text>
<line x1="143.0" y1="135.0" x2="654.0" y2="135.0" stroke="#d8dee4" stroke-width="1"/>
<text x="136.0" y="139.0" font-size="10" text-anchor="end" font-weight="normal" fill="#57606a">6.3</text>
<line x1="143.0" y1="135.0" x2="143.0" y2="400.0" stroke="#eaeef2" stroke-width="1"/>
<text x="143.0" y="417.0" font-size="10" text-anchor="middle" font-weight="normal" fill="#57606a">1</text>
<line x1="208.5" y1="135.0" x2="208.5" y2="400.0" stroke="#eaeef2" stroke-width="1"/>
<text x="208.5" y="417.0" font-size="10" text-anchor="middle" font-weight="normal" fill="#57606a">2</text>
<line x1="273.9" y1="135.0" x2="273.9" y2="400.0" stroke="#eaeef2" stroke-width="1"/>
<text x="273.9" y="417.0" font-size="10" text-anchor="middle" font-weight="normal" fill="#57606a">4</text>
<line x1="339.4" y1="135.0" x2="339.4" y2="400.0" stroke="#eaeef2" stroke-width="1"/>
<text x="339.4" y="417.0" font-size="10" text-anchor="middle" font-weight="normal" fill="#57606a">8</text>
<line x1="404.8" y1="135.0" x2="404.8" y2="400.0" stroke="#eaeef2" stroke-width="1"/>
<text x="404.8" y="417.0" font-size="10" text-anchor="middle" font-weight="normal" fill="#57606a">16</text>
<line x1="470.3" y1="135.0" x2="470.3" y2="400.0" stroke="#eaeef2" stroke-width="1"/>
<text x="470.3" y="417.0" font-size="10" text-anchor="middle" font-weight="normal" fill="#57606a">32</text>
<line x1="535.7" y1="135.0" x2="535.7" y2="400.0" stroke="#eaeef2" stroke-width="1"/>
<text x="535.7" y="417.0" font-size="10" text-anchor="middle" font-weight="normal" fill="#57606a">64</text>
<line x1="601.2" y1="135.0" x2="601.2" y2="400.0" stroke="#eaeef2" stroke-width="1"/>
<text x="601.2" y="417.0" font-size="10" text-anchor="middle" font-weight="normal" fill="#57606a">128</text>
<line x1="654.0" y1="135.0" x2="654.0" y2="400.0" stroke="#eaeef2" stroke-width="1"/>
<text x="654.0" y="417.0" font-size="10" text-anchor="middle" font-weight="normal" fill="#57606a">224</text>
<polyline points="208.5,189.7 246.7,190.1 273.9,228.8 295.0,237.9 326.7,239.0 339.4,244.8 350.5,246.8 369.4,249.9 385.2,245.9 398.7,260.1 404.8,257.8 410.5,254.1 421.0,271.4 430.5,260.7 439.1,258.6 446.9,260.5 454.2,256.8 461.0,282.8 467.3,284.9 470.3,259.4 473.2,284.2 478.7,274.3 484.0,256.2 488.9,260.4 493.7,260.1 498.2,296.6 502.4,286.6 506.6,258.5 510.5,286.6 514.3,300.1 517.9,298.2 521.4,261.9 524.8,262.2 528.0,256.5 531.2,264.8 534.2,295.9 535.7,258.0 537.2,272.5 540.0,310.8 542.8,261.5 545.5,309.1 548.1,296.5 550.7,260.7 553.2,291.4 555.6,324.5 558.0,267.1 560.3,273.3 562.5,304.4 564.7,253.4 566.8,299.8 568.9,290.9 571.0,307.0 573.0,320.0 575.0,310.6 576.9,301.1 578.8,294.4 580.6,306.4 582.5,278.3 584.2,313.7 586.0,323.6 587.7,267.7 589.4,278.2 591.0,267.3 592.7,254.2 594.3,299.8 595.8,263.3 597.4,271.1 598.9,331.7 600.4,284.0 601.2,307.5 601.9,325.0 603.3,322.8 604.8,320.1 606.2,313.4 607.6,295.2 608.9,338.6 610.3,322.8 611.6,283.5 612.9,286.2 614.2,319.1 615.5,295.7 616.8,297.8 618.0,319.1 619.2,329.7 620.4,304.2 621.6,297.1 622.8,255.9 624.0,259.0 625.1,329.9 626.3,257.7 627.4,340.2 628.5,258.3 629.6,268.6 630.7,273.9 631.8,276.4 632.8,274.6 633.9,281.1 634.9,275.5 635.9,275.4 637.0,294.5 638.0,269.6 639.0,272.6 639.9,288.6 640.9,271.2 641.9,287.5 642.8,294.4 643.8,286.2 644.7,263.6 645.6,264.6 646.5,282.4 647.5,275.1 648.4,299.1 649.2,269.1 650.1,334.6 651.0,330.2 651.9,330.8 652.7,328.7 653.6,339.3 654.0,250.1" fill="none" stroke="#1a7f37" stroke-width="2.2" stroke-linejoin="round" stroke-linecap="round"/>
<circle cx="208.5" cy="189.7" r="2.8" fill="#fff" stroke="#1a7f37" stroke-width="1.6"/>
<circle cx="273.9" cy="228.8" r="2.8" fill="#fff" stroke="#1a7f37" stroke-width="1.6"/>
<circle cx="339.4" cy="244.8" r="2.8" fill="#fff" stroke="#1a7f37" stroke-width="1.6"/>
<circle cx="404.8" cy="257.8" r="2.8" fill="#fff" stroke="#1a7f37" stroke-width="1.6"/>
<circle cx="470.3" cy="259.4" r="2.8" fill="#fff" stroke="#1a7f37" stroke-width="1.6"/>
<circle cx="535.7" cy="258.0" r="2.8" fill="#fff" stroke="#1a7f37" stroke-width="1.6"/>
<circle cx="601.2" cy="307.5" r="2.8" fill="#fff" stroke="#1a7f37" stroke-width="1.6"/>
<circle cx="654.0" cy="250.1" r="2.8" fill="#fff" stroke="#1a7f37" stroke-width="1.6"/>
<text x="398.5" y="436.0" font-size="11" text-anchor="middle" font-weight="normal" fill="#24292f">K (log₂ scale)</text>
<text x="92.0" y="267.5" font-size="11" text-anchor="middle" font-weight="normal" fill="#24292f" transform="rotate(-90 92.0 267.5)">repair output GB/s</text>
<rect x="729.0" y="105.0" width="593.0" height="335.0" rx="6" fill="#f6f8fa" stroke="#d0d7de"/>
<text x="1025.5" y="125.0" font-size="14" text-anchor="middle" font-weight="600" fill="#24292f">1 KiB</text>
<line x1="794.0" y1="400.0" x2="1305.0" y2="400.0" stroke="#d8dee4" stroke-width="1"/>
<text x="787.0" y="404.0" font-size="10" text-anchor="end" font-weight="normal" fill="#57606a">10.0</text>
<line x1="794.0" y1="267.0" x2="1305.0" y2="267.0" stroke="#d8dee4" stroke-width="1"/>
<text x="787.0" y="271.0" font-size="10" text-anchor="end" font-weight="normal" fill="#57606a">20.0</text>
<line x1="794.0" y1="135.0" x2="1305.0" y2="135.0" stroke="#d8dee4" stroke-width="1"/>
<text x="787.0" y="139.0" font-size="10" text-anchor="end" font-weight="normal" fill="#57606a">39.8</text>
<line x1="794.0" y1="135.0" x2="794.0" y2="400.0" stroke="#eaeef2" stroke-width="1"/>
<text x="794.0" y="417.0" font-size="10" text-anchor="middle" font-weight="normal" fill="#57606a">1</text>
<line x1="859.5" y1="135.0" x2="859.5" y2="400.0" stroke="#eaeef2" stroke-width="1"/>
<text x="859.5" y="417.0" font-size="10" text-anchor="middle" font-weight="normal" fill="#57606a">2</text>
<line x1="924.9" y1="135.0" x2="924.9" y2="400.0" stroke="#eaeef2" stroke-width="1"/>
<text x="924.9" y="417.0" font-size="10" text-anchor="middle" font-weight="normal" fill="#57606a">4</text>
<line x1="990.4" y1="135.0" x2="990.4" y2="400.0" stroke="#eaeef2" stroke-width="1"/>
<text x="990.4" y="417.0" font-size="10" text-anchor="middle" font-weight="normal" fill="#57606a">8</text>
<line x1="1055.8" y1="135.0" x2="1055.8" y2="400.0" stroke="#eaeef2" stroke-width="1"/>
<text x="1055.8" y="417.0" font-size="10" text-anchor="middle" font-weight="normal" fill="#57606a">16</text>
<line x1="1121.3" y1="135.0" x2="1121.3" y2="400.0" stroke="#eaeef2" stroke-width="1"/>
<text x="1121.3" y="417.0" font-size="10" text-anchor="middle" font-weight="normal" fill="#57606a">32</text>
<line x1="1186.7" y1="135.0" x2="1186.7" y2="400.0" stroke="#eaeef2" stroke-width="1"/>
<text x="1186.7" y="417.0" font-size="10" text-anchor="middle" font-weight="normal" fill="#57606a">64</text>
<line x1="1252.2" y1="135.0" x2="1252.2" y2="400.0" stroke="#eaeef2" stroke-width="1"/>
<text x="1252.2" y="417.0" font-size="10" text-anchor="middle" font-weight="normal" fill="#57606a">128</text>
<line x1="1305.0" y1="135.0" x2="1305.0" y2="400.0" stroke="#eaeef2" stroke-width="1"/>
<text x="1305.0" y="417.0" font-size="10" text-anchor="middle" font-weight="normal" fill="#57606a">224</text>
<polyline points="859.5,201.2 897.7,198.2 924.9,237.6 946.0,227.1 977.7,245.0 990.4,262.9 1001.5,260.2 1020.4,287.7 1036.2,270.0 1049.7,284.2 1055.8,284.3 1061.5,291.1 1072.0,286.4 1081.5,298.8 1090.1,300.2 1097.9,291.2 1105.2,297.8 1112.0,322.8 1118.3,324.2 1121.3,298.2 1124.2,326.0 1129.7,320.0 1135.0,286.8 1139.9,296.8 1144.7,293.5 1149.2,342.9 1153.4,335.4 1157.6,279.4 1161.5,337.5 1165.3,349.6 1168.9,338.6 1172.4,303.3 1175.8,298.4 1179.0,295.6 1182.2,308.6 1185.2,354.6 1186.7,296.1 1188.2,317.7 1191.0,365.2 1193.8,293.0 1196.5,357.4 1199.1,350.3 1201.7,304.5 1204.2,338.8 1206.6,376.1 1209.0,300.4 1211.3,311.8 1213.5,345.7 1215.7,287.9 1217.8,345.6 1219.9,334.2 1222.0,357.8 1224.0,352.1 1226.0,359.2 1227.9,356.9 1229.8,340.5 1231.6,330.3 1233.5,325.3 1235.2,359.3 1237.0,372.5 1238.7,306.9 1240.4,304.3 1242.0,311.0 1243.7,289.0 1245.3,345.6 1246.8,308.3 1248.4,312.7 1249.9,371.1 1251.4,324.1 1252.2,353.9 1252.9,373.1 1254.3,370.6 1255.8,365.9 1257.2,368.5 1258.6,341.6 1259.9,388.6 1261.3,373.1 1262.6,337.1 1263.9,334.1 1265.2,375.4 1266.5,339.3 1267.8,339.6 1269.0,336.2 1270.2,387.0 1271.4,344.3 1272.6,346.6 1273.8,297.0 1275.0,302.0 1276.1,379.5 1277.3,297.9 1278.4,386.8 1279.5,286.7 1280.6,291.8 1281.7,320.0 1282.8,316.5 1283.8,318.2 1284.9,324.0 1285.9,325.8 1286.9,320.9 1288.0,348.5 1289.0,314.6 1290.0,340.1 1290.9,337.2 1291.9,314.1 1292.9,324.6 1293.8,330.8 1294.8,329.8 1295.7,308.5 1296.6,306.2 1297.5,325.1 1298.5,305.5 1299.4,332.8 1300.2,308.2 1301.1,381.3 1302.0,379.9 1302.9,381.7 1303.7,379.9 1304.6,379.3 1305.0,287.0" fill="none" stroke="#1a7f37" stroke-width="2.2" stroke-linejoin="round" stroke-linecap="round"/>
<circle cx="859.5" cy="201.2" r="2.8" fill="#fff" stroke="#1a7f37" stroke-width="1.6"/>
<circle cx="924.9" cy="237.6" r="2.8" fill="#fff" stroke="#1a7f37" stroke-width="1.6"/>
<circle cx="990.4" cy="262.9" r="2.8" fill="#fff" stroke="#1a7f37" stroke-width="1.6"/>
<circle cx="1055.8" cy="284.3" r="2.8" fill="#fff" stroke="#1a7f37" stroke-width="1.6"/>
<circle cx="1121.3" cy="298.2" r="2.8" fill="#fff" stroke="#1a7f37" stroke-width="1.6"/>
<circle cx="1186.7" cy="296.1" r="2.8" fill="#fff" stroke="#1a7f37" stroke-width="1.6"/>
<circle cx="1252.2" cy="353.9" r="2.8" fill="#fff" stroke="#1a7f37" stroke-width="1.6"/>
<circle cx="1305.0" cy="287.0" r="2.8" fill="#fff" stroke="#1a7f37" stroke-width="1.6"/>
<text x="1049.5" y="436.0" font-size="11" text-anchor="middle" font-weight="normal" fill="#24292f">K (log₂ scale)</text>
<text x="743.0" y="267.5" font-size="11" text-anchor="middle" font-weight="normal" fill="#24292f" transform="rotate(-90 743.0 267.5)">repair output GB/s</text>
<rect x="78.0" y="500.0" width="593.0" height="335.0" rx="6" fill="#f6f8fa" stroke="#d0d7de"/>
<text x="374.5" y="520.0" font-size="14" text-anchor="middle" font-weight="600" fill="#24292f">4 KiB</text>
<line x1="143.0" y1="795.0" x2="654.0" y2="795.0" stroke="#d8dee4" stroke-width="1"/>
<text x="136.0" y="799.0" font-size="10" text-anchor="end" font-weight="normal" fill="#57606a">10.0</text>
<line x1="143.0" y1="695.3" x2="654.0" y2="695.3" stroke="#d8dee4" stroke-width="1"/>
<text x="136.0" y="699.3" font-size="10" text-anchor="end" font-weight="normal" fill="#57606a">20.0</text>
<line x1="143.0" y1="563.5" x2="654.0" y2="563.5" stroke="#d8dee4" stroke-width="1"/>
<text x="136.0" y="567.5" font-size="10" text-anchor="end" font-weight="normal" fill="#57606a">50.0</text>
<line x1="143.0" y1="530.0" x2="654.0" y2="530.0" stroke="#d8dee4" stroke-width="1"/>
<text x="136.0" y="534.0" font-size="10" text-anchor="end" font-weight="normal" fill="#57606a">63.1</text>
<line x1="143.0" y1="530.0" x2="143.0" y2="795.0" stroke="#eaeef2" stroke-width="1"/>
<text x="143.0" y="812.0" font-size="10" text-anchor="middle" font-weight="normal" fill="#57606a">1</text>
<line x1="208.5" y1="530.0" x2="208.5" y2="795.0" stroke="#eaeef2" stroke-width="1"/>
<text x="208.5" y="812.0" font-size="10" text-anchor="middle" font-weight="normal" fill="#57606a">2</text>
<line x1="273.9" y1="530.0" x2="273.9" y2="795.0" stroke="#eaeef2" stroke-width="1"/>
<text x="273.9" y="812.0" font-size="10" text-anchor="middle" font-weight="normal" fill="#57606a">4</text>
<line x1="339.4" y1="530.0" x2="339.4" y2="795.0" stroke="#eaeef2" stroke-width="1"/>
<text x="339.4" y="812.0" font-size="10" text-anchor="middle" font-weight="normal" fill="#57606a">8</text>
<line x1="404.8" y1="530.0" x2="404.8" y2="795.0" stroke="#eaeef2" stroke-width="1"/>
<text x="404.8" y="812.0" font-size="10" text-anchor="middle" font-weight="normal" fill="#57606a">16</text>
<line x1="470.3" y1="530.0" x2="470.3" y2="795.0" stroke="#eaeef2" stroke-width="1"/>
<text x="470.3" y="812.0" font-size="10" text-anchor="middle" font-weight="normal" fill="#57606a">32</text>
<line x1="535.7" y1="530.0" x2="535.7" y2="795.0" stroke="#eaeef2" stroke-width="1"/>
<text x="535.7" y="812.0" font-size="10" text-anchor="middle" font-weight="normal" fill="#57606a">64</text>
<line x1="601.2" y1="530.0" x2="601.2" y2="795.0" stroke="#eaeef2" stroke-width="1"/>
<text x="601.2" y="812.0" font-size="10" text-anchor="middle" font-weight="normal" fill="#57606a">128</text>
<line x1="654.0" y1="530.0" x2="654.0" y2="795.0" stroke="#eaeef2" stroke-width="1"/>
<text x="654.0" y="812.0" font-size="10" text-anchor="middle" font-weight="normal" fill="#57606a">224</text>
<polyline points="208.5,578.8 246.7,590.2 273.9,627.4 295.0,621.4 326.7,637.9 339.4,657.8 350.5,658.4 369.4,654.2 385.2,667.3 398.7,675.0 404.8,676.9 410.5,691.9 421.0,683.8 430.5,693.6 439.1,689.6 446.9,683.9 454.2,686.2 461.0,709.8 467.3,711.2 470.3,698.1 473.2,716.1 478.7,709.2 484.0,685.3 488.9,685.9 493.7,694.4 498.2,721.1 502.4,722.9 506.6,674.7 510.5,723.9 514.3,733.6 517.9,721.0 521.4,698.1 524.8,690.7 528.0,685.8 531.2,692.2 534.2,730.3 535.7,689.2 537.2,705.7 540.0,739.9 542.8,690.2 545.5,739.4 548.1,730.0 550.7,696.9 553.2,723.8 555.6,756.3 558.0,684.6 560.3,709.2 562.5,731.0 564.7,682.6 566.8,721.3 568.9,717.9 571.0,740.8 573.0,727.9 575.0,734.4 576.9,737.3 578.8,721.9 580.6,716.6 582.5,712.0 584.2,733.2 586.0,751.1 587.7,703.5 589.4,699.4 591.0,702.9 592.7,684.9 594.3,732.1 595.8,695.0 597.4,701.2 598.9,747.6 600.4,709.1 601.2,741.5 601.9,747.0 603.3,772.8 604.8,746.2 606.2,744.1 607.6,721.7 608.9,760.0 610.3,748.4 611.6,723.6 612.9,721.3 614.2,749.7 615.5,726.4 616.8,715.6 618.0,719.6 619.2,757.7 620.4,733.9 621.6,730.9 622.8,688.2 624.0,694.2 625.1,753.8 626.3,693.6 627.4,757.5 628.5,676.8 629.6,678.4 630.7,703.8 631.8,703.0 632.8,708.9 633.9,719.6 634.9,710.4 635.9,703.3 637.0,732.4 638.0,702.4 639.0,696.0 639.9,730.5 640.9,710.0 641.9,708.8 642.8,714.9 643.8,713.4 644.7,691.3 645.6,689.0 646.5,705.1 647.5,702.7 648.4,716.1 649.2,692.1 650.1,758.8 651.0,759.9 651.9,763.2 652.7,754.6 653.6,759.2 654.0,685.8" fill="none" stroke="#1a7f37" stroke-width="2.2" stroke-linejoin="round" stroke-linecap="round"/>
<circle cx="208.5" cy="578.8" r="2.8" fill="#fff" stroke="#1a7f37" stroke-width="1.6"/>
<circle cx="273.9" cy="627.4" r="2.8" fill="#fff" stroke="#1a7f37" stroke-width="1.6"/>
<circle cx="339.4" cy="657.8" r="2.8" fill="#fff" stroke="#1a7f37" stroke-width="1.6"/>
<circle cx="404.8" cy="676.9" r="2.8" fill="#fff" stroke="#1a7f37" stroke-width="1.6"/>
<circle cx="470.3" cy="698.1" r="2.8" fill="#fff" stroke="#1a7f37" stroke-width="1.6"/>
<circle cx="535.7" cy="689.2" r="2.8" fill="#fff" stroke="#1a7f37" stroke-width="1.6"/>
<circle cx="601.2" cy="741.5" r="2.8" fill="#fff" stroke="#1a7f37" stroke-width="1.6"/>
<circle cx="654.0" cy="685.8" r="2.8" fill="#fff" stroke="#1a7f37" stroke-width="1.6"/>
<text x="398.5" y="831.0" font-size="11" text-anchor="middle" font-weight="normal" fill="#24292f">K (log₂ scale)</text>
<text x="92.0" y="662.5" font-size="11" text-anchor="middle" font-weight="normal" fill="#24292f" transform="rotate(-90 92.0 662.5)">repair output GB/s</text>
<rect x="729.0" y="500.0" width="593.0" height="335.0" rx="6" fill="#f6f8fa" stroke="#d0d7de"/>
<text x="1025.5" y="520.0" font-size="14" text-anchor="middle" font-weight="600" fill="#24292f">1 MiB</text>
<line x1="794.0" y1="795.0" x2="1305.0" y2="795.0" stroke="#d8dee4" stroke-width="1"/>
<text x="787.0" y="799.0" font-size="10" text-anchor="end" font-weight="normal" fill="#57606a">2.5</text>
<line x1="794.0" y1="715.8" x2="1305.0" y2="715.8" stroke="#d8dee4" stroke-width="1"/>
<text x="787.0" y="719.8" font-size="10" text-anchor="end" font-weight="normal" fill="#57606a">5</text>
<line x1="794.0" y1="636.0" x2="1305.0" y2="636.0" stroke="#d8dee4" stroke-width="1"/>
<text x="787.0" y="640.0" font-size="10" text-anchor="end" font-weight="normal" fill="#57606a">10.0</text>
<line x1="794.0" y1="556.2" x2="1305.0" y2="556.2" stroke="#d8dee4" stroke-width="1"/>
<text x="787.0" y="560.2" font-size="10" text-anchor="end" font-weight="normal" fill="#57606a">20.0</text>
<line x1="794.0" y1="530.0" x2="1305.0" y2="530.0" stroke="#d8dee4" stroke-width="1"/>
<text x="787.0" y="534.0" font-size="10" text-anchor="end" font-weight="normal" fill="#57606a">25.1</text>
<line x1="794.0" y1="530.0" x2="794.0" y2="795.0" stroke="#eaeef2" stroke-width="1"/>
<text x="794.0" y="812.0" font-size="10" text-anchor="middle" font-weight="normal" fill="#57606a">1</text>
<line x1="859.5" y1="530.0" x2="859.5" y2="795.0" stroke="#eaeef2" stroke-width="1"/>
<text x="859.5" y="812.0" font-size="10" text-anchor="middle" font-weight="normal" fill="#57606a">2</text>
<line x1="924.9" y1="530.0" x2="924.9" y2="795.0" stroke="#eaeef2" stroke-width="1"/>
<text x="924.9" y="812.0" font-size="10" text-anchor="middle" font-weight="normal" fill="#57606a">4</text>
<line x1="990.4" y1="530.0" x2="990.4" y2="795.0" stroke="#eaeef2" stroke-width="1"/>
<text x="990.4" y="812.0" font-size="10" text-anchor="middle" font-weight="normal" fill="#57606a">8</text>
<line x1="1055.8" y1="530.0" x2="1055.8" y2="795.0" stroke="#eaeef2" stroke-width="1"/>
<text x="1055.8" y="812.0" font-size="10" text-anchor="middle" font-weight="normal" fill="#57606a">16</text>
<line x1="1121.3" y1="530.0" x2="1121.3" y2="795.0" stroke="#eaeef2" stroke-width="1"/>
<text x="1121.3" y="812.0" font-size="10" text-anchor="middle" font-weight="normal" fill="#57606a">32</text>
<line x1="1186.7" y1="530.0" x2="1186.7" y2="795.0" stroke="#eaeef2" stroke-width="1"/>
<text x="1186.7" y="812.0" font-size="10" text-anchor="middle" font-weight="normal" fill="#57606a">64</text>
<line x1="1252.2" y1="530.0" x2="1252.2" y2="795.0" stroke="#eaeef2" stroke-width="1"/>
<text x="1252.2" y="812.0" font-size="10" text-anchor="middle" font-weight="normal" fill="#57606a">128</text>
<line x1="1305.0" y1="530.0" x2="1305.0" y2="795.0" stroke="#eaeef2" stroke-width="1"/>
<text x="1305.0" y="812.0" font-size="10" text-anchor="middle" font-weight="normal" fill="#57606a">224</text>
<polyline points="859.5,575.0 897.7,579.7 924.9,609.6 946.0,615.3 977.7,629.3 990.4,640.7 1001.5,639.8 1020.4,654.2 1036.2,660.7 1049.7,672.1 1055.8,672.5 1061.5,684.6 1072.0,683.7 1081.5,691.8 1090.1,689.1 1097.9,685.8 1105.2,694.5 1112.0,707.6 1118.3,710.6 1121.3,694.5 1124.2,714.8 1129.7,710.9 1135.0,693.4 1139.9,699.6 1144.7,698.3 1149.2,724.2 1153.4,721.9 1157.6,690.5 1161.5,723.9 1165.3,734.3 1168.9,726.6 1172.4,704.2 1175.8,702.3 1179.0,702.5 1182.2,708.8 1185.2,736.4 1186.7,701.1 1188.2,715.1 1191.0,740.0 1193.8,702.2 1196.5,739.6 1199.1,734.2 1201.7,707.3 1204.2,730.4 1206.6,753.7 1209.0,706.0 1211.3,714.1 1213.5,735.7 1215.7,697.0 1217.8,732.0 1219.9,726.6 1222.0,742.4 1224.0,735.1 1226.0,743.7 1227.9,741.0 1229.8,731.4 1231.6,724.4 1233.5,725.9 1235.2,743.8 1237.0,751.1 1238.7,711.8 1240.4,711.4 1242.0,711.5 1243.7,703.5 1245.3,734.4 1246.8,711.8 1248.4,714.3 1249.9,750.9 1251.4,721.4 1252.2,743.1 1252.9,752.2 1254.3,752.7 1255.8,748.8 1257.2,748.4 1258.6,731.7 1259.9,762.5 1261.3,752.9 1262.6,726.8 1263.9,727.3 1265.2,751.7 1266.5,729.2 1267.8,728.6 1269.0,732.9 1270.2,759.8 1271.4,736.1 1272.6,738.1 1273.8,704.7 1275.0,708.0 1276.1,755.7 1277.3,707.0 1278.4,761.3 1279.5,701.3 1280.6,704.1 1281.7,718.5 1282.8,718.0 1283.8,718.4 1284.9,726.1 1285.9,721.5 1286.9,719.4 1288.0,736.4 1289.0,716.8 1290.0,716.1 1290.9,728.6 1291.9,715.4 1292.9,722.0 1293.8,724.4 1294.8,724.8 1295.7,709.7 1296.6,711.3 1297.5,722.9 1298.5,713.1 1299.4,729.1 1300.2,713.2 1301.1,756.7 1302.0,754.4 1302.9,757.4 1303.7,757.3 1304.6,757.6 1305.0,701.1" fill="none" stroke="#1a7f37" stroke-width="2.2" stroke-linejoin="round" stroke-linecap="round"/>
<circle cx="859.5" cy="575.0" r="2.8" fill="#fff" stroke="#1a7f37" stroke-width="1.6"/>
<circle cx="924.9" cy="609.6" r="2.8" fill="#fff" stroke="#1a7f37" stroke-width="1.6"/>
<circle cx="990.4" cy="640.7" r="2.8" fill="#fff" stroke="#1a7f37" stroke-width="1.6"/>
<circle cx="1055.8" cy="672.5" r="2.8" fill="#fff" stroke="#1a7f37" stroke-width="1.6"/>
<circle cx="1121.3" cy="694.5" r="2.8" fill="#fff" stroke="#1a7f37" stroke-width="1.6"/>
<circle cx="1186.7" cy="701.1" r="2.8" fill="#fff" stroke="#1a7f37" stroke-width="1.6"/>
<circle cx="1252.2" cy="743.1" r="2.8" fill="#fff" stroke="#1a7f37" stroke-width="1.6"/>
<circle cx="1305.0" cy="701.1" r="2.8" fill="#fff" stroke="#1a7f37" stroke-width="1.6"/>
<text x="1049.5" y="831.0" font-size="11" text-anchor="middle" font-weight="normal" fill="#24292f">K (log₂ scale)</text>
<text x="743.0" y="662.5" font-size="11" text-anchor="middle" font-weight="normal" fill="#24292f" transform="rotate(-90 743.0 662.5)">repair output GB/s</text>
<text x="700.0" y="884.0" font-size="11" text-anchor="middle" font-weight="normal" fill="#57606a">Lines include every odd K; hollow markers identify powers of two and K=224. Missing codec cells are not connected.</text>
</svg>
